SplineFontDB: 3.2
FontName: SpartanTT-Medium
FullName: SpartanTT Medium
FamilyName: SpartanTT Medium
Weight: Medium
Copyright: Copyright 2020 The Spartan Project Authors (https://github.com/bghryct/Spartan-MB) SpartanTT variant by Nathanael Nerode
Version: 1.004
ItalicAngle: 0
UnderlinePosition: -200
UnderlineWidth: 100
Ascent: 1600
Descent: 400
InvalidEm: 0
sfntRevision: 0x00010106
LayerCount: 2
Layer: 0 1 "Back" 1
Layer: 1 1 "Fore" 0
XUID: [1021 407 1219447775 14414703]
StyleMap: 0x0040
FSType: 0
OS2Version: 4
OS2_WeightWidthSlopeOnly: 0
OS2_UseTypoMetrics: 1
CreationTime: 1580155577
ModificationTime: 1646872841
PfmFamily: 81
TTFWeight: 500
TTFWidth: 5
LineGap: 0
VLineGap: 0
Panose: 0 0 0 0 0 0 0 0 0 0
OS2TypoAscent: 1720
OS2TypoAOffset: 0
OS2TypoDescent: -520
OS2TypoDOffset: 0
OS2TypoLinegap: 130
OS2WinAscent: 2398
OS2WinAOffset: 0
OS2WinDescent: 592
OS2WinDOffset: 0
HheadAscent: 1720
HheadAOffset: 0
HheadDescent: -520
HheadDOffset: 0
OS2SubXSize: 650
OS2SubYSize: 600
OS2SubXOff: 0
OS2SubYOff: 75
OS2SupXSize: 650
OS2SupYSize: 600
OS2SupXOff: 0
OS2SupYOff: 350
OS2StrikeYSize: 100
OS2StrikeYPos: 614
OS2CapHeight: 1650
OS2XHeight: 1026
OS2Vendor: 'NONE'
OS2CodePages: 20000093.00000000
OS2UnicodeRanges: a00000ef.4000205b.00000000.00000000
Lookup: 1 0 0 "'aalt' Access All Alternates in Latin lookup 0" { "'aalt' Access All Alternates in Latin lookup 0 subtable"  } ['aalt' ('DFLT' <'dflt' > 'latn' <'MOL ' 'TRK ' 'dflt' > ) ]
Lookup: 3 0 0 "'aalt' Access All Alternates in Latin lookup 1" { "'aalt' Access All Alternates in Latin lookup 1 subtable"  } ['aalt' ('DFLT' <'dflt' > 'latn' <'MOL ' 'TRK ' 'dflt' > ) ]
Lookup: 6 0 0 "'ccmp' Glyph Composition/Decomposition in Latin lookup 2" { "'ccmp' Glyph Composition/Decomposition in Latin lookup 2 contextual 0"  "'ccmp' Glyph Composition/Decomposition in Latin lookup 2 contextual 1"  } ['ccmp' ('DFLT' <'dflt' > 'latn' <'MOL ' 'TRK ' 'dflt' > ) ]

StartChar: A
Encoding: 65 65 1
Width: 1659
GlyphClass: 2
Flags: W
AnchorPoint: "Anchor-2" 1577 4 basechar 0
AnchorPoint: "Anchor-1" 829 0 basechar 0
AnchorPoint: "Anchor-0" 829 1650 basechar 0
LayerCount: 2
Fore
SplineSet
82 0 m 1,0,-1
 735 1650 l 1,1,-1
 924 1650 l 1,2,-1
 1577 0 l 1,3,-1
 1358 0 l 1,4,-1
 1175 481 l 1,5,-1
 484 481 l 1,6,-1
 300 0 l 1,7,-1
 82 0 l 1,0,-1
553 660 m 1,8,-1
 1106 660 l 1,9,-1
 829 1379 l 1,10,-1
 553 660 l 1,8,-1
EndSplineSet
Validated: 1
Substitution2: "'tnum' Tabular Numbers lookup 19-1" A.tnum
Substitution2: "Single Substitution lookup 16 subtable" ordfeminine
Substitution2: "'aalt' Access All Alternates in Latin lookup 0 subtable" ordfeminine
EndChar

StartChar: AE
Encoding: 198 198 11
Width: 2297
Flags: W
LayerCount: 2
Fore
SplineSet
82 0 m 1,0,-1
 735 1650 l 1,1,-1
 1581 1650 l 1,2,-1
 1651 1471 l 1,3,-1
 998 1471 l 1,4,-1
 1213 916 l 1,5,-1
 1840 916 l 1,6,-1
 1908 738 l 1,7,-1
 1286 738 l 1,8,-1
 1505 179 l 1,9,-1
 2147 179 l 1,10,-1
 2215 0 l 1,11,-1
 1358 0 l 1,12,-1
 1175 481 l 1,13,-1
 484 481 l 1,14,-1
 300 0 l 1,15,-1
 82 0 l 1,0,-1
553 660 m 1,16,-1
 1106 660 l 1,17,-1
 829 1378 l 1,18,-1
 553 660 l 1,16,-1
EndSplineSet
Validated: 1
EndChar

StartChar: B
Encoding: 66 66 12
Width: 1305
GlyphClass: 2
Flags: W
AnchorPoint: "Anchor-1" 653 0 basechar 0
AnchorPoint: "Anchor-0" 653 1650 basechar 0
LayerCount: 2
Fore
SplineSet
181 0 m 1,0,-1
 181 1650 l 1,1,-1
 567 1650 l 2,2,3
 807 1650 807 1650 941 1543.5 c 128,-1,4
 1075 1437 1075 1437 1075 1234 c 0,5,6
 1075 966 1075 966 845 864 c 1,7,8
 1026 838 1026 838 1123.5 730.5 c 128,-1,9
 1221 623 1221 623 1221 448 c 0,10,11
 1221 308 1221 308 1158 207.5 c 128,-1,12
 1095 107 1095 107 978 53.5 c 128,-1,13
 861 0 861 0 699 0 c 2,14,-1
 181 0 l 1,0,-1
384 930 m 1,15,-1
 526 930 l 2,16,17
 697 930 697 930 788.5 1002.5 c 128,-1,18
 880 1075 880 1075 880 1211 c 256,19,20
 880 1347 880 1347 789 1418.5 c 128,-1,21
 698 1490 698 1490 526 1490 c 2,22,-1
 384 1490 l 1,23,-1
 384 930 l 1,15,-1
384 162 m 1,24,-1
 638 162 l 2,25,26
 819 162 819 162 915 237.5 c 128,-1,27
 1011 313 1011 313 1011 454 c 0,28,29
 1011 596 1011 596 913.5 674.5 c 128,-1,30
 816 753 816 753 638 753 c 2,31,-1
 384 753 l 1,32,-1
 384 162 l 1,24,-1
EndSplineSet
Validated: 1
EndChar

StartChar: C
Encoding: 67 67 13
Width: 1585
GlyphClass: 2
Flags: W
AnchorPoint: "Anchor-1" 983 -32 basechar 0
AnchorPoint: "Anchor-0" 982 1680 basechar 0
LayerCount: 2
Fore
SplineSet
983 -32 m 0,0,1
 797 -32 797 -32 636.5 33.5 c 128,-1,2
 476 99 476 99 355.5 215.5 c 128,-1,3
 235 332 235 332 168 488 c 128,-1,4
 101 644 101 644 101 824 c 256,5,6
 101 1004 101 1004 168.5 1160 c 128,-1,7
 236 1316 236 1316 356 1432.5 c 128,-1,8
 476 1549 476 1549 636 1614.5 c 128,-1,9
 796 1680 796 1680 982 1680 c 0,10,11
 1136 1680 1136 1680 1272.5 1635.5 c 128,-1,12
 1409 1591 1409 1591 1511 1514 c 1,13,-1
 1419 1343 l 1,14,15
 1337 1409 1337 1409 1227 1444.5 c 128,-1,16
 1117 1480 1117 1480 995 1480 c 0,17,18
 848 1480 848 1480 725 1430 c 128,-1,19
 602 1380 602 1380 511.5 1290.5 c 128,-1,20
 421 1201 421 1201 371.5 1081.5 c 128,-1,21
 322 962 322 962 322 824 c 256,22,23
 322 686 322 686 371.5 566.5 c 128,-1,24
 421 447 421 447 511.5 357.5 c 128,-1,25
 602 268 602 268 725 218 c 128,-1,26
 848 168 848 168 995 168 c 0,27,28
 1117 168 1117 168 1227 203.5 c 128,-1,29
 1337 239 1337 239 1419 305 c 1,30,-1
 1511 134 l 1,31,32
 1411 59 1411 59 1275 13.5 c 128,-1,33
 1139 -32 1139 -32 983 -32 c 0,0,1
EndSplineSet
Validated: 1
EndChar

StartChar: D
Encoding: 68 68 18
Width: 1630
GlyphClass: 2
Flags: W
AnchorPoint: "Anchor-1" 816 0 basechar 0
AnchorPoint: "Anchor-0" 816 1650 basechar 0
LayerCount: 2
Fore
SplineSet
256 0 m 1,0,-1
 256 1650 l 1,1,-1
 652 1650 l 2,2,3
 828 1650 828 1650 979 1587 c 128,-1,4
 1130 1524 1130 1524 1243.5 1411.5 c 128,-1,5
 1357 1299 1357 1299 1420.5 1148.5 c 128,-1,6
 1484 998 1484 998 1484 824 c 256,7,8
 1484 650 1484 650 1421 500 c 128,-1,9
 1358 350 1358 350 1244.5 237.5 c 128,-1,10
 1131 125 1131 125 979.5 62.5 c 128,-1,11
 828 0 828 0 652 0 c 2,12,-1
 256 0 l 1,0,-1
459 182 m 1,13,-1
 632 182 l 2,14,15
 767 182 767 182 883 230.5 c 128,-1,16
 999 279 999 279 1085.5 366.5 c 128,-1,17
 1172 454 1172 454 1220 571 c 128,-1,18
 1268 688 1268 688 1268 825 c 256,19,20
 1268 962 1268 962 1220 1079 c 128,-1,21
 1172 1196 1172 1196 1085.5 1283 c 128,-1,22
 999 1370 999 1370 883 1419 c 128,-1,23
 767 1468 767 1468 632 1468 c 2,24,-1
 459 1468 l 1,25,-1
 459 182 l 1,13,-1
EndSplineSet
Validated: 1
EndChar

StartChar: Eth
Encoding: 208 208 19
Width: 1668
Flags: W
LayerCount: 2
Fore
SplineSet
293 0 m 1,0,-1
 293 742 l 1,1,-1
 129 742 l 1,2,-1
 129 908 l 1,3,-1
 293 908 l 1,4,-1
 293 1650 l 1,5,-1
 689 1650 l 2,6,7
 859 1650 859 1650 1009 1589 c 128,-1,8
 1159 1528 1159 1528 1274.5 1417.5 c 128,-1,9
 1390 1307 1390 1307 1455.5 1156 c 128,-1,10
 1521 1005 1521 1005 1521 825 c 0,11,12
 1521 644 1521 644 1455.5 493 c 128,-1,13
 1390 342 1390 342 1275 231.5 c 128,-1,14
 1160 121 1160 121 1009.5 60.5 c 128,-1,15
 859 0 859 0 689 0 c 2,16,-1
 293 0 l 1,0,-1
496 182 m 1,17,-1
 669 182 l 2,18,19
 802 182 802 182 917.5 230 c 128,-1,20
 1033 278 1033 278 1120 365 c 128,-1,21
 1207 452 1207 452 1256 569 c 128,-1,22
 1305 686 1305 686 1305 825 c 0,23,24
 1305 963 1305 963 1256.5 1080 c 128,-1,25
 1208 1197 1208 1197 1120.5 1284.5 c 128,-1,26
 1033 1372 1033 1372 917.5 1420 c 128,-1,27
 802 1468 802 1468 669 1468 c 2,28,-1
 496 1468 l 1,29,-1
 496 908 l 1,30,-1
 887 908 l 1,31,-1
 887 742 l 1,32,-1
 496 742 l 1,33,-1
 496 182 l 1,17,-1
EndSplineSet
Validated: 1
EndChar

StartChar: Dcroat
Encoding: 272 272 21
Width: 1668
Flags: W
LayerCount: 2
Fore
SplineSet
293 0 m 1,0,-1
 293 742 l 1,1,-1
 129 742 l 1,2,-1
 129 908 l 1,3,-1
 293 908 l 1,4,-1
 293 1650 l 1,5,-1
 689 1650 l 2,6,7
 859 1650 859 1650 1009 1589 c 128,-1,8
 1159 1528 1159 1528 1274.5 1417.5 c 128,-1,9
 1390 1307 1390 1307 1455.5 1156 c 128,-1,10
 1521 1005 1521 1005 1521 825 c 0,11,12
 1521 644 1521 644 1455.5 493 c 128,-1,13
 1390 342 1390 342 1275 231.5 c 128,-1,14
 1160 121 1160 121 1009.5 60.5 c 128,-1,15
 859 0 859 0 689 0 c 2,16,-1
 293 0 l 1,0,-1
496 182 m 1,17,-1
 669 182 l 2,18,19
 802 182 802 182 917.5 230 c 128,-1,20
 1033 278 1033 278 1120 365 c 128,-1,21
 1207 452 1207 452 1256 569 c 128,-1,22
 1305 686 1305 686 1305 825 c 0,23,24
 1305 963 1305 963 1256.5 1080 c 128,-1,25
 1208 1197 1208 1197 1120.5 1284.5 c 128,-1,26
 1033 1372 1033 1372 917.5 1420 c 128,-1,27
 802 1468 802 1468 669 1468 c 2,28,-1
 496 1468 l 1,29,-1
 496 908 l 1,30,-1
 887 908 l 1,31,-1
 887 742 l 1,32,-1
 496 742 l 1,33,-1
 496 182 l 1,17,-1
EndSplineSet
Validated: 1
EndChar

StartChar: E
Encoding: 69 69 22
Width: 1287
GlyphClass: 2
Flags: W
AnchorPoint: "Anchor-2" 1113 0 basechar 0
AnchorPoint: "Anchor-1" 705 0 basechar 0
AnchorPoint: "Anchor-0" 692 1650 basechar 0
LayerCount: 2
Fore
SplineSet
256 0 m 1,0,-1
 256 1650 l 1,1,-1
 1113 1650 l 1,2,-1
 1113 1471 l 1,3,-1
 459 1471 l 1,4,-1
 459 916 l 1,5,-1
 1089 916 l 1,6,-1
 1089 738 l 1,7,-1
 459 738 l 1,8,-1
 459 179 l 1,9,-1
 1113 179 l 1,10,-1
 1113 0 l 1,11,-1
 256 0 l 1,0,-1
EndSplineSet
Validated: 1
EndChar

StartChar: F
Encoding: 70 70 31
Width: 1247
GlyphClass: 2
Flags: W
AnchorPoint: "Anchor-1" 624 0 basechar 0
AnchorPoint: "Anchor-0" 624 1650 basechar 0
LayerCount: 2
Fore
SplineSet
256 0 m 1,0,-1
 256 1650 l 1,1,-1
 1118 1650 l 1,2,-1
 1118 1471 l 1,3,-1
 394 1471 l 1,4,-1
 459 1524 l 1,5,-1
 459 826 l 1,6,-1
 394 916 l 1,7,-1
 1073 916 l 1,8,-1
 1073 738 l 1,9,-1
 394 738 l 1,10,-1
 459 828 l 1,11,-1
 459 0 l 1,12,-1
 256 0 l 1,0,-1
EndSplineSet
Validated: 5
EndChar

StartChar: G
Encoding: 71 71 32
Width: 1858
GlyphClass: 2
Flags: W
AnchorPoint: "Anchor-1" 1009 -2 basechar 0
AnchorPoint: "Anchor-0" 981 1662 basechar 0
LayerCount: 2
Fore
SplineSet
962 -32 m 0,0,1
 791 -32 791 -32 643.5 33.5 c 128,-1,2
 496 99 496 99 385.5 216 c 128,-1,3
 275 333 275 333 213 488.5 c 128,-1,4
 151 644 151 644 151 824 c 0,5,6
 151 992 151 992 207 1146 c 128,-1,7
 263 1300 263 1300 370 1420 c 128,-1,8
 477 1540 477 1540 630.5 1610 c 128,-1,9
 784 1680 784 1680 978 1680 c 0,10,11
 1100 1680 1100 1680 1212.5 1650.5 c 128,-1,12
 1325 1621 1325 1621 1422 1567 c 128,-1,13
 1519 1513 1519 1513 1594 1439 c 1,14,-1
 1493 1283 l 1,15,16
 1401 1382 1401 1382 1264.5 1440.5 c 128,-1,17
 1128 1499 1128 1499 978 1499 c 0,18,19
 833 1499 833 1499 720 1446 c 128,-1,20
 607 1393 607 1393 529 1300 c 128,-1,21
 451 1207 451 1207 410.5 1087 c 128,-1,22
 370 967 370 967 370 832 c 0,23,24
 370 686 370 686 415.5 562.5 c 128,-1,25
 461 439 461 439 543 347 c 128,-1,26
 625 255 625 255 734 204.5 c 128,-1,27
 843 154 843 154 969 154 c 0,28,29
 1071 154 1071 154 1168 188 c 128,-1,30
 1265 222 1265 222 1342.5 285.5 c 128,-1,31
 1420 349 1420 349 1465.5 437 c 128,-1,32
 1511 525 1511 525 1511 633 c 2,33,-1
 1511 681 l 1,34,-1
 955 681 l 1,35,-1
 955 842 l 1,36,-1
 1719 842 l 1,37,-1
 1719 664 l 2,38,39
 1719 496 1719 496 1654 366.5 c 128,-1,40
 1589 237 1589 237 1479.5 148.5 c 128,-1,41
 1370 60 1370 60 1235.5 14 c 128,-1,42
 1101 -32 1101 -32 962 -32 c 0,0,1
EndSplineSet
Validated: 1
EndChar

StartChar: H
Encoding: 72 72 36
Width: 1734
GlyphClass: 2
Flags: W
AnchorPoint: "Anchor-1" 867 0 basechar 0
AnchorPoint: "Anchor-0" 867 1650 basechar 0
LayerCount: 2
Fore
SplineSet
256 0 m 1,0,-1
 256 1650 l 1,1,-1
 459 1650 l 1,2,-1
 459 916 l 1,3,-1
 1275 916 l 1,4,-1
 1275 1650 l 1,5,-1
 1478 1650 l 1,6,-1
 1478 0 l 1,7,-1
 1275 0 l 1,8,-1
 1275 738 l 1,9,-1
 459 738 l 1,10,-1
 459 0 l 1,11,-1
 256 0 l 1,0,-1
EndSplineSet
Validated: 1
EndChar

StartChar: Hbar
Encoding: 294 294 37
Width: 1734
Flags: W
LayerCount: 2
Fore
SplineSet
256 0 m 1,0,-1
 256 1650 l 1,1,-1
 459 1650 l 1,2,-1
 459 842 l 1,3,-1
 1275 842 l 1,4,-1
 1275 1650 l 1,5,-1
 1478 1650 l 1,6,-1
 1478 0 l 1,7,-1
 1275 0 l 1,8,-1
 1275 698 l 1,9,-1
 459 698 l 1,10,-1
 459 0 l 1,11,-1
 256 0 l 1,0,-1
123 1068 m 1,12,-1
 123 1211 l 1,13,-1
 1621 1211 l 1,14,-1
 1621 1068 l 1,15,-1
 123 1068 l 1,12,-1
EndSplineSet
Validated: 5
EndChar

StartChar: I
Encoding: 73 73 38
Width: 715
GlyphClass: 2
Flags: W
AnchorPoint: "Anchor-2" 459 0 basechar 0
AnchorPoint: "Anchor-1" 357 0 basechar 0
AnchorPoint: "Anchor-0" 357 1650 basechar 0
LayerCount: 2
Fore
SplineSet
256 0 m 1,0,-1
 256 1650 l 1,1,-1
 459 1650 l 1,2,-1
 459 0 l 1,3,-1
 256 0 l 1,0,-1
EndSplineSet
Validated: 1
EndChar

StartChar: J
Encoding: 74 74 46
Width: 1224
GlyphClass: 2
Flags: W
AnchorPoint: "Anchor-1" 497 -12 basechar 0
AnchorPoint: "Anchor-0" 649 1650 basechar 0
LayerCount: 2
Fore
SplineSet
493 -32 m 0,0,1
 270 -32 270 -32 109 122 c 1,2,-1
 184 291 l 1,3,4
 313 162 313 162 468 162 c 0,5,6
 617 162 617 162 700 256.5 c 128,-1,7
 783 351 783 351 783 521 c 2,8,-1
 783 1650 l 1,9,-1
 986 1650 l 1,10,-1
 986 464 l 2,11,12
 986 229 986 229 855.5 98.5 c 128,-1,13
 725 -32 725 -32 493 -32 c 0,0,1
EndSplineSet
Validated: 1
EndChar

StartChar: K
Encoding: 75 75 47
Width: 1548
GlyphClass: 2
Flags: W
AnchorPoint: "Anchor-1" 782 0 basechar 0
AnchorPoint: "Anchor-0" 782 1650 basechar 0
LayerCount: 2
Fore
SplineSet
256 0 m 1,0,-1
 256 1650 l 1,1,-1
 459 1650 l 1,2,-1
 459 914 l 1,3,-1
 1159 1650 l 1,4,-1
 1412 1650 l 1,5,-1
 640 840 l 1,6,-1
 1500 0 l 1,7,-1
 1217 0 l 1,8,-1
 459 734 l 1,9,-1
 459 0 l 1,10,-1
 256 0 l 1,0,-1
EndSplineSet
Validated: 1
EndChar

StartChar: L
Encoding: 76 76 49
Width: 1211
GlyphClass: 2
Flags: W
AnchorPoint: "Anchor-1" 661 0 basechar 0
AnchorPoint: "Anchor-0" 672 1650 basechar 0
LayerCount: 2
Fore
SplineSet
256 0 m 1,0,-1
 256 1650 l 1,1,-1
 459 1650 l 1,2,-1
 459 179 l 1,3,-1
 1122 179 l 1,4,-1
 1122 0 l 1,5,-1
 256 0 l 1,0,-1
EndSplineSet
Validated: 1
EndChar

StartChar: Lslash
Encoding: 321 321 53
Width: 1248
Flags: W
LayerCount: 2
Fore
SplineSet
293 0 m 1,0,-1
 293 685 l 1,1,-1
 133 559 l 1,2,-1
 133 725 l 1,3,-1
 293 851 l 1,4,-1
 293 1650 l 1,5,-1
 497 1650 l 1,6,-1
 497 1011 l 1,7,-1
 710 1178 l 1,8,-1
 710 1013 l 1,9,-1
 497 845 l 1,10,-1
 497 179 l 1,11,-1
 1158 179 l 1,12,-1
 1158 0 l 1,13,-1
 293 0 l 1,0,-1
EndSplineSet
Validated: 1
EndChar

StartChar: M
Encoding: 77 77 54
Width: 2080
GlyphClass: 2
Flags: W
AnchorPoint: "Anchor-1" 1108 83 basechar 0
AnchorPoint: "Anchor-0" 1040 1650 basechar 0
LayerCount: 2
Fore
SplineSet
167 0 m 1,0,-1
 366 1650 l 1,1,-1
 582 1650 l 1,2,-1
 1040 436 l 1,3,-1
 1498 1650 l 1,4,-1
 1714 1650 l 1,5,-1
 1913 0 l 1,6,-1
 1710 0 l 1,7,-1
 1551 1278 l 1,8,-1
 1108 83 l 1,9,-1
 972 83 l 1,10,-1
 529 1278 l 1,11,-1
 370 0 l 1,12,-1
 167 0 l 1,0,-1
EndSplineSet
Validated: 1
EndChar

StartChar: N
Encoding: 78 78 55
Width: 1752
GlyphClass: 2
Flags: W
AnchorPoint: "Anchor-1" 876 0 basechar 0
AnchorPoint: "Anchor-0" 876 1650 basechar 0
LayerCount: 2
Fore
SplineSet
256 0 m 1,0,-1
 256 1650 l 1,1,-1
 459 1650 l 1,2,-1
 1293 343 l 1,3,-1
 1293 1650 l 1,4,-1
 1496 1650 l 1,5,-1
 1496 0 l 1,6,-1
 1293 0 l 1,7,-1
 459 1306 l 1,8,-1
 459 0 l 1,9,-1
 256 0 l 1,0,-1
EndSplineSet
Validated: 1
EndChar

StartChar: Eng
Encoding: 330 330 59
Width: 1734
Flags: W
LayerCount: 2
Fore
SplineSet
1004 -551 m 0,0,1
 886 -551 886 -551 793 -513.5 c 128,-1,2
 700 -476 700 -476 619 -397 c 1,3,-1
 694 -228 l 1,4,5
 762 -296 762 -296 833 -326.5 c 128,-1,6
 904 -357 904 -357 978 -357 c 0,7,8
 1130 -357 1130 -357 1211.5 -267 c 128,-1,9
 1293 -177 1293 -177 1293 -20 c 2,10,-1
 1293 0 l 1,11,-1
 459 1306 l 1,12,-1
 459 0 l 1,13,-1
 256 0 l 1,14,-1
 256 1650 l 1,15,-1
 459 1650 l 1,16,-1
 1293 343 l 1,17,-1
 1293 1650 l 1,18,-1
 1496 1650 l 1,19,-1
 1496 -55 l 2,20,21
 1496 -290 1496 -290 1365.5 -420.5 c 128,-1,22
 1235 -551 1235 -551 1004 -551 c 0,0,1
EndSplineSet
Validated: 1
EndChar

StartChar: O
Encoding: 79 79 61
Width: 1962
GlyphClass: 2
Flags: W
AnchorPoint: "Anchor-2" 1044 4 basechar 0
AnchorPoint: "Anchor-1" 992 0 basechar 0
AnchorPoint: "Anchor-0" 981 1662 basechar 0
LayerCount: 2
Fore
SplineSet
981 -32 m 256,0,1
 808 -32 808 -32 657 34 c 128,-1,2
 506 100 506 100 392 217.5 c 128,-1,3
 278 335 278 335 213.5 490.5 c 128,-1,4
 149 646 149 646 149 824 c 0,5,6
 149 1003 149 1003 213.5 1158 c 128,-1,7
 278 1313 278 1313 392 1430.5 c 128,-1,8
 506 1548 506 1548 657 1614 c 128,-1,9
 808 1680 808 1680 981 1680 c 256,10,11
 1154 1680 1154 1680 1305 1614 c 128,-1,12
 1456 1548 1456 1548 1570 1430.5 c 128,-1,13
 1684 1313 1684 1313 1748.5 1158 c 128,-1,14
 1813 1003 1813 1003 1813 824 c 0,15,16
 1813 646 1813 646 1748.5 490.5 c 128,-1,17
 1684 335 1684 335 1570 217.5 c 128,-1,18
 1456 100 1456 100 1305 34 c 128,-1,19
 1154 -32 1154 -32 981 -32 c 256,0,1
981 164 m 256,20,21
 1111 164 1111 164 1222.5 214 c 128,-1,22
 1334 264 1334 264 1417.5 353.5 c 128,-1,23
 1501 443 1501 443 1547.5 563.5 c 128,-1,24
 1594 684 1594 684 1594 824 c 256,25,26
 1594 964 1594 964 1547.5 1084.5 c 128,-1,27
 1501 1205 1501 1205 1417.5 1294.5 c 128,-1,28
 1334 1384 1334 1384 1222.5 1434 c 128,-1,29
 1111 1484 1111 1484 981 1484 c 256,30,31
 851 1484 851 1484 739.5 1434 c 128,-1,32
 628 1384 628 1384 544.5 1294.5 c 128,-1,33
 461 1205 461 1205 414.5 1084.5 c 128,-1,34
 368 964 368 964 368 824 c 256,35,36
 368 684 368 684 414.5 563.5 c 128,-1,37
 461 443 461 443 544.5 353.5 c 128,-1,38
 628 264 628 264 739.5 214 c 128,-1,39
 851 164 851 164 981 164 c 256,20,21
EndSplineSet
Validated: 1
Substitution2: "Single Substitution lookup 16 subtable" ordmasculine
Substitution2: "'aalt' Access All Alternates in Latin lookup 0 subtable" ordmasculine
EndChar

StartChar: Oslash
Encoding: 216 216 68
Width: 1962
GlyphClass: 2
Flags: W
AnchorPoint: "Anchor-2" 1051 4 basechar 0
AnchorPoint: "Anchor-1" 1000 0 basechar 0
AnchorPoint: "Anchor-0" 989 1662 basechar 0
LayerCount: 2
Fore
SplineSet
989 -32 m 256,0,1
 816 -32 816 -32 665 34 c 128,-1,2
 514 100 514 100 400 217.5 c 128,-1,3
 286 335 286 335 221.5 490.5 c 128,-1,4
 157 646 157 646 157 824 c 0,5,6
 157 1003 157 1003 221.5 1158 c 128,-1,7
 286 1313 286 1313 400 1430.5 c 128,-1,8
 514 1548 514 1548 665 1614 c 128,-1,9
 816 1680 816 1680 989 1680 c 256,10,11
 1162 1680 1162 1680 1313 1614 c 128,-1,12
 1464 1548 1464 1548 1578 1430.5 c 128,-1,13
 1692 1313 1692 1313 1756.5 1158 c 128,-1,14
 1821 1003 1821 1003 1821 824 c 0,15,16
 1821 646 1821 646 1756.5 490.5 c 128,-1,17
 1692 335 1692 335 1578 217.5 c 128,-1,18
 1464 100 1464 100 1313 34 c 128,-1,19
 1162 -32 1162 -32 989 -32 c 256,0,1
989 164 m 256,20,21
 1119 164 1119 164 1230.5 214 c 128,-1,22
 1342 264 1342 264 1425.5 353.5 c 128,-1,23
 1509 443 1509 443 1555.5 563.5 c 128,-1,24
 1602 684 1602 684 1602 824 c 256,25,26
 1602 964 1602 964 1555.5 1084.5 c 128,-1,27
 1509 1205 1509 1205 1425.5 1294.5 c 128,-1,28
 1342 1384 1342 1384 1230.5 1434 c 128,-1,29
 1119 1484 1119 1484 989 1484 c 256,30,31
 859 1484 859 1484 747 1434 c 128,-1,32
 635 1384 635 1384 551.5 1294.5 c 128,-1,33
 468 1205 468 1205 421.5 1084.5 c 128,-1,34
 375 964 375 964 375 824 c 256,35,36
 375 684 375 684 421.5 563.5 c 128,-1,37
 468 443 468 443 551.5 353.5 c 128,-1,38
 635 264 635 264 747 214 c 128,-1,39
 859 164 859 164 989 164 c 256,20,21
432 -8 m 1,40,-1
 305 85 l 1,41,-1
 1554 1672 l 1,42,-1
 1682 1575 l 1,43,-1
 432 -8 l 1,40,-1
EndSplineSet
Validated: 5
EndChar

StartChar: OE
Encoding: 338 338 70
Width: 2055
GlyphClass: 2
Flags: W
AnchorPoint: "Anchor-1" 1028 0 basechar 0
AnchorPoint: "Anchor-0" 1028 1650 basechar 0
LayerCount: 2
Fore
SplineSet
976 0 m 2,0,1
 800 0 800 0 649.5 62 c 128,-1,2
 499 124 499 124 386.5 236.5 c 128,-1,3
 274 349 274 349 211 500.5 c 128,-1,4
 148 652 148 652 148 830 c 0,5,6
 148 1007 148 1007 211.5 1156.5 c 128,-1,7
 275 1306 275 1306 394 1417 c 128,-1,8
 513 1528 513 1528 680.5 1589 c 128,-1,9
 848 1650 848 1650 1056 1650 c 2,10,-1
 1881 1650 l 1,11,-1
 1881 1471 l 1,12,-1
 1227 1471 l 1,13,-1
 1227 916 l 1,14,-1
 1857 916 l 1,15,-1
 1857 738 l 1,16,-1
 1227 738 l 1,17,-1
 1227 179 l 1,18,-1
 1881 179 l 1,19,-1
 1881 0 l 1,20,-1
 976 0 l 2,0,1
1023 182 m 1,21,-1
 1023 1468 l 1,22,23
 881 1468 881 1468 761 1421 c 128,-1,24
 641 1374 641 1374 552.5 1288 c 128,-1,25
 464 1202 464 1202 415 1084.5 c 128,-1,26
 366 967 366 967 366 825 c 0,27,28
 366 686 366 686 413.5 568.5 c 128,-1,29
 461 451 461 451 548.5 364.5 c 128,-1,30
 636 278 636 278 756.5 230 c 128,-1,31
 877 182 877 182 1023 182 c 1,21,-1
EndSplineSet
Validated: 1
EndChar

StartChar: P
Encoding: 80 80 71
Width: 1383
GlyphClass: 2
Flags: W
AnchorPoint: "Anchor-1" 692 0 basechar 0
AnchorPoint: "Anchor-0" 692 1650 basechar 0
LayerCount: 2
Fore
SplineSet
256 0 m 1,0,-1
 256 1650 l 1,1,-1
 724 1650 l 2,2,3
 886 1650 886 1650 1006 1594 c 128,-1,4
 1126 1538 1126 1538 1192.5 1432 c 128,-1,5
 1259 1326 1259 1326 1259 1174 c 0,6,7
 1259 1024 1259 1024 1192.5 912.5 c 128,-1,8
 1126 801 1126 801 1006 740 c 128,-1,9
 886 679 886 679 724 679 c 2,10,-1
 459 679 l 1,11,-1
 459 0 l 1,12,-1
 256 0 l 1,0,-1
459 846 m 1,13,-1
 669 846 l 2,14,15
 781 846 781 846 866.5 884 c 128,-1,16
 952 922 952 922 1000.5 994 c 128,-1,17
 1049 1066 1049 1066 1049 1169 c 0,18,19
 1049 1273 1049 1273 1000.5 1343.5 c 128,-1,20
 952 1414 952 1414 866.5 1450 c 128,-1,21
 781 1486 781 1486 669 1486 c 2,22,-1
 459 1486 l 1,23,-1
 459 846 l 1,13,-1
EndSplineSet
Validated: 1
Substitution2: "'tnum' Tabular Numbers lookup 19-1" P.tnum
EndChar

StartChar: Thorn
Encoding: 222 222 72
Width: 1383
GlyphClass: 2
Flags: W
AnchorPoint: "Anchor-1" 692 0 basechar 0
AnchorPoint: "Anchor-0" 692 1650 basechar 0
LayerCount: 2
Fore
SplineSet
256 0 m 1,0,-1
 256 1650 l 1,1,-1
 459 1650 l 1,2,-1
 459 1305 l 1,3,-1
 724 1305 l 2,4,5
 976 1305 976 1305 1117.5 1176 c 128,-1,6
 1259 1047 1259 1047 1259 829 c 0,7,8
 1259 684 1259 684 1194.5 572 c 128,-1,9
 1130 460 1130 460 1010.5 397 c 128,-1,10
 891 334 891 334 724 334 c 2,11,-1
 459 334 l 1,12,-1
 459 0 l 1,13,-1
 256 0 l 1,0,-1
459 501 m 1,14,-1
 669 501 l 2,15,16
 788 501 788 501 871.5 542.5 c 128,-1,17
 955 584 955 584 999.5 657 c 128,-1,18
 1044 730 1044 730 1044 826 c 0,19,20
 1044 970 1044 970 946.5 1055.5 c 128,-1,21
 849 1141 849 1141 669 1141 c 2,22,-1
 459 1141 l 1,23,-1
 459 501 l 1,14,-1
EndSplineSet
Validated: 1
EndChar

StartChar: Q
Encoding: 81 81 73
Width: 1962
GlyphClass: 2
Flags: W
AnchorPoint: "Anchor-1" 981 0 basechar 0
AnchorPoint: "Anchor-0" 981 1650 basechar 0
LayerCount: 2
Fore
SplineSet
1756 -54 m 1,0,1
 1676 -22 1676 -22 1594 20.5 c 128,-1,2
 1512 63 1512 63 1429 116 c 1,3,4
 1220 -32 1220 -32 954 -32 c 0,5,6
 778 -32 778 -32 627 33 c 128,-1,7
 476 98 476 98 363 214 c 128,-1,8
 250 330 250 330 187 485 c 128,-1,9
 124 640 124 640 124 820 c 256,10,11
 124 1000 124 1000 188 1156 c 128,-1,12
 252 1312 252 1312 366 1429.5 c 128,-1,13
 480 1547 480 1547 631 1613.5 c 128,-1,14
 782 1680 782 1680 956 1680 c 256,15,16
 1130 1680 1130 1680 1281 1614 c 128,-1,17
 1432 1548 1432 1548 1546 1430.5 c 128,-1,18
 1660 1313 1660 1313 1724 1157.5 c 128,-1,19
 1788 1002 1788 1002 1788 823 c 0,20,21
 1788 660 1788 660 1730 512.5 c 128,-1,22
 1672 365 1672 365 1565 254 c 1,23,24
 1639 214 1639 214 1709 182 c 128,-1,25
 1779 150 1779 150 1846 128 c 1,26,-1
 1756 -54 l 1,0,1
953 164 m 0,27,28
 1036 164 1036 164 1112 186.5 c 128,-1,29
 1188 209 1188 209 1252 252 c 1,30,31
 1176 311 1176 311 1106 377 c 128,-1,32
 1036 443 1036 443 975 513 c 1,33,-1
 1064 620 l 1,34,35
 1207 473 1207 473 1379 357 c 1,36,37
 1470 445 1470 445 1519 566 c 128,-1,38
 1568 687 1568 687 1568 823 c 0,39,40
 1568 964 1568 964 1522 1084.5 c 128,-1,41
 1476 1205 1476 1205 1393 1294.5 c 128,-1,42
 1310 1384 1310 1384 1198.5 1434 c 128,-1,43
 1087 1484 1087 1484 956 1484 c 256,44,45
 825 1484 825 1484 713 1434 c 128,-1,46
 601 1384 601 1384 518 1294 c 128,-1,47
 435 1204 435 1204 388.5 1083 c 128,-1,48
 342 962 342 962 342 820 c 256,49,50
 342 678 342 678 387.5 558 c 128,-1,51
 433 438 433 438 515.5 349.5 c 128,-1,52
 598 261 598 261 709.5 212.5 c 128,-1,53
 821 164 821 164 953 164 c 0,27,28
EndSplineSet
Validated: 1
EndChar

StartChar: R
Encoding: 82 82 74
Width: 1431
GlyphClass: 2
Flags: W
AnchorPoint: "Anchor-1" 716 0 basechar 0
AnchorPoint: "Anchor-0" 716 1650 basechar 0
LayerCount: 2
Fore
SplineSet
256 0 m 1,0,-1
 256 1650 l 1,1,-1
 724 1650 l 2,2,3
 888 1650 888 1650 1008 1593 c 128,-1,4
 1128 1536 1128 1536 1193.5 1429.5 c 128,-1,5
 1259 1323 1259 1323 1259 1174 c 0,6,7
 1259 1044 1259 1044 1208 943 c 128,-1,8
 1157 842 1157 842 1062.5 778 c 128,-1,9
 968 714 968 714 837 694 c 1,10,-1
 1383 0 l 1,11,-1
 1125 0 l 1,12,-1
 614 673 l 1,13,-1
 459 673 l 1,14,-1
 459 0 l 1,15,-1
 256 0 l 1,0,-1
459 846 m 1,16,-1
 669 846 l 2,17,18
 787 846 787 846 872 885 c 128,-1,19
 957 924 957 924 1003 996.5 c 128,-1,20
 1049 1069 1049 1069 1049 1169 c 0,21,22
 1049 1318 1049 1318 948.5 1402 c 128,-1,23
 848 1486 848 1486 669 1486 c 2,24,-1
 459 1486 l 1,25,-1
 459 846 l 1,16,-1
EndSplineSet
Validated: 1
EndChar

StartChar: S
Encoding: 83 83 78
Width: 1366
GlyphClass: 2
Flags: W
AnchorPoint: "Anchor-1" 698 0 basechar 0
AnchorPoint: "Anchor-0" 707 1668 basechar 0
LayerCount: 2
Fore
SplineSet
673 -32 m 0,0,1
 549 -32 549 -32 452 2.5 c 128,-1,2
 355 37 355 37 285 87 c 128,-1,3
 215 137 215 137 170 185.5 c 128,-1,4
 125 234 125 234 104 262 c 1,5,-1
 215 420 l 1,6,7
 238 392 238 392 277 348 c 128,-1,8
 316 304 316 304 373 260 c 128,-1,9
 430 216 430 216 506 186 c 128,-1,10
 582 156 582 156 678 156 c 0,11,12
 769 156 769 156 843 188 c 128,-1,13
 917 220 917 220 961.5 283 c 128,-1,14
 1006 346 1006 346 1006 439 c 0,15,16
 1006 518 1006 518 974 573.5 c 128,-1,17
 942 629 942 629 885 669 c 128,-1,18
 828 709 828 709 752 742.5 c 128,-1,19
 676 776 676 776 588 810 c 0,20,21
 526 835 526 835 462 868.5 c 128,-1,22
 398 902 398 902 344 950.5 c 128,-1,23
 290 999 290 999 257 1066 c 128,-1,24
 224 1133 224 1133 224 1224 c 0,25,26
 224 1316 224 1316 259 1398 c 128,-1,27
 294 1480 294 1480 358 1543.5 c 128,-1,28
 422 1607 422 1607 510.5 1643.5 c 128,-1,29
 599 1680 599 1680 707 1680 c 0,30,31
 803 1680 803 1680 888.5 1650 c 128,-1,32
 974 1620 974 1620 1041 1573.5 c 128,-1,33
 1108 1527 1108 1527 1148 1476 c 1,34,-1
 1053 1327 l 1,35,36
 1020 1370 1020 1370 969 1408.5 c 128,-1,37
 918 1447 918 1447 852 1471 c 128,-1,38
 786 1495 786 1495 710 1495 c 0,39,40
 617 1495 617 1495 552.5 1456.5 c 128,-1,41
 488 1418 488 1418 454 1357 c 128,-1,42
 420 1296 420 1296 420 1227 c 0,43,44
 420 1165 420 1165 445.5 1122 c 128,-1,45
 471 1079 471 1079 514 1049 c 128,-1,46
 557 1019 557 1019 611 996 c 128,-1,47
 665 973 665 973 722 952 c 0,48,49
 824 912 824 912 915 869.5 c 128,-1,50
 1006 827 1006 827 1075 770.5 c 128,-1,51
 1144 714 1144 714 1183.5 635 c 128,-1,52
 1223 556 1223 556 1223 444 c 0,53,54
 1223 293 1223 293 1151.5 186.5 c 128,-1,55
 1080 80 1080 80 956 24 c 128,-1,56
 832 -32 832 -32 673 -32 c 0,0,1
EndSplineSet
Validated: 1
EndChar

StartChar: uni1E9E
Encoding: 7838 7838 83
Width: 1590
Flags: W
LayerCount: 2
Fore
SplineSet
984 -29 m 0,0,1
 891 -29 891 -29 796 2 c 128,-1,2
 701 33 701 33 599 94 c 1,3,-1
 649 287 l 1,4,5
 740 229 740 229 816.5 198 c 128,-1,6
 893 167 893 167 975 167 c 0,7,8
 1053 167 1053 167 1114.5 197.5 c 128,-1,9
 1176 228 1176 228 1211.5 284 c 128,-1,10
 1247 340 1247 340 1247 417 c 0,11,12
 1247 486 1247 486 1218 531 c 128,-1,13
 1189 576 1189 576 1143 606 c 128,-1,14
 1097 636 1097 636 1045.5 659.5 c 128,-1,15
 994 683 994 683 948 708.5 c 128,-1,16
 902 734 902 734 873 769.5 c 128,-1,17
 844 805 844 805 844 860 c 0,18,19
 844 905 844 905 863.5 935.5 c 128,-1,20
 883 966 883 966 911.5 992 c 128,-1,21
 940 1018 940 1018 968 1048 c 128,-1,22
 996 1078 996 1078 1015.5 1120.5 c 128,-1,23
 1035 1163 1035 1163 1035 1229 c 0,24,25
 1035 1350 1035 1350 963 1415.5 c 128,-1,26
 891 1481 891 1481 775 1481 c 0,27,28
 622 1481 622 1481 541 1367 c 128,-1,29
 460 1253 460 1253 460 1046 c 2,30,-1
 460 0 l 1,31,-1
 256 0 l 1,32,-1
 256 1032 l 2,33,34
 256 1234 256 1234 317 1379.5 c 128,-1,35
 378 1525 378 1525 496.5 1603 c 128,-1,36
 615 1681 615 1681 788 1681 c 0,37,38
 925 1681 925 1681 1030 1632.5 c 128,-1,39
 1135 1584 1135 1584 1194 1492.5 c 128,-1,40
 1253 1401 1253 1401 1253 1272 c 0,41,42
 1253 1195 1253 1195 1233.5 1143 c 128,-1,43
 1214 1091 1214 1091 1185.5 1055 c 128,-1,44
 1157 1019 1157 1019 1128.5 992.5 c 128,-1,45
 1100 966 1100 966 1080.5 941.5 c 128,-1,46
 1061 917 1061 917 1061 887 c 0,47,48
 1061 851 1061 851 1089 826.5 c 128,-1,49
 1117 802 1117 802 1161 780 c 128,-1,50
 1205 758 1205 758 1254 731.5 c 128,-1,51
 1303 705 1303 705 1347 665.5 c 128,-1,52
 1391 626 1391 626 1419 566 c 128,-1,53
 1447 506 1447 506 1447 416 c 0,54,55
 1447 289 1447 289 1387 188 c 128,-1,56
 1327 87 1327 87 1222.5 29 c 128,-1,57
 1118 -29 1118 -29 984 -29 c 0,0,1
EndSplineSet
Validated: 1
EndChar

StartChar: T
Encoding: 84 84 84
Width: 1339
GlyphClass: 2
Flags: W
AnchorPoint: "Anchor-1" 694 0 basechar 0
AnchorPoint: "Anchor-0" 670 1650 basechar 0
LayerCount: 2
Fore
SplineSet
568 0 m 1,0,-1
 568 1468 l 1,1,-1
 90 1468 l 1,2,-1
 90 1650 l 1,3,-1
 1250 1650 l 1,4,-1
 1250 1468 l 1,5,-1
 771 1468 l 1,6,-1
 771 0 l 1,7,-1
 568 0 l 1,0,-1
EndSplineSet
Validated: 1
EndChar

StartChar: Tbar
Encoding: 358 358 85
Width: 1339
Flags: W
LayerCount: 2
Fore
SplineSet
568 0 m 1,0,-1
 568 1468 l 1,1,-1
 90 1468 l 1,2,-1
 90 1650 l 1,3,-1
 1250 1650 l 1,4,-1
 1250 1468 l 1,5,-1
 771 1468 l 1,6,-1
 771 0 l 1,7,-1
 568 0 l 1,0,-1
296 914 m 1,8,-1
 296 1057 l 1,9,-1
 1044 1057 l 1,10,-1
 1044 914 l 1,11,-1
 296 914 l 1,8,-1
EndSplineSet
Validated: 5
EndChar

StartChar: U
Encoding: 85 85 89
Width: 1638
GlyphClass: 2
Flags: W
AnchorPoint: "Anchor-2" 891 4 basechar 0
AnchorPoint: "Anchor-1" 819 -12 basechar 0
AnchorPoint: "Anchor-0" 820 1650 basechar 0
LayerCount: 2
Fore
SplineSet
819 -32 m 0,0,1
 527 -32 527 -32 379 124 c 128,-1,2
 231 280 231 280 231 589 c 2,3,-1
 231 1650 l 1,4,-1
 434 1650 l 1,5,-1
 434 640 l 2,6,7
 434 399 434 399 528.5 283.5 c 128,-1,8
 623 168 623 168 819 168 c 256,9,10
 1015 168 1015 168 1109.5 283.5 c 128,-1,11
 1204 399 1204 399 1204 640 c 2,12,-1
 1204 1650 l 1,13,-1
 1408 1650 l 1,14,-1
 1408 589 l 2,15,16
 1408 280 1408 280 1260 124 c 128,-1,17
 1112 -32 1112 -32 819 -32 c 0,0,1
EndSplineSet
Validated: 1
EndChar

StartChar: V
Encoding: 86 86 98
Width: 1704
GlyphClass: 2
Flags: W
AnchorPoint: "Anchor-1" 852 0 basechar 0
AnchorPoint: "Anchor-0" 852 1650 basechar 0
LayerCount: 2
Fore
SplineSet
772 0 m 1,0,-1
 80 1650 l 1,1,-1
 310 1650 l 1,2,-1
 852 306 l 1,3,-1
 1394 1650 l 1,4,-1
 1623 1650 l 1,5,-1
 931 0 l 1,6,-1
 772 0 l 1,0,-1
EndSplineSet
Validated: 1
EndChar

StartChar: W
Encoding: 87 87 99
Width: 2455
GlyphClass: 2
Flags: W
AnchorPoint: "Anchor-1" 1228 0 basechar 0
AnchorPoint: "Anchor-0" 1228 1650 basechar 0
LayerCount: 2
Fore
SplineSet
583 0 m 1,0,-1
 97 1650 l 1,1,-1
 323 1650 l 1,2,-1
 706 271 l 1,3,-1
 1150 1650 l 1,4,-1
 1305 1650 l 1,5,-1
 1750 271 l 1,6,-1
 2132 1650 l 1,7,-1
 2358 1650 l 1,8,-1
 1872 0 l 1,9,-1
 1645 0 l 1,10,-1
 1228 1254 l 1,11,-1
 811 0 l 1,12,-1
 583 0 l 1,0,-1
EndSplineSet
Validated: 1
EndChar

StartChar: X
Encoding: 88 88 104
Width: 1657
GlyphClass: 2
Flags: W
AnchorPoint: "Anchor-1" 828 0 basechar 0
AnchorPoint: "Anchor-0" 828 1650 basechar 0
LayerCount: 2
Fore
SplineSet
73 0 m 1,0,-1
 703 890 l 1,1,-1
 172 1650 l 1,2,-1
 416 1650 l 1,3,-1
 828 1061 l 1,4,-1
 1240 1650 l 1,5,-1
 1484 1650 l 1,6,-1
 954 890 l 1,7,-1
 1583 0 l 1,8,-1
 1330 0 l 1,9,-1
 828 713 l 1,10,-1
 326 0 l 1,11,-1
 73 0 l 1,0,-1
EndSplineSet
Validated: 1
EndChar

StartChar: Y
Encoding: 89 89 105
Width: 1491
GlyphClass: 2
Flags: W
AnchorPoint: "Anchor-1" 745 0 basechar 0
AnchorPoint: "Anchor-0" 745 1650 basechar 0
LayerCount: 2
Fore
SplineSet
644 0 m 1,0,-1
 644 721 l 1,1,-1
 67 1650 l 1,2,-1
 312 1650 l 1,3,-1
 745 933 l 1,4,-1
 1179 1650 l 1,5,-1
 1424 1650 l 1,6,-1
 847 721 l 1,7,-1
 847 0 l 1,8,-1
 644 0 l 1,0,-1
EndSplineSet
Validated: 1
EndChar

StartChar: Z
Encoding: 90 90 110
Width: 1573
GlyphClass: 2
Flags: W
AnchorPoint: "Anchor-1" 787 0 basechar 0
AnchorPoint: "Anchor-0" 787 1650 basechar 0
LayerCount: 2
Fore
SplineSet
90 0 m 1,0,-1
 1108 1468 l 1,1,-1
 204 1468 l 1,2,-1
 204 1650 l 1,3,-1
 1471 1650 l 1,4,-1
 453 182 l 1,5,-1
 1417 182 l 1,6,-1
 1417 0 l 1,7,-1
 90 0 l 1,0,-1
EndSplineSet
Validated: 1
EndChar

StartChar: a
Encoding: 97 97 114
Width: 1242
VWidth: 2400
GlyphClass: 2
Flags: W
LayerCount: 2
Fore
SplineSet
526 -32 m 0,0,1
 438 -32 438 -32 365 -8 c 128,-1,2
 292 16 292 16 239.5 58.5 c 128,-1,3
 187 101 187 101 158 160.5 c 128,-1,4
 129 220 129 220 129 291 c 256,5,6
 129 362 129 362 158 422.5 c 128,-1,7
 187 483 187 483 238.5 526.5 c 128,-1,8
 290 570 290 570 362.5 594.5 c 128,-1,9
 435 619 435 619 522 619 c 0,10,11
 619 619 619 619 706.5 587.5 c 128,-1,12
 794 556 794 556 851 500 c 1,13,-1
 851 611 l 2,14,15
 851 677 851 677 830 730 c 128,-1,16
 809 783 809 783 770.5 820.5 c 128,-1,17
 732 858 732 858 677.5 878.5 c 128,-1,18
 623 899 623 899 555 899 c 0,19,20
 485 899 485 899 416 877 c 128,-1,21
 347 855 347 855 290 811 c 1,22,-1
 194 921 l 1,23,24
 266 985 266 985 360 1020.5 c 128,-1,25
 454 1056 454 1056 571 1056 c 0,26,27
 679 1056 679 1056 766.5 1025 c 128,-1,28
 854 994 854 994 916 936.5 c 128,-1,29
 978 879 978 879 1011.5 798 c 128,-1,30
 1045 717 1045 717 1045 616 c 2,31,-1
 1045 0 l 1,32,-1
 851 0 l 1,33,-1
 851 86 l 1,34,35
 790 29 790 29 706.5 -1.5 c 128,-1,36
 623 -32 623 -32 526 -32 c 0,0,1
590 95 m 256,37,38
 648 95 648 95 697.5 110.5 c 128,-1,39
 747 126 747 126 783 153.5 c 128,-1,40
 819 181 819 181 839.5 218.5 c 128,-1,41
 860 256 860 256 860 300 c 256,42,43
 860 344 860 344 839.5 381.5 c 128,-1,44
 819 419 819 419 783 446 c 128,-1,45
 747 473 747 473 697 488.5 c 128,-1,46
 647 504 647 504 588 504 c 0,47,48
 530 504 530 504 480.5 489 c 128,-1,49
 431 474 431 474 395.5 447 c 128,-1,50
 360 420 360 420 340 383 c 128,-1,51
 320 346 320 346 320 302 c 0,52,53
 320 257 320 257 340.5 219.5 c 128,-1,54
 361 182 361 182 397 154 c 128,-1,55
 433 126 433 126 482.5 110.5 c 128,-1,56
 532 95 532 95 590 95 c 256,37,38
EndSplineSet
Validated: 1
Substitution2: "'salt' Stylistic Alternatives lookup 20-1" a.alt
Substitution2: "Single Substitution lookup 16 subtable" ordfeminine
Substitution2: "'aalt' Access All Alternates in Latin lookup 0 subtable" ordfeminine
EndChar

StartChar: ae
Encoding: 230 230 124
Width: 2031
GlyphClass: 2
Flags: W
AnchorPoint: "Anchor-1" 1003 0 basechar 0
AnchorPoint: "Anchor-0" 1003 1025 basechar 0
LayerCount: 2
Fore
SplineSet
508 -32 m 0,0,1
 394 -32 394 -32 305 7.5 c 128,-1,2
 216 47 216 47 165.5 119.5 c 128,-1,3
 115 192 115 192 115 291 c 0,4,5
 115 389 115 389 166.5 462.5 c 128,-1,6
 218 536 218 536 307.5 577.5 c 128,-1,7
 397 619 397 619 511 619 c 0,8,9
 609 619 609 619 695 587 c 128,-1,10
 781 555 781 555 837 499 c 1,11,-1
 837 611 l 2,12,13
 837 746 837 746 756 822.5 c 128,-1,14
 675 899 675 899 541 899 c 0,15,16
 483 899 483 899 430.5 885 c 128,-1,17
 378 871 378 871 333 847.5 c 128,-1,18
 288 824 288 824 252 793 c 1,19,-1
 179 921 l 1,20,21
 253 992 253 992 349.5 1024 c 128,-1,22
 446 1056 446 1056 553 1056 c 0,23,24
 707 1056 707 1056 808.5 990.5 c 128,-1,25
 910 925 910 925 951 827 c 1,26,27
 1021 931 1021 931 1133 993.5 c 128,-1,28
 1245 1056 1245 1056 1378 1056 c 0,29,30
 1530 1056 1530 1056 1650.5 986.5 c 128,-1,31
 1771 917 1771 917 1841.5 796 c 128,-1,32
 1912 675 1912 675 1913 522 c 0,33,34
 1913 515 1913 515 1912.5 509 c 128,-1,35
 1912 503 1912 503 1911 490 c 1,36,-1
 1028 490 l 1,37,38
 1028 383 1028 383 1076 300.5 c 128,-1,39
 1124 218 1124 218 1209.5 172 c 128,-1,40
 1295 126 1295 126 1407 126 c 0,41,42
 1512 126 1512 126 1595 169 c 128,-1,43
 1678 212 1678 212 1739 297 c 1,44,-1
 1881 223 l 1,45,46
 1806 101 1806 101 1679 34.5 c 128,-1,47
 1552 -32 1552 -32 1394 -32 c 0,48,49
 1251 -32 1251 -32 1134.5 27 c 128,-1,50
 1018 86 1018 86 942 195 c 1,51,52
 883 122 883 122 815.5 71.5 c 128,-1,53
 748 21 748 21 671.5 -5.5 c 128,-1,54
 595 -32 595 -32 508 -32 c 0,0,1
575 94 m 256,55,56
 650 94 650 94 711.5 120 c 128,-1,57
 773 146 773 146 809.5 192.5 c 128,-1,58
 846 239 846 239 846 300 c 0,59,60
 846 362 846 362 809 408 c 128,-1,61
 772 454 772 454 710 479.5 c 128,-1,62
 648 505 648 505 573 505 c 0,63,64
 499 505 499 505 438 479.5 c 128,-1,65
 377 454 377 454 341 408.5 c 128,-1,66
 305 363 305 363 305 302 c 0,67,68
 305 240 305 240 341.5 193 c 128,-1,69
 378 146 378 146 439 120 c 128,-1,70
 500 94 500 94 575 94 c 256,55,56
1034 603 m 1,71,-1
 1722 603 l 1,72,73
 1713 695 1713 695 1666 766 c 128,-1,74
 1619 837 1619 837 1545 877.5 c 128,-1,75
 1471 918 1471 918 1380 918 c 0,76,77
 1288 918 1288 918 1212.5 877 c 128,-1,78
 1137 836 1137 836 1089.5 765 c 128,-1,79
 1042 694 1042 694 1034 603 c 1,71,-1
EndSplineSet
Validated: 1
EndChar

StartChar: b
Encoding: 98 98 125
Width: 1442
GlyphClass: 2
Flags: W
AnchorPoint: "Anchor-1" 721 0 basechar 0
AnchorPoint: "Anchor-0" 721 1720 basechar 0
LayerCount: 2
Fore
SplineSet
804 -32 m 0,0,1
 677 -32 677 -32 571 27.5 c 128,-1,2
 465 87 465 87 399 192 c 1,3,-1
 399 0 l 1,4,-1
 205 0 l 1,5,-1
 205 1720 l 1,6,-1
 399 1720 l 1,7,-1
 399 837 l 1,8,9
 461 940 461 940 566.5 998 c 128,-1,10
 672 1056 672 1056 800 1056 c 0,11,12
 947 1056 947 1056 1063 985 c 128,-1,13
 1179 914 1179 914 1245.5 791.5 c 128,-1,14
 1312 669 1312 669 1312 512 c 0,15,16
 1312 354 1312 354 1244.5 231 c 128,-1,17
 1177 108 1177 108 1062 38 c 128,-1,18
 947 -32 947 -32 804 -32 c 0,0,1
752 135 m 256,19,20
 857 135 857 135 937.5 183.5 c 128,-1,21
 1018 232 1018 232 1064 317 c 128,-1,22
 1110 402 1110 402 1110 511 c 0,23,24
 1110 621 1110 621 1063.5 706.5 c 128,-1,25
 1017 792 1017 792 936.5 840.5 c 128,-1,26
 856 889 856 889 752 889 c 256,27,28
 648 889 648 889 566.5 840.5 c 128,-1,29
 485 792 485 792 438.5 706.5 c 128,-1,30
 392 621 392 621 392 511 c 0,31,32
 392 402 392 402 438 317 c 128,-1,33
 484 232 484 232 565.5 183.5 c 128,-1,34
 647 135 647 135 752 135 c 256,19,20
EndSplineSet
Validated: 1
EndChar

StartChar: c
Encoding: 99 99 126
Width: 1119
GlyphClass: 2
Flags: W
AnchorPoint: "Anchor-1" 689 13 basechar 0
AnchorPoint: "Anchor-0" 655 1056 basechar 0
LayerCount: 2
Fore
SplineSet
682 -32 m 0,0,1
 566 -32 566 -32 464.5 9 c 128,-1,2
 363 50 363 50 286 124 c 128,-1,3
 209 198 209 198 165.5 297 c 128,-1,4
 122 396 122 396 122 512 c 0,5,6
 122 626 122 626 164 724.5 c 128,-1,7
 206 823 206 823 282 897.5 c 128,-1,8
 358 972 358 972 460 1014 c 128,-1,9
 562 1056 562 1056 681 1056 c 0,10,11
 782 1056 782 1056 873 1026.5 c 128,-1,12
 964 997 964 997 1027 947 c 1,13,-1
 954 816 l 1,14,15
 853 894 853 894 707 894 c 0,16,17
 591 894 591 894 504 842.5 c 128,-1,18
 417 791 417 791 369.5 704 c 128,-1,19
 322 617 322 617 322 512 c 0,20,21
 322 404 322 404 371 317.5 c 128,-1,22
 420 231 420 231 507.5 180.5 c 128,-1,23
 595 130 595 130 709 130 c 0,24,25
 780 130 780 130 843 150.5 c 128,-1,26
 906 171 906 171 953 208 c 1,27,-1
 1027 77 l 1,28,29
 963 28 963 28 873 -2 c 128,-1,30
 783 -32 783 -32 682 -32 c 0,0,1
EndSplineSet
Validated: 1
EndChar

StartChar: d
Encoding: 100 100 131
Width: 1442
GlyphClass: 2
Flags: W
AnchorPoint: "Anchor-1" 642 0 basechar 0
AnchorPoint: "Anchor-0" 647 1374 basechar 0
LayerCount: 2
Fore
SplineSet
638 -32 m 0,0,1
 496 -32 496 -32 380.5 38 c 128,-1,2
 265 108 265 108 197.5 231 c 128,-1,3
 130 354 130 354 130 512 c 0,4,5
 130 669 130 669 196.5 791.5 c 128,-1,6
 263 914 263 914 378.5 985 c 128,-1,7
 494 1056 494 1056 642 1056 c 0,8,9
 770 1056 770 1056 875.5 998 c 128,-1,10
 981 940 981 940 1043 837 c 1,11,-1
 1043 1721 l 1,12,-1
 1237 1721 l 1,13,-1
 1237 0 l 1,14,-1
 1043 0 l 1,15,-1
 1043 192 l 1,16,17
 977 87 977 87 871 27.5 c 128,-1,18
 765 -32 765 -32 638 -32 c 0,0,1
690 135 m 0,19,20
 795 135 795 135 876 183.5 c 128,-1,21
 957 232 957 232 1003 317 c 128,-1,22
 1049 402 1049 402 1049 511 c 0,23,24
 1049 621 1049 621 1003 706.5 c 128,-1,25
 957 792 957 792 876 840.5 c 128,-1,26
 795 889 795 889 691 889 c 256,27,28
 587 889 587 889 506 840.5 c 128,-1,29
 425 792 425 792 378.5 706.5 c 128,-1,30
 332 621 332 621 332 511 c 0,31,32
 332 402 332 402 378 317 c 128,-1,33
 424 232 424 232 505 183.5 c 128,-1,34
 586 135 586 135 690 135 c 0,19,20
EndSplineSet
Validated: 1
EndChar

StartChar: eth
Encoding: 240 240 132
Width: 1432
Flags: W
LayerCount: 2
Fore
SplineSet
705 -32 m 0,0,1
 536 -32 536 -32 405 38 c 128,-1,2
 274 108 274 108 199.5 230.5 c 128,-1,3
 125 353 125 353 125 512 c 0,4,5
 125 642 125 642 172.5 744 c 128,-1,6
 220 846 220 846 301 917 c 128,-1,7
 382 988 382 988 483.5 1025 c 128,-1,8
 585 1062 585 1062 693 1062 c 0,9,10
 791 1062 791 1062 871 1019 c 128,-1,11
 951 976 951 976 997 902 c 1,12,13
 954 1066 954 1066 872.5 1190 c 128,-1,14
 791 1314 791 1314 681 1399 c 1,15,-1
 522 1240 l 1,16,-1
 429 1333 l 1,17,-1
 566 1469 l 1,18,19
 505 1508 505 1508 441 1537 c 128,-1,20
 377 1566 377 1566 318 1585 c 1,21,-1
 367 1750 l 1,22,23
 448 1725 448 1725 533 1688 c 128,-1,24
 618 1651 618 1651 697 1601 c 1,25,-1
 847 1750 l 1,26,-1
 939 1656 l 1,27,-1
 810 1529 l 1,28,29
 913 1450 913 1450 999.5 1347 c 128,-1,30
 1086 1244 1086 1244 1149.5 1117 c 128,-1,31
 1213 990 1213 990 1248 839 c 128,-1,32
 1283 688 1283 688 1283 512 c 0,33,34
 1283 353 1283 353 1207.5 230.5 c 128,-1,35
 1132 108 1132 108 1001.5 38 c 128,-1,36
 871 -32 871 -32 705 -32 c 0,0,1
704 136 m 0,37,38
 813 136 813 136 898 184.5 c 128,-1,39
 983 233 983 233 1032 318 c 128,-1,40
 1081 403 1081 403 1081 512 c 0,41,42
 1081 622 1081 622 1031.5 707 c 128,-1,43
 982 792 982 792 897 840.5 c 128,-1,44
 812 889 812 889 704 889 c 256,45,46
 596 889 596 889 510.5 840.5 c 128,-1,47
 425 792 425 792 375.5 707 c 128,-1,48
 326 622 326 622 326 512 c 0,49,50
 326 403 326 403 374.5 318 c 128,-1,51
 423 233 423 233 508.5 184.5 c 128,-1,52
 594 136 594 136 704 136 c 0,37,38
EndSplineSet
Validated: 1
EndChar

StartChar: dcroat
Encoding: 273 273 134
Width: 1442
Flags: W
LayerCount: 2
Fore
SplineSet
641 -32 m 0,0,1
 493 -32 493 -32 378 39 c 128,-1,2
 263 110 263 110 196.5 233.5 c 128,-1,3
 130 357 130 357 130 513 c 1,4,-1
 130 513 l 1,5,6
 130 668 130 668 196.5 791 c 128,-1,7
 263 914 263 914 378 985 c 128,-1,8
 493 1056 493 1056 641 1056 c 0,9,10
 772 1056 772 1056 876.5 997.5 c 128,-1,11
 981 939 981 939 1043 837 c 1,12,-1
 1043 1306 l 1,13,-1
 675 1306 l 1,14,-1
 675 1435 l 1,15,-1
 1043 1435 l 1,16,-1
 1043 1721 l 1,17,-1
 1237 1721 l 1,18,-1
 1237 1435 l 1,19,-1
 1399 1435 l 1,20,-1
 1399 1306 l 1,21,-1
 1237 1306 l 1,22,-1
 1237 0 l 1,23,-1
 1043 0 l 1,24,-1
 1043 192 l 1,25,26
 982 91 982 91 877 29.5 c 128,-1,27
 772 -32 772 -32 641 -32 c 0,0,1
691 135 m 0,28,29
 795 135 795 135 876 183.5 c 128,-1,30
 957 232 957 232 1003 317 c 128,-1,31
 1049 402 1049 402 1049 512 c 0,32,33
 1049 623 1049 623 1002 708 c 128,-1,34
 955 793 955 793 874.5 841 c 128,-1,35
 794 889 794 889 691 889 c 0,36,37
 589 889 589 889 507.5 841 c 128,-1,38
 426 793 426 793 379 708 c 128,-1,39
 332 623 332 623 332 512 c 1,40,-1
 332 512 l 1,41,42
 332 402 332 402 378 317 c 128,-1,43
 424 232 424 232 505 183.5 c 128,-1,44
 586 135 586 135 691 135 c 0,28,29
EndSplineSet
Validated: 5
EndChar

StartChar: e
Encoding: 101 101 135
Width: 1322
GlyphClass: 2
Flags: W
AnchorPoint: "Anchor-2" 743 4 basechar 0
AnchorPoint: "Anchor-1" 731 0 basechar 0
AnchorPoint: "Anchor-0" 668 1038 basechar 0
LayerCount: 2
Fore
SplineSet
688 -32 m 0,0,1
 527 -32 527 -32 399 39 c 128,-1,2
 271 110 271 110 197 232.5 c 128,-1,3
 123 355 123 355 123 509 c 0,4,5
 123 623 123 623 165 722 c 128,-1,6
 207 821 207 821 282 896.5 c 128,-1,7
 357 972 357 972 456 1014 c 128,-1,8
 555 1056 555 1056 668 1056 c 0,9,10
 828 1056 828 1056 948.5 990 c 128,-1,11
 1069 924 1069 924 1136.5 806 c 128,-1,12
 1204 688 1204 688 1204 532 c 0,13,14
 1204 519 1204 519 1203 511 c 128,-1,15
 1202 503 1202 503 1199 490 c 1,16,-1
 319 490 l 1,17,18
 319 383 319 383 367.5 301 c 128,-1,19
 416 219 416 219 501.5 172.5 c 128,-1,20
 587 126 587 126 698 126 c 0,21,22
 803 126 803 126 886 169 c 128,-1,23
 969 212 969 212 1030 297 c 1,24,-1
 1172 223 l 1,25,26
 1099 102 1099 102 971.5 35 c 128,-1,27
 844 -32 844 -32 688 -32 c 0,0,1
329 633 m 1,28,-1
 1009 633 l 1,29,30
 995 712 995 712 947.5 771.5 c 128,-1,31
 900 831 900 831 828.5 864.5 c 128,-1,32
 757 898 757 898 671 898 c 0,33,34
 581 898 581 898 508.5 865.5 c 128,-1,35
 436 833 436 833 389.5 773.5 c 128,-1,36
 343 714 343 714 329 633 c 1,28,-1
EndSplineSet
Validated: 1
EndChar

StartChar: f
Encoding: 102 102 144
Width: 753
GlyphClass: 2
Flags: W
AnchorPoint: "Anchor-1" 340 0 basechar 0
AnchorPoint: "Anchor-0" 546 1720 basechar 0
LayerCount: 2
Fore
SplineSet
233 0 m 1,0,-1
 233 877 l 1,1,-1
 120 877 l 1,2,-1
 120 1024 l 1,3,-1
 233 1024 l 1,4,-1
 233 1357 l 2,5,6
 233 1481 233 1481 269.5 1569 c 128,-1,7
 306 1657 306 1657 375.5 1703.5 c 128,-1,8
 445 1750 445 1750 545 1750 c 0,9,10
 607 1750 607 1750 662.5 1732.5 c 128,-1,11
 718 1715 718 1715 759 1683 c 1,12,-1
 691 1545 l 1,13,14
 645 1579 645 1579 578 1579 c 0,15,16
 523 1579 523 1579 490 1552 c 128,-1,17
 457 1525 457 1525 442 1475.5 c 128,-1,18
 427 1426 427 1426 427 1358 c 2,19,-1
 427 1024 l 1,20,-1
 682 1024 l 1,21,-1
 682 877 l 1,22,-1
 427 877 l 1,23,-1
 427 0 l 1,24,-1
 233 0 l 1,0,-1
EndSplineSet
Validated: 1
EndChar

StartChar: g
Encoding: 103 103 145
Width: 1442
GlyphClass: 2
Flags: W
AnchorPoint: "Anchor-1" 729 -520 basechar 0
AnchorPoint: "Anchor-0" 699 1044 basechar 0
LayerCount: 2
Fore
SplineSet
669 -550 m 0,0,1
 471 -550 471 -550 335 -474 c 128,-1,2
 199 -398 199 -398 134 -252 c 1,3,-1
 295 -176 l 1,4,5
 341 -271 341 -271 442 -327.5 c 128,-1,6
 543 -384 543 -384 669 -384 c 0,7,8
 777 -384 777 -384 861.5 -341 c 128,-1,9
 946 -298 946 -298 994.5 -218 c 128,-1,10
 1043 -138 1043 -138 1043 -27 c 2,11,-1
 1043 192 l 1,12,13
 978 87 978 87 872 27.5 c 128,-1,14
 766 -32 766 -32 638 -32 c 0,15,16
 496 -32 496 -32 381 38 c 128,-1,17
 266 108 266 108 198 231 c 128,-1,18
 130 354 130 354 130 512 c 0,19,20
 130 669 130 669 197 791.5 c 128,-1,21
 264 914 264 914 379.5 985 c 128,-1,22
 495 1056 495 1056 642 1056 c 0,23,24
 770 1056 770 1056 876 998 c 128,-1,25
 982 940 982 940 1043 837 c 1,26,-1
 1043 1024 l 1,27,-1
 1237 1024 l 1,28,-1
 1237 -28 l 2,29,30
 1237 -192 1237 -192 1170.5 -309 c 128,-1,31
 1104 -426 1104 -426 977 -488 c 128,-1,32
 850 -550 850 -550 669 -550 c 0,0,1
690 135 m 0,33,34
 795 135 795 135 876.5 183.5 c 128,-1,35
 958 232 958 232 1004 317 c 128,-1,36
 1050 402 1050 402 1050 511 c 0,37,38
 1050 621 1050 621 1003.5 706.5 c 128,-1,39
 957 792 957 792 876 840.5 c 128,-1,40
 795 889 795 889 691 889 c 256,41,42
 587 889 587 889 506 840.5 c 128,-1,43
 425 792 425 792 378.5 706.5 c 128,-1,44
 332 621 332 621 332 511 c 0,45,46
 332 402 332 402 378 317 c 128,-1,47
 424 232 424 232 505 183.5 c 128,-1,48
 586 135 586 135 690 135 c 0,33,34
EndSplineSet
Validated: 1
EndChar

StartChar: h
Encoding: 104 104 149
Width: 1317
GlyphClass: 2
Flags: W
AnchorPoint: "Anchor-1" 659 0 basechar 0
AnchorPoint: "Anchor-0" 659 1720 basechar 0
LayerCount: 2
Fore
SplineSet
205 0 m 1,0,-1
 205 1721 l 1,1,-1
 399 1721 l 1,2,-1
 399 892 l 1,3,4
 446 962 446 962 534 1009 c 128,-1,5
 622 1056 622 1056 743 1056 c 0,6,7
 862 1056 862 1056 949 1006.5 c 128,-1,8
 1036 957 1036 957 1083.5 864 c 128,-1,9
 1131 771 1131 771 1131 642 c 2,10,-1
 1131 0 l 1,11,-1
 937 0 l 1,12,-1
 937 603 l 2,13,14
 937 747 937 747 868 824.5 c 128,-1,15
 799 902 799 902 674 902 c 0,16,17
 588 902 588 902 526.5 867 c 128,-1,18
 465 832 465 832 432 774.5 c 128,-1,19
 399 717 399 717 399 649 c 2,20,-1
 399 0 l 1,21,-1
 205 0 l 1,0,-1
EndSplineSet
Validated: 1
EndChar

StartChar: hbar
Encoding: 295 295 150
Width: 1317
Flags: W
LayerCount: 2
Fore
SplineSet
205 0 m 1,0,-1
 205 1721 l 1,1,-1
 399 1721 l 1,2,-1
 399 892 l 1,3,4
 446 962 446 962 534 1009 c 128,-1,5
 622 1056 622 1056 743 1056 c 0,6,7
 862 1056 862 1056 949 1006.5 c 128,-1,8
 1036 957 1036 957 1083.5 864 c 128,-1,9
 1131 771 1131 771 1131 642 c 2,10,-1
 1131 0 l 1,11,-1
 937 0 l 1,12,-1
 937 603 l 2,13,14
 937 747 937 747 868 824.5 c 128,-1,15
 799 902 799 902 674 902 c 0,16,17
 588 902 588 902 526.5 867 c 128,-1,18
 465 832 465 832 432 774.5 c 128,-1,19
 399 717 399 717 399 649 c 2,20,-1
 399 0 l 1,21,-1
 205 0 l 1,0,-1
64 1292 m 1,22,-1
 64 1418 l 1,23,-1
 619 1418 l 1,24,-1
 619 1292 l 1,25,-1
 64 1292 l 1,22,-1
EndSplineSet
Validated: 5
EndChar

StartChar: i
Encoding: 105 105 151
Width: 604
GlyphClass: 2
Flags: W
AnchorPoint: "Anchor-1" 302 0 basechar 0
LayerCount: 2
Fore
SplineSet
204 0 m 1,0,-1
 204 1024 l 1,1,-1
 398 1024 l 1,2,-1
 398 0 l 1,3,-1
 204 0 l 1,0,-1
301 1231 m 0,4,5
 268 1231 268 1231 240.5 1247.5 c 128,-1,6
 213 1264 213 1264 196.5 1292 c 128,-1,7
 180 1320 180 1320 180 1353 c 0,8,9
 180 1387 180 1387 196.5 1414 c 128,-1,10
 213 1441 213 1441 240.5 1457.5 c 128,-1,11
 268 1474 268 1474 301 1474 c 0,12,13
 335 1474 335 1474 362 1457.5 c 128,-1,14
 389 1441 389 1441 405.5 1414 c 128,-1,15
 422 1387 422 1387 422 1354 c 0,16,17
 422 1320 422 1320 405.5 1292 c 128,-1,18
 389 1264 389 1264 362 1247.5 c 128,-1,19
 335 1231 335 1231 301 1231 c 0,4,5
EndSplineSet
Validated: 1
Substitution2: "'locl' Localized Forms in Latin lookup 5 subtable" i.loclTRK
Substitution2: "Single Substitution lookup 4 subtable" dotlessi
Substitution2: "Single Substitution lookup 3 subtable" dotlessi
Substitution2: "'aalt' Access All Alternates in Latin lookup 0 subtable" i.loclTRK
EndChar

StartChar: dotlessi
Encoding: 305 305 152
Width: 604
GlyphClass: 2
Flags: W
AnchorPoint: "Anchor-2" 399 0 basechar 0
AnchorPoint: "Anchor-1" 302 0 basechar 0
AnchorPoint: "Anchor-0" 302 1025 basechar 0
LayerCount: 2
Fore
SplineSet
205 0 m 1,0,-1
 205 1024 l 1,1,-1
 399 1024 l 1,2,-1
 399 0 l 1,3,-1
 205 0 l 1,0,-1
EndSplineSet
Validated: 1
EndChar

StartChar: j
Encoding: 106 106 160
Width: 605
Flags: W
LayerCount: 2
Fore
SplineSet
100 -550 m 0,0,1
 43 -550 43 -550 -13.5 -536 c 128,-1,2
 -70 -522 -70 -522 -106 -496 c 1,3,-1
 -48 -340 l 1,4,5
 -2 -377 -2 -377 63 -377 c 0,6,7
 206 -377 206 -377 206 -184 c 2,8,-1
 206 1024 l 1,9,-1
 400 1024 l 1,10,-1
 400 -210 l 2,11,12
 400 -373 400 -373 322 -461.5 c 128,-1,13
 244 -550 244 -550 100 -550 c 0,0,1
303 1233 m 256,14,15
 270 1233 270 1233 242 1249.5 c 128,-1,16
 214 1266 214 1266 197.5 1293.5 c 128,-1,17
 181 1321 181 1321 181 1355 c 0,18,19
 181 1388 181 1388 197.5 1415.5 c 128,-1,20
 214 1443 214 1443 242 1459.5 c 128,-1,21
 270 1476 270 1476 303 1476 c 256,22,23
 336 1476 336 1476 363.5 1459.5 c 128,-1,24
 391 1443 391 1443 407.5 1415.5 c 128,-1,25
 424 1388 424 1388 424 1355 c 256,26,27
 424 1322 424 1322 407.5 1294 c 128,-1,28
 391 1266 391 1266 363.5 1249.5 c 128,-1,29
 336 1233 336 1233 303 1233 c 256,14,15
EndSplineSet
Validated: 1
EndChar

StartChar: k
Encoding: 107 107 161
Width: 1160
GlyphClass: 2
Flags: W
AnchorPoint: "Anchor-1" 580 0 basechar 0
AnchorPoint: "Anchor-0" 580 1720 basechar 0
LayerCount: 2
Fore
SplineSet
205 0 m 1,0,-1
 205 1720 l 1,1,-1
 399 1720 l 1,2,-1
 399 618 l 1,3,-1
 799 1024 l 1,4,-1
 1051 1024 l 1,5,-1
 574 536 l 1,6,-1
 1075 0 l 1,7,-1
 826 0 l 1,8,-1
 399 462 l 1,9,-1
 399 0 l 1,10,-1
 205 0 l 1,0,-1
EndSplineSet
Validated: 1
EndChar

StartChar: l
Encoding: 108 108 163
Width: 604
GlyphClass: 2
Flags: W
AnchorPoint: "Anchor-1" 302 0 basechar 0
AnchorPoint: "Anchor-0" 302 1720 basechar 0
LayerCount: 2
Fore
SplineSet
205 0 m 1,0,-1
 205 1720 l 1,1,-1
 399 1720 l 1,2,-1
 399 0 l 1,3,-1
 205 0 l 1,0,-1
EndSplineSet
Validated: 1
EndChar

StartChar: lslash
Encoding: 322 322 167
Width: 681
Flags: W
LayerCount: 2
Fore
SplineSet
274 0 m 1,0,-1
 274 761 l 1,1,-1
 100 625 l 1,2,-1
 100 797 l 1,3,-1
 274 933 l 1,4,-1
 274 1720 l 1,5,-1
 468 1720 l 1,6,-1
 468 1086 l 1,7,-1
 641 1222 l 1,8,-1
 641 1050 l 1,9,-1
 468 914 l 1,10,-1
 468 0 l 1,11,-1
 274 0 l 1,0,-1
EndSplineSet
Validated: 1
EndChar

StartChar: m
Encoding: 109 109 168
Width: 2008
GlyphClass: 2
Flags: W
AnchorPoint: "Anchor-1" 1110 0 basechar 0
AnchorPoint: "Anchor-0" 1055 1025 basechar 0
LayerCount: 2
Fore
SplineSet
205 0 m 1,0,-1
 205 1024 l 1,1,-1
 399 1024 l 1,2,-1
 399 892 l 1,3,4
 464 974 464 974 546 1015 c 128,-1,5
 628 1056 628 1056 728 1056 c 0,6,7
 852 1056 852 1056 946 999.5 c 128,-1,8
 1040 943 1040 943 1077 846 c 1,9,10
 1141 944 1141 944 1231 1000 c 128,-1,11
 1321 1056 1321 1056 1442 1056 c 0,12,13
 1552 1056 1552 1056 1637 1011 c 128,-1,14
 1722 966 1722 966 1771 881 c 128,-1,15
 1820 796 1820 796 1820 675 c 2,16,-1
 1820 0 l 1,17,-1
 1626 0 l 1,18,-1
 1626 621 l 2,19,20
 1626 749 1626 749 1559 824 c 128,-1,21
 1492 899 1492 899 1381 899 c 0,22,23
 1304 899 1304 899 1242.5 865.5 c 128,-1,24
 1181 832 1181 832 1145.5 778.5 c 128,-1,25
 1110 725 1110 725 1110 666 c 2,26,-1
 1110 0 l 1,27,-1
 916 0 l 1,28,-1
 916 634 l 2,29,30
 916 755 916 755 850 827 c 128,-1,31
 784 899 784 899 674 899 c 0,32,33
 597 899 597 899 534.5 866.5 c 128,-1,34
 472 834 472 834 435.5 782 c 128,-1,35
 399 730 399 730 399 673 c 2,36,-1
 399 0 l 1,37,-1
 205 0 l 1,0,-1
EndSplineSet
Validated: 1
EndChar

StartChar: n
Encoding: 110 110 169
Width: 1317
GlyphClass: 2
Flags: W
AnchorPoint: "Anchor-1" 659 0 basechar 0
AnchorPoint: "Anchor-0" 682 1056 basechar 0
LayerCount: 2
Fore
SplineSet
205 0 m 1,0,-1
 205 1024 l 1,1,-1
 399 1024 l 1,2,-1
 399 892 l 1,3,4
 446 962 446 962 534 1009 c 128,-1,5
 622 1056 622 1056 743 1056 c 0,6,7
 862 1056 862 1056 949 1006.5 c 128,-1,8
 1036 957 1036 957 1083.5 864 c 128,-1,9
 1131 771 1131 771 1131 642 c 2,10,-1
 1131 0 l 1,11,-1
 937 0 l 1,12,-1
 937 603 l 2,13,14
 937 747 937 747 868 824 c 128,-1,15
 799 901 799 901 674 901 c 0,16,17
 588 901 588 901 526.5 866.5 c 128,-1,18
 465 832 465 832 432 774.5 c 128,-1,19
 399 717 399 717 399 649 c 2,20,-1
 399 0 l 1,21,-1
 205 0 l 1,0,-1
EndSplineSet
Validated: 1
EndChar

StartChar: eng
Encoding: 331 331 173
Width: 1312
Flags: W
LayerCount: 2
Fore
SplineSet
830 -550 m 0,0,1
 772 -550 772 -550 716 -535.5 c 128,-1,2
 660 -521 660 -521 625 -496 c 1,3,-1
 684 -340 l 1,4,5
 730 -377 730 -377 794 -377 c 0,6,7
 937 -377 937 -377 937 -184 c 2,8,-1
 937 600 l 2,9,10
 937 683 937 683 906 751.5 c 128,-1,11
 875 820 875 820 815.5 861 c 128,-1,12
 756 902 756 902 670 902 c 0,13,14
 598 902 598 902 536 871.5 c 128,-1,15
 474 841 474 841 436.5 784 c 128,-1,16
 399 727 399 727 399 649 c 2,17,-1
 399 0 l 1,18,-1
 205 0 l 1,19,-1
 205 1024 l 1,20,-1
 399 1024 l 1,21,-1
 399 892 l 1,22,23
 446 966 446 966 537.5 1011 c 128,-1,24
 629 1056 629 1056 736 1056 c 0,25,26
 853 1056 853 1056 942 1002.5 c 128,-1,27
 1031 949 1031 949 1081 856 c 128,-1,28
 1131 763 1131 763 1131 645 c 2,29,-1
 1131 -210 l 2,30,31
 1131 -372 1131 -372 1053.5 -461 c 128,-1,32
 976 -550 976 -550 830 -550 c 0,0,1
EndSplineSet
Validated: 1
EndChar

StartChar: o
Encoding: 111 111 175
Width: 1401
GlyphClass: 2
Flags: W
AnchorPoint: "Anchor-2" 774 10 basechar 0
AnchorPoint: "Anchor-1" 701 0 basechar 0
AnchorPoint: "Anchor-0" 700 1056 basechar 0
LayerCount: 2
Fore
SplineSet
700 -32 m 256,0,1
 537 -32 537 -32 406.5 37 c 128,-1,2
 276 106 276 106 199.5 229 c 128,-1,3
 123 352 123 352 123 512 c 0,4,5
 123 673 123 673 199.5 795.5 c 128,-1,6
 276 918 276 918 406.5 987 c 128,-1,7
 537 1056 537 1056 700 1056 c 256,8,9
 863 1056 863 1056 993.5 987 c 128,-1,10
 1124 918 1124 918 1200.5 795.5 c 128,-1,11
 1277 673 1277 673 1277 512 c 0,12,13
 1277 352 1277 352 1200.5 229 c 128,-1,14
 1124 106 1124 106 993.5 37 c 128,-1,15
 863 -32 863 -32 700 -32 c 256,0,1
701 137 m 0,16,17
 808 137 808 137 893 185 c 128,-1,18
 978 233 978 233 1027 318 c 128,-1,19
 1076 403 1076 403 1076 512 c 0,20,21
 1076 622 1076 622 1027 706.5 c 128,-1,22
 978 791 978 791 893 839 c 128,-1,23
 808 887 808 887 701 887 c 0,24,25
 593 887 593 887 508 839 c 128,-1,26
 423 791 423 791 374 706.5 c 128,-1,27
 325 622 325 622 325 512 c 0,28,29
 325 403 325 403 374 318 c 128,-1,30
 423 233 423 233 508 185 c 128,-1,31
 593 137 593 137 701 137 c 0,16,17
EndSplineSet
Validated: 1
Substitution2: "Single Substitution lookup 16 subtable" ordmasculine
Substitution2: "'aalt' Access All Alternates in Latin lookup 0 subtable" ordmasculine
EndChar

StartChar: oslash
Encoding: 248 248 182
Width: 1401
Flags: W
LayerCount: 2
Fore
SplineSet
700 -32 m 256,0,1
 537 -32 537 -32 406.5 37 c 128,-1,2
 276 106 276 106 199.5 229 c 128,-1,3
 123 352 123 352 123 512 c 0,4,5
 123 673 123 673 199.5 795.5 c 128,-1,6
 276 918 276 918 406.5 987 c 128,-1,7
 537 1056 537 1056 700 1056 c 256,8,9
 863 1056 863 1056 993.5 987 c 128,-1,10
 1124 918 1124 918 1200.5 795.5 c 128,-1,11
 1277 673 1277 673 1277 512 c 0,12,13
 1277 352 1277 352 1200.5 229 c 128,-1,14
 1124 106 1124 106 993.5 37 c 128,-1,15
 863 -32 863 -32 700 -32 c 256,0,1
701 137 m 0,16,17
 808 137 808 137 893 185 c 128,-1,18
 978 233 978 233 1027 318 c 128,-1,19
 1076 403 1076 403 1076 512 c 0,20,21
 1076 622 1076 622 1027 706.5 c 128,-1,22
 978 791 978 791 893 839 c 128,-1,23
 808 887 808 887 701 887 c 0,24,25
 593 887 593 887 508 839 c 128,-1,26
 423 791 423 791 374 706.5 c 128,-1,27
 325 622 325 622 325 512 c 0,28,29
 325 403 325 403 374 318 c 128,-1,30
 423 233 423 233 508 185 c 128,-1,31
 593 137 593 137 701 137 c 0,16,17
199 -32 m 1,32,-1
 1091 1056 l 1,33,-1
 1201 1056 l 1,34,-1
 309 -32 l 1,35,-1
 199 -32 l 1,32,-1
EndSplineSet
Validated: 5
EndChar

StartChar: oe
Encoding: 339 339 184
Width: 2268
GlyphClass: 2
Flags: W
AnchorPoint: "Anchor-1" 1134 0 basechar 0
AnchorPoint: "Anchor-0" 1134 1025 basechar 0
LayerCount: 2
Fore
SplineSet
694 -32 m 0,0,1
 531 -32 531 -32 402 37.5 c 128,-1,2
 273 107 273 107 199 229.5 c 128,-1,3
 125 352 125 352 125 512 c 256,4,5
 125 672 125 672 199 794.5 c 128,-1,6
 273 917 273 917 402 986.5 c 128,-1,7
 531 1056 531 1056 694 1056 c 0,8,9
 853 1056 853 1056 977 983 c 128,-1,10
 1101 910 1101 910 1161 782 c 1,11,12
 1206 865 1206 865 1274.5 926.5 c 128,-1,13
 1343 988 1343 988 1430.5 1022 c 128,-1,14
 1518 1056 1518 1056 1616 1056 c 0,15,16
 1767 1056 1767 1056 1887.5 986 c 128,-1,17
 2008 916 2008 916 2078.5 796 c 128,-1,18
 2149 676 2149 676 2150 524 c 0,19,20
 2150 517 2150 517 2150 512 c 128,-1,21
 2150 507 2150 507 2148 490 c 1,22,-1
 1266 490 l 1,23,24
 1266 383 1266 383 1314 300.5 c 128,-1,25
 1362 218 1362 218 1447 172 c 128,-1,26
 1532 126 1532 126 1644 126 c 0,27,28
 1749 126 1749 126 1832 169 c 128,-1,29
 1915 212 1915 212 1976 297 c 1,30,-1
 2118 223 l 1,31,32
 2043 102 2043 102 1916 35 c 128,-1,33
 1789 -32 1789 -32 1630 -32 c 0,34,35
 1473 -32 1473 -32 1350.5 40 c 128,-1,36
 1228 112 1228 112 1160 240 c 1,37,38
 1101 114 1101 114 977.5 41 c 128,-1,39
 854 -32 854 -32 694 -32 c 0,0,1
702 135 m 256,40,41
 811 135 811 135 896.5 184 c 128,-1,42
 982 233 982 233 1031 318 c 128,-1,43
 1080 403 1080 403 1080 512 c 256,44,45
 1080 621 1080 621 1031 706 c 128,-1,46
 982 791 982 791 896.5 840 c 128,-1,47
 811 889 811 889 702 889 c 256,48,49
 593 889 593 889 507.5 840 c 128,-1,50
 422 791 422 791 373 706 c 128,-1,51
 324 621 324 621 324 512 c 256,52,53
 324 403 324 403 373 318 c 128,-1,54
 422 233 422 233 507.5 184 c 128,-1,55
 593 135 593 135 702 135 c 256,40,41
1271 603 m 1,56,-1
 1960 603 l 1,57,58
 1950 695 1950 695 1903 766 c 128,-1,59
 1856 837 1856 837 1782 877.5 c 128,-1,60
 1708 918 1708 918 1617 918 c 0,61,62
 1525 918 1525 918 1449.5 877 c 128,-1,63
 1374 836 1374 836 1326.5 765 c 128,-1,64
 1279 694 1279 694 1271 603 c 1,56,-1
EndSplineSet
Validated: 1
EndChar

StartChar: p
Encoding: 112 112 185
Width: 1442
GlyphClass: 2
Flags: W
AnchorPoint: "Anchor-1" 743 -20 basechar 0
AnchorPoint: "Anchor-0" 743 1044 basechar 0
LayerCount: 2
Fore
SplineSet
205 -520 m 1,0,-1
 205 1024 l 1,1,-1
 399 1024 l 1,2,-1
 399 838 l 1,3,4
 461 941 461 941 566.5 998.5 c 128,-1,5
 672 1056 672 1056 799 1056 c 0,6,7
 947 1056 947 1056 1062.5 985 c 128,-1,8
 1178 914 1178 914 1245 791.5 c 128,-1,9
 1312 669 1312 669 1312 512 c 0,10,11
 1312 357 1312 357 1245.5 233.5 c 128,-1,12
 1179 110 1179 110 1064 39 c 128,-1,13
 949 -32 949 -32 803 -32 c 0,14,15
 677 -32 677 -32 571 27 c 128,-1,16
 465 86 465 86 399 192 c 1,17,-1
 399 -520 l 1,18,-1
 205 -520 l 1,0,-1
752 135 m 256,19,20
 856 135 856 135 937 183.5 c 128,-1,21
 1018 232 1018 232 1064 317 c 128,-1,22
 1110 402 1110 402 1110 511 c 0,23,24
 1110 621 1110 621 1063.5 706.5 c 128,-1,25
 1017 792 1017 792 936.5 840.5 c 128,-1,26
 856 889 856 889 752 889 c 256,27,28
 648 889 648 889 566.5 840.5 c 128,-1,29
 485 792 485 792 438.5 707 c 128,-1,30
 392 622 392 622 392 512 c 256,31,32
 392 402 392 402 438.5 317 c 128,-1,33
 485 232 485 232 566.5 183.5 c 128,-1,34
 648 135 648 135 752 135 c 256,19,20
EndSplineSet
Validated: 1
EndChar

StartChar: thorn
Encoding: 254 254 186
Width: 1442
GlyphClass: 2
Flags: W
AnchorPoint: "Anchor-1" 726 0 basechar 0
AnchorPoint: "Anchor-0" 726 1025 basechar 0
LayerCount: 2
Fore
SplineSet
205 -520 m 1,0,-1
 205 1720 l 1,1,-1
 399 1720 l 1,2,-1
 399 837 l 1,3,4
 461 939 461 939 566 997.5 c 128,-1,5
 671 1056 671 1056 801 1056 c 0,6,7
 949 1056 949 1056 1064 985 c 128,-1,8
 1179 914 1179 914 1245.5 791 c 128,-1,9
 1312 668 1312 668 1312 512 c 0,10,11
 1312 357 1312 357 1245.5 233.5 c 128,-1,12
 1179 110 1179 110 1064 39 c 128,-1,13
 949 -32 949 -32 801 -32 c 0,14,15
 671 -32 671 -32 565.5 29.5 c 128,-1,16
 460 91 460 91 399 192 c 1,17,-1
 399 -520 l 1,18,-1
 205 -520 l 1,0,-1
751 135 m 0,19,20
 856 135 856 135 937 183.5 c 128,-1,21
 1018 232 1018 232 1064 317 c 128,-1,22
 1110 402 1110 402 1110 512 c 0,23,24
 1110 623 1110 623 1063 708 c 128,-1,25
 1016 793 1016 793 935 841 c 128,-1,26
 854 889 854 889 751 889 c 0,27,28
 649 889 649 889 567.5 841 c 128,-1,29
 486 793 486 793 439 708 c 128,-1,30
 392 623 392 623 392 512 c 0,31,32
 392 402 392 402 438.5 317 c 128,-1,33
 485 232 485 232 566 183.5 c 128,-1,34
 647 135 647 135 751 135 c 0,19,20
EndSplineSet
Validated: 1
EndChar

StartChar: q
Encoding: 113 113 187
Width: 1442
GlyphClass: 2
Flags: W
AnchorPoint: "Anchor-1" 721 0 basechar 0
AnchorPoint: "Anchor-0" 699 1044 basechar 0
LayerCount: 2
Fore
SplineSet
1043 -520 m 1,0,-1
 1043 192 l 1,1,2
 976 86 976 86 870.5 27 c 128,-1,3
 765 -32 765 -32 639 -32 c 0,4,5
 493 -32 493 -32 378 39 c 128,-1,6
 263 110 263 110 196.5 233.5 c 128,-1,7
 130 357 130 357 130 512 c 0,8,9
 130 669 130 669 197 791.5 c 128,-1,10
 264 914 264 914 379.5 985 c 128,-1,11
 495 1056 495 1056 643 1056 c 0,12,13
 770 1056 770 1056 875 998.5 c 128,-1,14
 980 941 980 941 1043 837 c 1,15,-1
 1043 1024 l 1,16,-1
 1237 1024 l 1,17,-1
 1237 -520 l 1,18,-1
 1043 -520 l 1,0,-1
690 135 m 0,19,20
 795 135 795 135 876 183.5 c 128,-1,21
 957 232 957 232 1003 317 c 128,-1,22
 1049 402 1049 402 1049 512 c 256,23,24
 1049 622 1049 622 1003 707 c 128,-1,25
 957 792 957 792 876 840.5 c 128,-1,26
 795 889 795 889 691 889 c 256,27,28
 587 889 587 889 506 840.5 c 128,-1,29
 425 792 425 792 378.5 707 c 128,-1,30
 332 622 332 622 332 512 c 256,31,32
 332 402 332 402 378 317 c 128,-1,33
 424 232 424 232 505 183.5 c 128,-1,34
 586 135 586 135 690 135 c 0,19,20
EndSplineSet
Validated: 1
EndChar

StartChar: r
Encoding: 114 114 188
Width: 926
GlyphClass: 2
Flags: W
AnchorPoint: "Anchor-1" 476 0 basechar 0
AnchorPoint: "Anchor-0" 501 1056 basechar 0
LayerCount: 2
Fore
SplineSet
205 0 m 1,0,-1
 205 1024 l 1,1,-1
 399 1024 l 1,2,-1
 399 874 l 1,3,4
 450 963 450 963 529 1009.5 c 128,-1,5
 608 1056 608 1056 708 1056 c 0,6,7
 756 1056 756 1056 805.5 1044.5 c 128,-1,8
 855 1033 855 1033 891 1014 c 1,9,-1
 811 850 l 1,10,11
 780 867 780 867 739 877 c 128,-1,12
 698 887 698 887 662 887 c 0,13,14
 595 887 595 887 534.5 852.5 c 128,-1,15
 474 818 474 818 436.5 763 c 128,-1,16
 399 708 399 708 399 645 c 2,17,-1
 399 0 l 1,18,-1
 205 0 l 1,0,-1
EndSplineSet
Validated: 1
EndChar

StartChar: s
Encoding: 115 115 192
Width: 1001
GlyphClass: 2
Flags: W
AnchorPoint: "Anchor-1" 543 0 basechar 0
AnchorPoint: "Anchor-0" 504 1044 basechar 0
LayerCount: 2
Fore
SplineSet
478 -32 m 0,0,1
 350 -32 350 -32 251.5 23.5 c 128,-1,2
 153 79 153 79 95 182 c 1,3,-1
 188 302 l 1,4,5
 241 213 241 213 316 164 c 128,-1,6
 391 115 391 115 477 115 c 0,7,8
 533 115 533 115 578.5 137 c 128,-1,9
 624 159 624 159 651 200.5 c 128,-1,10
 678 242 678 242 678 299 c 0,11,12
 678 354 678 354 650.5 385.5 c 128,-1,13
 623 417 623 417 569.5 441 c 128,-1,14
 516 465 516 465 436 496 c 0,15,16
 372 522 372 522 312 555 c 128,-1,17
 252 588 252 588 213.5 638.5 c 128,-1,18
 175 689 175 689 175 767 c 0,19,20
 175 851 175 851 220.5 916 c 128,-1,21
 266 981 266 981 346 1018 c 128,-1,22
 426 1055 426 1055 528 1055 c 0,23,24
 611 1055 611 1055 689 1022 c 128,-1,25
 767 989 767 989 837 927 c 1,26,-1
 759 809 l 1,27,28
 655 919 655 919 529 919 c 0,29,30
 453 919 453 919 406 880.5 c 128,-1,31
 359 842 359 842 359 781 c 0,32,33
 359 734 359 734 393 702.5 c 128,-1,34
 427 671 427 671 480 648 c 128,-1,35
 533 625 533 625 590 603 c 0,36,37
 676 571 676 571 740.5 537 c 128,-1,38
 805 503 805 503 841 449.5 c 128,-1,39
 877 396 877 396 877 306 c 0,40,41
 877 201 877 201 827.5 125 c 128,-1,42
 778 49 778 49 688 8.5 c 128,-1,43
 598 -32 598 -32 478 -32 c 0,0,1
EndSplineSet
Validated: 1
EndChar

StartChar: germandbls
Encoding: 223 223 197
Width: 1358
GlyphClass: 2
Flags: W
AnchorPoint: "Anchor-1" 681 0 basechar 0
AnchorPoint: "Anchor-0" 681 1025 basechar 0
LayerCount: 2
Fore
SplineSet
573 -32 m 1,0,-1
 573 147 l 1,1,-1
 707 147 l 2,2,3
 799 147 799 147 873 193 c 128,-1,4
 947 239 947 239 990.5 317.5 c 128,-1,5
 1034 396 1034 396 1034 492 c 0,6,7
 1034 590 1034 590 990.5 668.5 c 128,-1,8
 947 747 947 747 873 793 c 128,-1,9
 799 839 799 839 707 839 c 2,10,-1
 573 839 l 1,11,-1
 573 993 l 1,12,-1
 707 993 l 2,13,14
 787 993 787 993 851.5 1032.5 c 128,-1,15
 916 1072 916 1072 954 1139.5 c 128,-1,16
 992 1207 992 1207 992 1290 c 0,17,18
 992 1372 992 1372 954 1438.5 c 128,-1,19
 916 1505 916 1505 851.5 1544 c 128,-1,20
 787 1583 787 1583 708 1583 c 0,21,22
 631 1583 631 1583 569 1545 c 128,-1,23
 507 1507 507 1507 471 1441 c 128,-1,24
 435 1375 435 1375 435 1291 c 2,25,-1
 435 0 l 1,26,-1
 241 0 l 1,27,-1
 241 707 l 1,28,-1
 109 707 l 1,29,-1
 109 863 l 1,30,-1
 241 863 l 1,31,-1
 241 1285 l 2,32,33
 241 1416 241 1416 303.5 1521 c 128,-1,34
 366 1626 366 1626 472 1688 c 128,-1,35
 578 1750 578 1750 710 1750 c 0,36,37
 841 1750 841 1750 946.5 1689.5 c 128,-1,38
 1052 1629 1052 1629 1114 1525.5 c 128,-1,39
 1176 1422 1176 1422 1176 1294 c 0,40,41
 1176 1170 1176 1170 1112.5 1071 c 128,-1,42
 1049 972 1049 972 937 920 c 1,43,44
 1030 883 1030 883 1097 818 c 128,-1,45
 1164 753 1164 753 1200.5 667 c 128,-1,46
 1237 581 1237 581 1237 481 c 0,47,48
 1237 337 1237 337 1167.5 221 c 128,-1,49
 1098 105 1098 105 978 37.5 c 128,-1,50
 858 -30 858 -30 707 -32 c 2,51,-1
 573 -32 l 1,0,-1
EndSplineSet
Validated: 1
EndChar

StartChar: t
Encoding: 116 116 198
Width: 780
GlyphClass: 2
Flags: W
AnchorPoint: "Anchor-1" 492 0 basechar 0
AnchorPoint: "Anchor-0" 409 1275 basechar 0
LayerCount: 2
Fore
SplineSet
489 -32 m 0,0,1
 363 -32 363 -32 293 51.5 c 128,-1,2
 223 135 223 135 223 286 c 2,3,-1
 223 877 l 1,4,-1
 109 877 l 1,5,-1
 109 1024 l 1,6,-1
 223 1024 l 1,7,-1
 223 1407 l 1,8,-1
 417 1407 l 1,9,-1
 417 1024 l 1,10,-1
 663 1024 l 1,11,-1
 663 877 l 1,12,-1
 417 877 l 1,13,-1
 417 298 l 2,14,15
 417 222 417 222 447 181 c 128,-1,16
 477 140 477 140 533 140 c 256,17,18
 589 140 589 140 633 173 c 1,19,-1
 682 18 l 1,20,21
 643 -5 643 -5 591.5 -18.5 c 128,-1,22
 540 -32 540 -32 489 -32 c 0,0,1
EndSplineSet
Validated: 1
EndChar

StartChar: tbar
Encoding: 359 359 199
Width: 780
Flags: W
LayerCount: 2
Fore
SplineSet
489 -32 m 0,0,1
 363 -32 363 -32 293 51.5 c 128,-1,2
 223 135 223 135 223 286 c 2,3,-1
 223 715 l 1,4,-1
 109 715 l 1,5,-1
 109 824 l 1,6,-1
 223 824 l 1,7,-1
 223 954 l 1,8,-1
 109 954 l 1,9,-1
 109 1062 l 1,10,-1
 223 1062 l 1,11,-1
 223 1407 l 1,12,-1
 417 1407 l 1,13,-1
 417 1062 l 1,14,-1
 663 1062 l 1,15,-1
 663 954 l 1,16,-1
 417 954 l 1,17,-1
 417 824 l 1,18,-1
 663 824 l 1,19,-1
 663 715 l 1,20,-1
 417 715 l 1,21,-1
 417 298 l 2,22,23
 417 222 417 222 447 181 c 128,-1,24
 477 140 477 140 533 140 c 256,25,26
 589 140 589 140 633 173 c 1,27,-1
 682 18 l 1,28,29
 643 -5 643 -5 591.5 -18.5 c 128,-1,30
 540 -32 540 -32 489 -32 c 0,0,1
EndSplineSet
Validated: 1
EndChar

StartChar: u
Encoding: 117 117 203
Width: 1291
GlyphClass: 2
Flags: W
AnchorPoint: "Anchor-2" 716 11 basechar 0
AnchorPoint: "Anchor-1" 645 -12 basechar 0
AnchorPoint: "Anchor-0" 646 1025 basechar 0
LayerCount: 2
Fore
SplineSet
645 -32 m 0,0,1
 398 -32 398 -32 291 74.5 c 128,-1,2
 184 181 184 181 184 429 c 2,3,-1
 184 1024 l 1,4,-1
 378 1024 l 1,5,-1
 378 469 l 2,6,7
 378 285 378 285 439 207 c 128,-1,8
 500 129 500 129 645 129 c 0,9,10
 791 129 791 129 852 207 c 128,-1,11
 913 285 913 285 913 469 c 2,12,-1
 913 1024 l 1,13,-1
 1107 1024 l 1,14,-1
 1107 429 l 2,15,16
 1107 181 1107 181 1000 74.5 c 128,-1,17
 893 -32 893 -32 645 -32 c 0,0,1
EndSplineSet
Validated: 1
EndChar

StartChar: v
Encoding: 118 118 212
Width: 1229
GlyphClass: 2
Flags: W
AnchorPoint: "Anchor-1" 615 0 basechar 0
AnchorPoint: "Anchor-0" 615 1025 basechar 0
LayerCount: 2
Fore
SplineSet
550 0 m 1,0,-1
 41 1024 l 1,1,-1
 269 1024 l 1,2,-1
 615 267 l 1,3,-1
 961 1024 l 1,4,-1
 1189 1024 l 1,5,-1
 679 0 l 1,6,-1
 550 0 l 1,0,-1
EndSplineSet
Validated: 1
EndChar

StartChar: w
Encoding: 119 119 213
Width: 1961
GlyphClass: 2
Flags: W
AnchorPoint: "Anchor-1" 980 0 basechar 0
AnchorPoint: "Anchor-0" 980 1025 basechar 0
LayerCount: 2
Fore
SplineSet
550 0 m 1,0,-1
 41 1024 l 1,1,-1
 263 1024 l 1,2,-1
 609 269 l 1,3,-1
 915 1024 l 1,4,-1
 1046 1024 l 1,5,-1
 1351 269 l 1,6,-1
 1698 1024 l 1,7,-1
 1920 1024 l 1,8,-1
 1411 0 l 1,9,-1
 1281 0 l 1,10,-1
 980 736 l 1,11,-1
 679 0 l 1,12,-1
 550 0 l 1,0,-1
EndSplineSet
Validated: 1
EndChar

StartChar: x
Encoding: 120 120 218
Width: 1193
GlyphClass: 2
Flags: W
AnchorPoint: "Anchor-1" 597 0 basechar 0
AnchorPoint: "Anchor-0" 597 1025 basechar 0
LayerCount: 2
Fore
SplineSet
41 0 m 1,0,-1
 475 530 l 1,1,-1
 100 1024 l 1,2,-1
 324 1024 l 1,3,-1
 597 665 l 1,4,-1
 869 1024 l 1,5,-1
 1093 1024 l 1,6,-1
 718 530 l 1,7,-1
 1152 0 l 1,8,-1
 921 0 l 1,9,-1
 597 402 l 1,10,-1
 272 0 l 1,11,-1
 41 0 l 1,0,-1
EndSplineSet
Validated: 1
EndChar

StartChar: y
Encoding: 121 121 219
Width: 1241
GlyphClass: 2
Flags: W
AnchorPoint: "Anchor-1" 621 0 basechar 0
AnchorPoint: "Anchor-0" 621 1025 basechar 0
LayerCount: 2
Fore
SplineSet
251 -520 m 1,0,-1
 526 56 l 1,1,-1
 39 1024 l 1,2,-1
 260 1024 l 1,3,-1
 638 249 l 1,4,-1
 977 1024 l 1,5,-1
 1198 1024 l 1,6,-1
 471 -520 l 1,7,-1
 251 -520 l 1,0,-1
EndSplineSet
Validated: 1
EndChar

StartChar: z
Encoding: 122 122 224
Width: 1195
GlyphClass: 2
Flags: W
AnchorPoint: "Anchor-1" 597 0 basechar 0
AnchorPoint: "Anchor-0" 597 1025 basechar 0
LayerCount: 2
Fore
SplineSet
69 0 m 1,0,-1
 769 870 l 1,1,-1
 148 870 l 1,2,-1
 148 1024 l 1,3,-1
 1110 1024 l 1,4,-1
 409 154 l 1,5,-1
 1084 154 l 1,6,-1
 1084 0 l 1,7,-1
 69 0 l 1,0,-1
EndSplineSet
Validated: 1
EndChar

StartChar: f_f
Encoding: 65538 -1 228
Width: 1398
GlyphClass: 3
LigCaretCntFixed: 1
Flags: W
LayerCount: 2
Fore
SplineSet
250 0 m 1,0,-1
 250 877 l 1,1,-1
 137 877 l 1,2,-1
 137 1024 l 1,3,-1
 250 1024 l 1,4,-1
 250 1357 l 2,5,6
 250 1486 250 1486 288 1573.5 c 128,-1,7
 326 1661 326 1661 396 1705.5 c 128,-1,8
 466 1750 466 1750 561 1750 c 0,9,10
 630 1750 630 1750 681 1731.5 c 128,-1,11
 732 1713 732 1713 763 1692 c 1,12,-1
 693 1555 l 1,13,14
 675 1565 675 1565 649.5 1572 c 128,-1,15
 624 1579 624 1579 592 1579 c 0,16,17
 514 1579 514 1579 479 1528 c 128,-1,18
 444 1477 444 1477 444 1358 c 2,19,-1
 444 1024 l 1,20,-1
 786 1024 l 1,21,-1
 786 1357 l 2,22,23
 786 1486 786 1486 824 1573.5 c 128,-1,24
 862 1661 862 1661 931.5 1705.5 c 128,-1,25
 1001 1750 1001 1750 1097 1750 c 0,26,27
 1175 1750 1175 1750 1228.5 1728 c 128,-1,28
 1282 1706 1282 1706 1312 1683 c 1,29,-1
 1244 1545 l 1,30,31
 1225 1559 1225 1559 1196 1569 c 128,-1,32
 1167 1579 1167 1579 1128 1579 c 0,33,34
 1050 1579 1050 1579 1015 1528 c 128,-1,35
 980 1477 980 1477 980 1358 c 2,36,-1
 980 1024 l 1,37,-1
 1235 1024 l 1,38,-1
 1235 877 l 1,39,-1
 980 877 l 1,40,-1
 980 0 l 1,41,-1
 786 0 l 1,42,-1
 786 877 l 1,43,-1
 444 877 l 1,44,-1
 444 0 l 1,45,-1
 250 0 l 1,0,-1
EndSplineSet
Validated: 1
Ligature2: "'liga' Standard Ligatures in Latin lookup 18 subtable" f f
LCarets2: 1 671
EndChar

StartChar: f_f_i
Encoding: 65539 -1 229
Width: 1695
GlyphClass: 3
LigCaretCntFixed: 1
Flags: W
LayerCount: 2
Fore
SplineSet
258 0 m 1,0,-1
 258 877 l 1,1,-1
 145 877 l 1,2,-1
 145 1024 l 1,3,-1
 258 1024 l 1,4,-1
 258 1357 l 2,5,6
 258 1486 258 1486 296 1573.5 c 128,-1,7
 334 1661 334 1661 404 1705.5 c 128,-1,8
 474 1750 474 1750 569 1750 c 0,9,10
 638 1750 638 1750 689 1731.5 c 128,-1,11
 740 1713 740 1713 771 1692 c 1,12,-1
 701 1555 l 1,13,14
 683 1565 683 1565 657.5 1572 c 128,-1,15
 632 1579 632 1579 600 1579 c 0,16,17
 523 1579 523 1579 487.5 1528 c 128,-1,18
 452 1477 452 1477 452 1358 c 2,19,-1
 452 1024 l 1,20,-1
 795 1024 l 1,21,-1
 795 1357 l 2,22,23
 795 1486 795 1486 833 1573.5 c 128,-1,24
 871 1661 871 1661 941 1705.5 c 128,-1,25
 1011 1750 1011 1750 1107 1750 c 0,26,27
 1177 1750 1177 1750 1240 1730.5 c 128,-1,28
 1303 1711 1303 1711 1352.5 1679 c 128,-1,29
 1402 1647 1402 1647 1433 1607 c 1,30,-1
 1352 1482 l 1,31,32
 1323 1523 1323 1523 1267.5 1552 c 128,-1,33
 1212 1581 1212 1581 1158 1581 c 0,34,35
 1071 1581 1071 1581 1030 1529 c 128,-1,36
 989 1477 989 1477 989 1358 c 2,37,-1
 989 1024 l 1,38,-1
 1506 1024 l 1,39,-1
 1506 0 l 1,40,-1
 1312 0 l 1,41,-1
 1312 877 l 1,42,-1
 989 877 l 1,43,-1
 989 0 l 1,44,-1
 795 0 l 1,45,-1
 795 877 l 1,46,-1
 452 877 l 1,47,-1
 452 0 l 1,48,-1
 258 0 l 1,0,-1
EndSplineSet
Validated: 1
Ligature2: "'liga' Standard Ligatures in Latin lookup 18 subtable" f f i
LCarets2: 2 563 1127
EndChar

StartChar: f_f_j
Encoding: 65540 -1 230
Width: 1590
Flags: W
LayerCount: 2
Fore
SplineSet
1144 -550 m 0,0,1
 1064 -550 1064 -550 1012 -532.5 c 128,-1,2
 960 -515 960 -515 933 -496 c 1,3,-1
 992 -340 l 1,4,5
 1011 -356 1011 -356 1039.5 -366.5 c 128,-1,6
 1068 -377 1068 -377 1104 -377 c 0,7,8
 1171 -377 1171 -377 1208 -330.5 c 128,-1,9
 1245 -284 1245 -284 1245 -184 c 2,10,-1
 1245 877 l 1,11,-1
 922 877 l 1,12,-1
 922 0 l 1,13,-1
 728 0 l 1,14,-1
 728 877 l 1,15,-1
 385 877 l 1,16,-1
 385 0 l 1,17,-1
 191 0 l 1,18,-1
 191 877 l 1,19,-1
 78 877 l 1,20,-1
 78 1024 l 1,21,-1
 191 1024 l 1,22,-1
 191 1357 l 2,23,24
 191 1486 191 1486 229 1573.5 c 128,-1,25
 267 1661 267 1661 337 1705.5 c 128,-1,26
 407 1750 407 1750 502 1750 c 0,27,28
 571 1750 571 1750 622 1731.5 c 128,-1,29
 673 1713 673 1713 704 1692 c 1,30,-1
 634 1555 l 1,31,32
 616 1565 616 1565 590.5 1572 c 128,-1,33
 565 1579 565 1579 533 1579 c 0,34,35
 455 1579 455 1579 420 1528 c 128,-1,36
 385 1477 385 1477 385 1358 c 2,37,-1
 385 1024 l 1,38,-1
 728 1024 l 1,39,-1
 728 1357 l 2,40,41
 728 1486 728 1486 766 1573.5 c 128,-1,42
 804 1661 804 1661 874 1705.5 c 128,-1,43
 944 1750 944 1750 1039 1750 c 0,44,45
 1109 1750 1109 1750 1172 1730.5 c 128,-1,46
 1235 1711 1235 1711 1285 1679 c 128,-1,47
 1335 1647 1335 1647 1366 1607 c 1,48,-1
 1284 1482 l 1,49,50
 1256 1523 1256 1523 1200.5 1552 c 128,-1,51
 1145 1581 1145 1581 1091 1581 c 0,52,53
 1004 1581 1004 1581 963 1529 c 128,-1,54
 922 1477 922 1477 922 1358 c 2,55,-1
 922 1024 l 1,56,-1
 1439 1024 l 1,57,-1
 1439 -210 l 2,58,59
 1439 -286 1439 -286 1421.5 -348.5 c 128,-1,60
 1404 -411 1404 -411 1367.5 -456 c 128,-1,61
 1331 -501 1331 -501 1275.5 -525.5 c 128,-1,62
 1220 -550 1220 -550 1144 -550 c 0,0,1
EndSplineSet
Validated: 1
Ligature2: "'dlig' Discretionary Ligatures in Latin lookup 17 subtable" f f j
EndChar

StartChar: f_f_l
Encoding: 65541 -1 231
Width: 1757
GlyphClass: 3
LigCaretCntFixed: 1
Flags: W
LayerCount: 2
Fore
SplineSet
243 0 m 1,0,-1
 243 877 l 1,1,-1
 130 877 l 1,2,-1
 130 1024 l 1,3,-1
 243 1024 l 1,4,-1
 243 1357 l 2,5,6
 243 1486 243 1486 281 1573.5 c 128,-1,7
 319 1661 319 1661 389 1705.5 c 128,-1,8
 459 1750 459 1750 554 1750 c 0,9,10
 623 1750 623 1750 674 1731.5 c 128,-1,11
 725 1713 725 1713 756 1692 c 1,12,-1
 686 1555 l 1,13,14
 668 1565 668 1565 642.5 1572 c 128,-1,15
 617 1579 617 1579 585 1579 c 0,16,17
 508 1579 508 1579 472.5 1528 c 128,-1,18
 437 1477 437 1477 437 1358 c 2,19,-1
 437 1024 l 1,20,-1
 779 1024 l 1,21,-1
 779 1357 l 2,22,23
 779 1486 779 1486 817 1573.5 c 128,-1,24
 855 1661 855 1661 924.5 1705.5 c 128,-1,25
 994 1750 994 1750 1090 1750 c 0,26,27
 1149 1750 1149 1750 1192 1737.5 c 128,-1,28
 1235 1725 1235 1725 1261 1711 c 1,29,-1
 1223 1555 l 1,30,31
 1204 1565 1204 1565 1178 1572 c 128,-1,32
 1152 1579 1152 1579 1121 1579 c 0,33,34
 1044 1579 1044 1579 1008.5 1528 c 128,-1,35
 973 1477 973 1477 973 1358 c 2,36,-1
 973 1024 l 1,37,-1
 1228 1024 l 1,38,-1
 1228 877 l 1,39,-1
 973 877 l 1,40,-1
 973 0 l 1,41,-1
 779 0 l 1,42,-1
 779 877 l 1,43,-1
 437 877 l 1,44,-1
 437 0 l 1,45,-1
 243 0 l 1,0,-1
1330 0 m 1,46,-1
 1330 1720 l 1,47,-1
 1524 1720 l 1,48,-1
 1524 0 l 1,49,-1
 1330 0 l 1,46,-1
EndSplineSet
Validated: 1
Ligature2: "'liga' Standard Ligatures in Latin lookup 18 subtable" f f l
LCarets2: 2 568 1152
EndChar

StartChar: f_f_t
Encoding: 65542 -1 232
Width: 1931
Flags: W
LayerCount: 2
Fore
SplineSet
1618 -32 m 0,0,1
 1535 -32 1535 -32 1482.5 -4 c 128,-1,2
 1430 24 1430 24 1401.5 70 c 128,-1,3
 1373 116 1373 116 1362.5 172.5 c 128,-1,4
 1352 229 1352 229 1352 286 c 2,5,-1
 1352 877 l 1,6,-1
 995 877 l 1,7,-1
 995 0 l 1,8,-1
 801 0 l 1,9,-1
 801 877 l 1,10,-1
 459 877 l 1,11,-1
 459 0 l 1,12,-1
 265 0 l 1,13,-1
 265 877 l 1,14,-1
 152 877 l 1,15,-1
 152 1024 l 1,16,-1
 265 1024 l 1,17,-1
 265 1357 l 2,18,19
 265 1486 265 1486 303 1573.5 c 128,-1,20
 341 1661 341 1661 411 1705.5 c 128,-1,21
 481 1750 481 1750 576 1750 c 0,22,23
 645 1750 645 1750 696 1731.5 c 128,-1,24
 747 1713 747 1713 778 1692 c 1,25,-1
 708 1555 l 1,26,27
 690 1565 690 1565 664.5 1572 c 128,-1,28
 639 1579 639 1579 607 1579 c 0,29,30
 529 1579 529 1579 494 1528 c 128,-1,31
 459 1477 459 1477 459 1358 c 2,32,-1
 459 1024 l 1,33,-1
 801 1024 l 1,34,-1
 801 1357 l 2,35,36
 801 1486 801 1486 839 1573.5 c 128,-1,37
 877 1661 877 1661 946.5 1705.5 c 128,-1,38
 1016 1750 1016 1750 1112 1750 c 0,39,40
 1181 1750 1181 1750 1231.5 1731.5 c 128,-1,41
 1282 1713 1282 1713 1312 1692 c 1,42,-1
 1242 1557 l 1,43,44
 1224 1566 1224 1566 1199 1572.5 c 128,-1,45
 1174 1579 1174 1579 1143 1579 c 0,46,47
 1065 1579 1065 1579 1030 1528 c 128,-1,48
 995 1477 995 1477 995 1358 c 2,49,-1
 995 1024 l 1,50,-1
 1352 1024 l 1,51,-1
 1352 1407 l 1,52,-1
 1546 1407 l 1,53,-1
 1546 1024 l 1,54,-1
 1792 1024 l 1,55,-1
 1792 877 l 1,56,-1
 1546 877 l 1,57,-1
 1546 317 l 2,58,59
 1546 229 1546 229 1572.5 184.5 c 128,-1,60
 1599 140 1599 140 1662 140 c 0,61,62
 1694 140 1694 140 1720.5 151 c 128,-1,63
 1747 162 1747 162 1762 173 c 1,64,-1
 1810 18 l 1,65,66
 1782 1 1782 1 1731.5 -15.5 c 128,-1,67
 1681 -32 1681 -32 1618 -32 c 0,0,1
EndSplineSet
Validated: 1
Ligature2: "'dlig' Discretionary Ligatures in Latin lookup 17 subtable" f f t
EndChar

StartChar: f_j
Encoding: 65543 -1 233
Width: 1053
Flags: W
LayerCount: 2
Fore
SplineSet
607 -550 m 0,0,1
 527 -550 527 -550 475 -532.5 c 128,-1,2
 423 -515 423 -515 396 -496 c 1,3,-1
 455 -340 l 1,4,5
 473 -356 473 -356 502 -366.5 c 128,-1,6
 531 -377 531 -377 566 -377 c 0,7,8
 634 -377 634 -377 671 -330.5 c 128,-1,9
 708 -284 708 -284 708 -184 c 2,10,-1
 708 877 l 1,11,-1
 384 877 l 1,12,-1
 384 0 l 1,13,-1
 190 0 l 1,14,-1
 190 877 l 1,15,-1
 77 877 l 1,16,-1
 77 1024 l 1,17,-1
 190 1024 l 1,18,-1
 190 1357 l 2,19,20
 190 1486 190 1486 228 1573.5 c 128,-1,21
 266 1661 266 1661 336.5 1705.5 c 128,-1,22
 407 1750 407 1750 502 1750 c 0,23,24
 572 1750 572 1750 635 1730.5 c 128,-1,25
 698 1711 698 1711 748 1679 c 128,-1,26
 798 1647 798 1647 829 1607 c 1,27,-1
 747 1482 l 1,28,29
 719 1523 719 1523 663.5 1552 c 128,-1,30
 608 1581 608 1581 554 1581 c 0,31,32
 466 1581 466 1581 425 1529 c 128,-1,33
 384 1477 384 1477 384 1358 c 2,34,-1
 384 1024 l 1,35,-1
 902 1024 l 1,36,-1
 902 -210 l 2,37,38
 902 -286 902 -286 884.5 -348.5 c 128,-1,39
 867 -411 867 -411 830.5 -456 c 128,-1,40
 794 -501 794 -501 738.5 -525.5 c 128,-1,41
 683 -550 683 -550 607 -550 c 0,0,1
EndSplineSet
Validated: 1
Ligature2: "'dlig' Discretionary Ligatures in Latin lookup 17 subtable" f j
EndChar

StartChar: f_t
Encoding: 65544 -1 234
Width: 1365
Flags: W
LayerCount: 2
Fore
SplineSet
1067 -32 m 0,0,1
 984 -32 984 -32 931.5 -4 c 128,-1,2
 879 24 879 24 850.5 70 c 128,-1,3
 822 116 822 116 811.5 172.5 c 128,-1,4
 801 229 801 229 801 286 c 2,5,-1
 801 877 l 1,6,-1
 444 877 l 1,7,-1
 444 0 l 1,8,-1
 250 0 l 1,9,-1
 250 877 l 1,10,-1
 137 877 l 1,11,-1
 137 1024 l 1,12,-1
 250 1024 l 1,13,-1
 250 1357 l 2,14,15
 250 1486 250 1486 288 1573.5 c 128,-1,16
 326 1661 326 1661 396 1705.5 c 128,-1,17
 466 1750 466 1750 561 1750 c 0,18,19
 630 1750 630 1750 680.5 1731.5 c 128,-1,20
 731 1713 731 1713 761 1692 c 1,21,-1
 691 1557 l 1,22,23
 673 1566 673 1566 648 1572.5 c 128,-1,24
 623 1579 623 1579 592 1579 c 0,25,26
 514 1579 514 1579 479 1528 c 128,-1,27
 444 1477 444 1477 444 1358 c 2,28,-1
 444 1024 l 1,29,-1
 801 1024 l 1,30,-1
 801 1407 l 1,31,-1
 995 1407 l 1,32,-1
 995 1024 l 1,33,-1
 1241 1024 l 1,34,-1
 1241 877 l 1,35,-1
 995 877 l 1,36,-1
 995 317 l 2,37,38
 995 229 995 229 1021.5 184.5 c 128,-1,39
 1048 140 1048 140 1111 140 c 0,40,41
 1143 140 1143 140 1169 151 c 128,-1,42
 1195 162 1195 162 1211 173 c 1,43,-1
 1259 18 l 1,44,45
 1231 1 1231 1 1180.5 -15.5 c 128,-1,46
 1130 -32 1130 -32 1067 -32 c 0,0,1
EndSplineSet
Validated: 1
Ligature2: "'dlig' Discretionary Ligatures in Latin lookup 17 subtable" f t
EndChar

StartChar: fi
Encoding: 64257 64257 235
Width: 1100
GlyphClass: 3
LigCaretCntFixed: 1
Flags: W
LayerCount: 2
Fore
SplineSet
229 0 m 1,0,-1
 229 877 l 1,1,-1
 116 877 l 1,2,-1
 116 1024 l 1,3,-1
 229 1024 l 1,4,-1
 229 1357 l 2,5,6
 229 1486 229 1486 267 1573.5 c 128,-1,7
 305 1661 305 1661 375.5 1705.5 c 128,-1,8
 446 1750 446 1750 541 1750 c 0,9,10
 611 1750 611 1750 674 1730.5 c 128,-1,11
 737 1711 737 1711 786.5 1679 c 128,-1,12
 836 1647 836 1647 867 1607 c 1,13,-1
 786 1482 l 1,14,15
 758 1523 758 1523 702.5 1552 c 128,-1,16
 647 1581 647 1581 592 1581 c 0,17,18
 505 1581 505 1581 464 1529 c 128,-1,19
 423 1477 423 1477 423 1358 c 2,20,-1
 423 1024 l 1,21,-1
 942 1024 l 1,22,-1
 942 0 l 1,23,-1
 748 0 l 1,24,-1
 748 877 l 1,25,-1
 423 877 l 1,26,-1
 423 0 l 1,27,-1
 229 0 l 1,0,-1
EndSplineSet
Validated: 1
Ligature2: "'liga' Standard Ligatures in Latin lookup 18 subtable" f i
LCarets2: 1 557
EndChar

StartChar: fl
Encoding: 64258 64258 236
Width: 1219
GlyphClass: 3
LigCaretCntFixed: 1
Flags: W
LayerCount: 2
Fore
SplineSet
243 0 m 1,0,-1
 243 877 l 1,1,-1
 129 877 l 1,2,-1
 129 1024 l 1,3,-1
 243 1024 l 1,4,-1
 243 1357 l 2,5,6
 243 1486 243 1486 280.5 1573.5 c 128,-1,7
 318 1661 318 1661 388 1705.5 c 128,-1,8
 458 1750 458 1750 553 1750 c 0,9,10
 612 1750 612 1750 655 1737.5 c 128,-1,11
 698 1725 698 1725 723 1711 c 1,12,-1
 686 1555 l 1,13,14
 667 1565 667 1565 641 1572 c 128,-1,15
 615 1579 615 1579 584 1579 c 0,16,17
 506 1579 506 1579 471 1528 c 128,-1,18
 436 1477 436 1477 436 1358 c 2,19,-1
 436 1024 l 1,20,-1
 691 1024 l 1,21,-1
 691 877 l 1,22,-1
 436 877 l 1,23,-1
 436 0 l 1,24,-1
 243 0 l 1,0,-1
794 0 m 1,25,-1
 794 1720 l 1,26,-1
 986 1720 l 1,27,-1
 986 0 l 1,28,-1
 794 0 l 1,25,-1
EndSplineSet
Validated: 1
Ligature2: "'liga' Standard Ligatures in Latin lookup 18 subtable" f l
LCarets2: 1 600
EndChar

StartChar: ordfeminine
Encoding: 170 170 237
Width: 1064
Flags: W
LayerCount: 2
Fore
SplineSet
476 1008 m 0,0,1
 388 1008 388 1008 316.5 1051.5 c 128,-1,2
 245 1095 245 1095 203.5 1171 c 128,-1,3
 162 1247 162 1247 162 1344 c 0,4,5
 162 1440 162 1440 203 1516 c 128,-1,6
 244 1592 244 1592 316 1636 c 128,-1,7
 388 1680 388 1680 480 1680 c 0,8,9
 558 1680 558 1680 623 1644 c 128,-1,10
 688 1608 688 1608 725 1545 c 1,11,-1
 725 1660 l 1,12,-1
 845 1660 l 1,13,-1
 845 1028 l 1,14,-1
 725 1028 l 1,15,-1
 725 1147 l 1,16,17
 688 1084 688 1084 623 1046 c 128,-1,18
 558 1008 558 1008 476 1008 c 0,0,1
508 1110 m 256,19,20
 572 1110 572 1110 621.5 1140.5 c 128,-1,21
 671 1171 671 1171 699.5 1224 c 128,-1,22
 728 1277 728 1277 728 1344 c 0,23,24
 728 1447 728 1447 665.5 1512.5 c 128,-1,25
 603 1578 603 1578 508 1578 c 0,26,27
 445 1578 445 1578 395 1548 c 128,-1,28
 345 1518 345 1518 316 1465.5 c 128,-1,29
 287 1413 287 1413 287 1344 c 0,30,31
 287 1277 287 1277 315.5 1224 c 128,-1,32
 344 1171 344 1171 394 1140.5 c 128,-1,33
 444 1110 444 1110 508 1110 c 256,19,20
EndSplineSet
Validated: 1
EndChar

StartChar: ordmasculine
Encoding: 186 186 238
Width: 992
Flags: W
LayerCount: 2
Fore
SplineSet
496 1006 m 256,0,1
 396 1006 396 1006 315.5 1049 c 128,-1,2
 235 1092 235 1092 188.5 1168 c 128,-1,3
 142 1244 142 1244 142 1343 c 0,4,5
 142 1443 142 1443 188.5 1518.5 c 128,-1,6
 235 1594 235 1594 315.5 1637 c 128,-1,7
 396 1680 396 1680 496 1680 c 256,8,9
 596 1680 596 1680 675.5 1637 c 128,-1,10
 755 1594 755 1594 802 1518.5 c 128,-1,11
 849 1443 849 1443 849 1343 c 0,12,13
 849 1244 849 1244 802 1168 c 128,-1,14
 755 1092 755 1092 675.5 1049 c 128,-1,15
 596 1006 596 1006 496 1006 c 256,0,1
495 1109 m 0,16,17
 561 1109 561 1109 613 1139 c 128,-1,18
 665 1169 665 1169 695 1222 c 128,-1,19
 725 1275 725 1275 725 1343 c 256,20,21
 725 1411 725 1411 695 1464 c 128,-1,22
 665 1517 665 1517 613.5 1547 c 128,-1,23
 562 1577 562 1577 496 1577 c 256,24,25
 430 1577 430 1577 378 1547 c 128,-1,26
 326 1517 326 1517 296 1464 c 128,-1,27
 266 1411 266 1411 266 1343 c 256,28,29
 266 1275 266 1275 296 1222 c 128,-1,30
 326 1169 326 1169 378 1139 c 128,-1,31
 430 1109 430 1109 495 1109 c 0,16,17
EndSplineSet
Validated: 1
EndChar

StartChar: uni0394
Encoding: 916 916 239
Width: 1586
Flags: W
LayerCount: 2
Fore
SplineSet
289 0 m 1,0,-1
 256 22 l 1,1,-1
 754 1295 l 1,2,-1
 832 1295 l 1,3,-1
 1330 22 l 1,4,-1
 1297 0 l 1,5,-1
 289 0 l 1,0,-1
442 133 m 1,6,-1
 1144 133 l 1,7,-1
 780 1119 l 1,8,-1
 806 1119 l 1,9,-1
 442 133 l 1,6,-1
EndSplineSet
Validated: 5
EndChar

StartChar: uni03A9
Encoding: 937 937 240
Width: 1222
Flags: W
LayerCount: 2
Fore
SplineSet
123 0 m 1,0,-1
 123 142 l 1,1,-1
 353 125 l 1,2,3
 247 199 247 199 187.5 319 c 128,-1,4
 128 439 128 439 128 583 c 0,5,6
 128 737 128 737 192 854.5 c 128,-1,7
 256 972 256 972 365 1038.5 c 128,-1,8
 474 1105 474 1105 610 1105 c 0,9,10
 747 1105 747 1105 856.5 1038 c 128,-1,11
 966 971 966 971 1029.5 853 c 128,-1,12
 1093 735 1093 735 1093 583 c 0,13,14
 1093 438 1093 438 1033 317.5 c 128,-1,15
 973 197 973 197 869 125 c 1,16,-1
 1098 142 l 1,17,-1
 1098 0 l 1,18,-1
 655 0 l 1,19,-1
 655 101 l 1,20,-1
 666 106 l 1,21,22
 712 121 712 121 754.5 164 c 128,-1,23
 797 207 797 207 831 268.5 c 128,-1,24
 865 330 865 330 884.5 402.5 c 128,-1,25
 904 475 904 475 904 551 c 0,26,27
 904 658 904 658 865.5 744.5 c 128,-1,28
 827 831 827 831 761 882 c 128,-1,29
 695 933 695 933 611 933 c 0,30,31
 528 933 528 933 461.5 882.5 c 128,-1,32
 395 832 395 832 356.5 745 c 128,-1,33
 318 658 318 658 318 550 c 0,34,35
 318 474 318 474 337.5 401 c 128,-1,36
 357 328 357 328 390.5 266.5 c 128,-1,37
 424 205 424 205 466.5 162.5 c 128,-1,38
 509 120 509 120 555 106 c 1,39,-1
 566 101 l 1,40,-1
 566 0 l 1,41,-1
 123 0 l 1,0,-1
EndSplineSet
Validated: 1
EndChar

StartChar: uni03BC
Encoding: 956 956 241
Width: 1520
Flags: W
LayerCount: 2
Fore
SplineSet
275 -320 m 1,0,1
 275 -209 275 -209 281.5 -120 c 128,-1,2
 288 -31 288 -31 297 52 c 128,-1,3
 306 135 306 135 312.5 226.5 c 128,-1,4
 319 318 319 318 319 433 c 2,5,-1
 319 1025 l 1,6,-1
 513 1025 l 1,7,-1
 513 421 l 2,8,9
 513 282 513 282 578.5 202 c 128,-1,10
 644 122 644 122 778 122 c 0,11,12
 862 122 862 122 923.5 160 c 128,-1,13
 985 198 985 198 1018 257 c 128,-1,14
 1051 316 1051 316 1051 378 c 2,15,-1
 1051 1025 l 1,16,-1
 1245 1025 l 1,17,-1
 1245 0 l 1,18,-1
 1051 0 l 1,19,-1
 1051 132 l 1,20,21
 1021 78 1021 78 968.5 41.5 c 128,-1,22
 916 5 916 5 855 -13.5 c 128,-1,23
 794 -32 794 -32 737 -32 c 0,24,25
 653 -32 653 -32 598 -4.5 c 128,-1,26
 543 23 543 23 512 70 c 1,27,-1
 512 -320 l 1,28,-1
 275 -320 l 1,0,1
EndSplineSet
Validated: 1
EndChar

StartChar: pi
Encoding: 960 960 242
Width: 1310
Flags: W
LayerCount: 2
Fore
SplineSet
373 0 m 1,0,-1
 373 881 l 1,1,-1
 205 881 l 1,2,-1
 205 1025 l 1,3,-1
 1124 1025 l 1,4,-1
 1124 881 l 1,5,-1
 956 881 l 1,6,-1
 956 251 l 2,7,8
 956 196 956 196 977 175.5 c 128,-1,9
 998 155 998 155 1054 155 c 1,10,-1
 1054 0 l 1,11,12
 917 0 917 0 859 50.5 c 128,-1,13
 801 101 801 101 801 222 c 2,14,-1
 801 881 l 1,15,-1
 528 881 l 1,16,-1
 528 0 l 1,17,-1
 373 0 l 1,0,-1
EndSplineSet
Validated: 1
EndChar

StartChar: zero
Encoding: 48 48 243
Width: 1655
Flags: W
LayerCount: 2
Fore
SplineSet
828 -32 m 256,0,1
 626 -32 626 -32 474 75.5 c 128,-1,2
 322 183 322 183 237.5 376 c 128,-1,3
 153 569 153 569 153 824 c 0,4,5
 153 1080 153 1080 237.5 1272.5 c 128,-1,6
 322 1465 322 1465 474 1572.5 c 128,-1,7
 626 1680 626 1680 828 1680 c 256,8,9
 1030 1680 1030 1680 1181.5 1572.5 c 128,-1,10
 1333 1465 1333 1465 1417.5 1272.5 c 128,-1,11
 1502 1080 1502 1080 1502 824 c 0,12,13
 1502 569 1502 569 1417.5 376 c 128,-1,14
 1333 183 1333 183 1181.5 75.5 c 128,-1,15
 1030 -32 1030 -32 828 -32 c 256,0,1
828 149 m 256,16,17
 967 149 967 149 1070 232 c 128,-1,18
 1173 315 1173 315 1230 467 c 128,-1,19
 1287 619 1287 619 1287 824 c 0,20,21
 1287 1030 1287 1030 1230 1181.5 c 128,-1,22
 1173 1333 1173 1333 1070 1416 c 128,-1,23
 967 1499 967 1499 828 1499 c 256,24,25
 689 1499 689 1499 585.5 1416 c 128,-1,26
 482 1333 482 1333 425 1181.5 c 128,-1,27
 368 1030 368 1030 368 824 c 0,28,29
 368 619 368 619 425 467 c 128,-1,30
 482 315 482 315 585.5 232 c 128,-1,31
 689 149 689 149 828 149 c 256,16,17
EndSplineSet
Validated: 1
Substitution2: "'tnum' Tabular Numbers lookup 19-1" zero.tnum
Substitution2: "'frac' Diagonal Fractions in Latin lookup 11 subtable" zero.numr
Substitution2: "'dnom' Denominators in Latin lookup 9 subtable" zero.dnom
Substitution2: "'numr' Numerators in Latin lookup 8 subtable" zero.numr
AlternateSubs2: "'aalt' Access All Alternates in Latin lookup 1 subtable" zero.dnom zero.numr
EndChar

StartChar: one
Encoding: 49 49 244
Width: 741
Flags: W
LayerCount: 2
Fore
SplineSet
292 0 m 1,0,-1
 292 1450 l 1,1,-1
 109 1450 l 1,2,-1
 109 1650 l 1,3,-1
 495 1650 l 1,4,-1
 495 0 l 1,5,-1
 292 0 l 1,0,-1
EndSplineSet
Validated: 1
Substitution2: "'tnum' Tabular Numbers lookup 19-1" one.tnum
Substitution2: "'frac' Diagonal Fractions in Latin lookup 11 subtable" one.numr
Substitution2: "'dnom' Denominators in Latin lookup 9 subtable" one.dnom
Substitution2: "'numr' Numerators in Latin lookup 8 subtable" one.numr
Substitution2: "'sups' Superscript in Latin lookup 7 subtable" uni00B9
AlternateSubs2: "'aalt' Access All Alternates in Latin lookup 1 subtable" one.dnom one.numr uni00B9
EndChar

StartChar: two
Encoding: 50 50 245
Width: 1452
Flags: W
LayerCount: 2
Fore
SplineSet
108 0 m 1,0,-1
 108 99 l 1,1,2
 328 270 328 270 488 404 c 128,-1,3
 648 538 648 538 757 643.5 c 128,-1,4
 866 749 866 749 931.5 833.5 c 128,-1,5
 997 918 997 918 1025.5 990 c 128,-1,6
 1054 1062 1054 1062 1054 1130 c 0,7,8
 1054 1231 1054 1231 1006 1313.5 c 128,-1,9
 958 1396 958 1396 876.5 1445 c 128,-1,10
 795 1494 795 1494 694 1494 c 0,11,12
 595 1494 595 1494 513 1445 c 128,-1,13
 431 1396 431 1396 376.5 1308 c 128,-1,14
 322 1220 322 1220 305 1103 c 1,15,-1
 128 1173 l 1,16,17
 145 1284 145 1284 194.5 1377 c 128,-1,18
 244 1470 244 1470 320.5 1538 c 128,-1,19
 397 1606 397 1606 494.5 1643.5 c 128,-1,20
 592 1681 592 1681 705 1681 c 0,21,22
 866 1681 866 1681 995 1609.5 c 128,-1,23
 1124 1538 1124 1538 1199 1414.5 c 128,-1,24
 1274 1291 1274 1291 1274 1134 c 0,25,26
 1274 1054 1274 1054 1250.5 977 c 128,-1,27
 1227 900 1227 900 1173.5 817.5 c 128,-1,28
 1120 735 1120 735 1030.5 641.5 c 128,-1,29
 941 548 941 548 810.5 436 c 128,-1,30
 680 324 680 324 501 186 c 1,31,-1
 1304 186 l 1,32,-1
 1304 0 l 1,33,-1
 108 0 l 1,0,-1
EndSplineSet
Validated: 1
Substitution2: "'tnum' Tabular Numbers lookup 19-1" two.tnum
Substitution2: "'frac' Diagonal Fractions in Latin lookup 11 subtable" two.numr
Substitution2: "'dnom' Denominators in Latin lookup 9 subtable" two.dnom
Substitution2: "'numr' Numerators in Latin lookup 8 subtable" two.numr
Substitution2: "'sups' Superscript in Latin lookup 7 subtable" uni00B2
AlternateSubs2: "'aalt' Access All Alternates in Latin lookup 1 subtable" two.dnom two.numr uni00B2
EndChar

StartChar: three
Encoding: 51 51 246
Width: 1341
Flags: W
LayerCount: 2
Fore
SplineSet
646 -32 m 0,0,1
 499 -32 499 -32 381.5 21 c 128,-1,2
 264 74 264 74 189.5 169 c 128,-1,3
 115 264 115 264 96 390 c 1,4,-1
 288 468 l 1,5,6
 291 374 291 374 337 302 c 128,-1,7
 383 230 383 230 463 190 c 128,-1,8
 543 150 543 150 646 150 c 0,9,10
 795 150 795 150 884 232.5 c 128,-1,11
 973 315 973 315 973 448 c 0,12,13
 973 543 973 543 929.5 619 c 128,-1,14
 886 695 886 695 813 739.5 c 128,-1,15
 740 784 740 784 651 784 c 0,16,17
 612 784 612 784 585 775 c 1,18,-1
 585 920 l 1,19,-1
 646 920 l 2,20,21
 733 920 733 920 803 962 c 128,-1,22
 873 1004 873 1004 914 1073.5 c 128,-1,23
 955 1143 955 1143 955 1224 c 256,24,25
 955 1305 955 1305 915 1370 c 128,-1,26
 875 1435 875 1435 808 1473 c 128,-1,27
 741 1511 741 1511 660 1511 c 0,28,29
 578 1511 578 1511 509.5 1472 c 128,-1,30
 441 1433 441 1433 398 1367 c 128,-1,31
 355 1301 355 1301 350 1218 c 1,32,-1
 183 1284 l 1,33,34
 199 1400 199 1400 266 1489.5 c 128,-1,35
 333 1579 333 1579 436.5 1629.5 c 128,-1,36
 540 1680 540 1680 663 1680 c 0,37,38
 800 1680 800 1680 909 1620 c 128,-1,39
 1018 1560 1018 1560 1081 1458 c 128,-1,40
 1144 1356 1144 1356 1144 1228 c 0,41,42
 1144 1147 1144 1147 1115.5 1075 c 128,-1,43
 1087 1003 1087 1003 1035 947.5 c 128,-1,44
 983 892 983 892 913 860 c 1,45,46
 990 831 990 831 1050.5 773 c 128,-1,47
 1111 715 1111 715 1145.5 633.5 c 128,-1,48
 1180 552 1180 552 1180 451 c 0,49,50
 1180 313 1180 313 1114.5 203.5 c 128,-1,51
 1049 94 1049 94 929 31 c 128,-1,52
 809 -32 809 -32 646 -32 c 0,0,1
EndSplineSet
Validated: 1
Substitution2: "'tnum' Tabular Numbers lookup 19-1" three.tnum
Substitution2: "'frac' Diagonal Fractions in Latin lookup 11 subtable" three.numr
Substitution2: "'dnom' Denominators in Latin lookup 9 subtable" three.dnom
Substitution2: "'numr' Numerators in Latin lookup 8 subtable" three.numr
Substitution2: "'sups' Superscript in Latin lookup 7 subtable" uni00B3
AlternateSubs2: "'aalt' Access All Alternates in Latin lookup 1 subtable" three.dnom three.numr uni00B3
EndChar

StartChar: four
Encoding: 52 52 247
Width: 1371
Flags: W
LayerCount: 2
Fore
SplineSet
872 0 m 1,0,-1
 872 313 l 1,1,-1
 46 313 l 1,2,-1
 46 391 l 1,3,-1
 863 1650 l 1,4,-1
 1064 1650 l 1,5,-1
 1064 492 l 1,6,-1
 1256 492 l 1,7,-1
 1256 313 l 1,8,-1
 1064 313 l 1,9,-1
 1064 0 l 1,10,-1
 872 0 l 1,0,-1
316 492 m 1,11,-1
 872 492 l 1,12,-1
 872 1372 l 1,13,-1
 316 492 l 1,11,-1
EndSplineSet
Validated: 1
Substitution2: "'tnum' Tabular Numbers lookup 19-1" four.tnum
Substitution2: "'frac' Diagonal Fractions in Latin lookup 11 subtable" four.numr
Substitution2: "'dnom' Denominators in Latin lookup 9 subtable" four.dnom
Substitution2: "'numr' Numerators in Latin lookup 8 subtable" four.numr
Substitution2: "'sups' Superscript in Latin lookup 7 subtable" uni2074
AlternateSubs2: "'aalt' Access All Alternates in Latin lookup 1 subtable" four.dnom four.numr uni2074
EndChar

StartChar: five
Encoding: 53 53 248
Width: 1428
Flags: W
LayerCount: 2
Fore
SplineSet
689 -31 m 0,0,1
 556 -31 556 -31 439.5 11.5 c 128,-1,2
 323 54 323 54 237 134 c 128,-1,3
 151 214 151 214 109 327 c 1,4,-1
 271 406 l 1,5,6
 314 283 314 283 426.5 211 c 128,-1,7
 539 139 539 139 688 139 c 0,8,9
 808 139 808 139 896.5 185.5 c 128,-1,10
 985 232 985 232 1034 317 c 128,-1,11
 1083 402 1083 402 1083 517 c 0,12,13
 1083 647 1083 647 1021.5 741.5 c 128,-1,14
 960 836 960 836 852 887 c 128,-1,15
 744 938 744 938 604 938 c 0,16,17
 489 938 489 938 387 896 c 128,-1,18
 285 854 285 854 199 773 c 1,19,-1
 336 1650 l 1,20,-1
 1178 1650 l 1,21,-1
 1178 1471 l 1,22,-1
 507 1471 l 1,23,-1
 433 993 l 1,24,25
 634 1092 634 1092 847 1048 c 1,26,27
 977 1030 977 1030 1075 960.5 c 128,-1,28
 1173 891 1173 891 1228.5 780.5 c 128,-1,29
 1284 670 1284 670 1284 527 c 0,30,31
 1284 346 1284 346 1203 221.5 c 128,-1,32
 1122 97 1122 97 987 33 c 128,-1,33
 852 -31 852 -31 689 -31 c 0,0,1
EndSplineSet
Validated: 33
Substitution2: "'tnum' Tabular Numbers lookup 19-1" five.tnum
Substitution2: "'frac' Diagonal Fractions in Latin lookup 11 subtable" five.numr
Substitution2: "'dnom' Denominators in Latin lookup 9 subtable" five.dnom
Substitution2: "'numr' Numerators in Latin lookup 8 subtable" five.numr
AlternateSubs2: "'aalt' Access All Alternates in Latin lookup 1 subtable" five.dnom five.numr
EndChar

StartChar: six
Encoding: 54 54 249
Width: 1439
Flags: W
LayerCount: 2
Fore
SplineSet
728 -32 m 0,0,1
 590 -32 590 -32 478.5 13.5 c 128,-1,2
 367 59 367 59 288.5 138 c 128,-1,3
 210 217 210 217 168 319 c 128,-1,4
 126 421 126 421 126 534 c 0,5,6
 126 659 126 659 180.5 794.5 c 128,-1,7
 235 930 235 930 326 1039 c 2,8,-1
 836 1650 l 1,9,-1
 1083 1650 l 1,10,-1
 580 1052 l 1,11,12
 626 1076 626 1076 676.5 1088.5 c 128,-1,13
 727 1101 727 1101 782 1101 c 0,14,15
 893 1101 893 1101 990 1059.5 c 128,-1,16
 1087 1018 1087 1018 1160 942 c 128,-1,17
 1233 866 1233 866 1274.5 762.5 c 128,-1,18
 1316 659 1316 659 1316 534 c 0,19,20
 1316 368 1316 368 1241 240 c 128,-1,21
 1166 112 1166 112 1033.5 40 c 128,-1,22
 901 -32 901 -32 728 -32 c 0,0,1
720 140 m 0,23,24
 834 140 834 140 923 190.5 c 128,-1,25
 1012 241 1012 241 1063 329 c 128,-1,26
 1114 417 1114 417 1114 529 c 0,27,28
 1114 643 1114 643 1062.5 732.5 c 128,-1,29
 1011 822 1011 822 923.5 873.5 c 128,-1,30
 836 925 836 925 729 925 c 0,31,32
 620 925 620 925 530 872 c 128,-1,33
 440 819 440 819 386.5 728 c 128,-1,34
 333 637 333 637 333 524 c 0,35,36
 333 419 333 419 381 331.5 c 128,-1,37
 429 244 429 244 516 192 c 128,-1,38
 603 140 603 140 720 140 c 0,23,24
EndSplineSet
Validated: 1
Substitution2: "'tnum' Tabular Numbers lookup 19-1" six.tnum
Substitution2: "'frac' Diagonal Fractions in Latin lookup 11 subtable" six.numr
Substitution2: "'dnom' Denominators in Latin lookup 9 subtable" six.dnom
Substitution2: "'numr' Numerators in Latin lookup 8 subtable" six.numr
AlternateSubs2: "'aalt' Access All Alternates in Latin lookup 1 subtable" six.dnom six.numr
EndChar

StartChar: seven
Encoding: 55 55 250
Width: 1280
Flags: W
LayerCount: 2
Fore
SplineSet
97 0 m 1,0,-1
 909 1471 l 1,1,-1
 120 1471 l 1,2,-1
 120 1650 l 1,3,-1
 1209 1650 l 1,4,-1
 1209 1586 l 1,5,-1
 337 0 l 1,6,-1
 97 0 l 1,0,-1
EndSplineSet
Validated: 1
Substitution2: "'tnum' Tabular Numbers lookup 19-1" seven.tnum
Substitution2: "'frac' Diagonal Fractions in Latin lookup 11 subtable" seven.numr
Substitution2: "'dnom' Denominators in Latin lookup 9 subtable" seven.dnom
Substitution2: "'numr' Numerators in Latin lookup 8 subtable" seven.numr
AlternateSubs2: "'aalt' Access All Alternates in Latin lookup 1 subtable" seven.dnom seven.numr
EndChar

StartChar: eight
Encoding: 56 56 251
Width: 1387
Flags: W
LayerCount: 2
Fore
SplineSet
693 -32 m 0,0,1
 538 -32 538 -32 414.5 30 c 128,-1,2
 291 92 291 92 219.5 200 c 128,-1,3
 148 308 148 308 148 445 c 0,4,5
 148 593 148 593 231.5 710 c 128,-1,6
 315 827 315 827 453 880 c 1,7,8
 341 933 341 933 277 1034.5 c 128,-1,9
 213 1136 213 1136 213 1256 c 0,10,11
 213 1377 213 1377 277 1472.5 c 128,-1,12
 341 1568 341 1568 449.5 1624 c 128,-1,13
 558 1680 558 1680 693 1680 c 0,14,15
 787 1680 787 1680 873 1650 c 128,-1,16
 959 1620 959 1620 1027 1564 c 128,-1,17
 1095 1508 1095 1508 1134.5 1430.5 c 128,-1,18
 1174 1353 1174 1353 1174 1257 c 0,19,20
 1174 1134 1174 1134 1108.5 1033.5 c 128,-1,21
 1043 933 1043 933 933 880 c 1,22,23
 1073 826 1073 826 1156 709 c 128,-1,24
 1239 592 1239 592 1239 444 c 0,25,26
 1239 308 1239 308 1167.5 200.5 c 128,-1,27
 1096 93 1096 93 972.5 30.5 c 128,-1,28
 849 -32 849 -32 693 -32 c 0,0,1
693 146 m 0,29,30
 789 146 789 146 862.5 187.5 c 128,-1,31
 936 229 936 229 977 301 c 128,-1,32
 1018 373 1018 373 1018 463 c 0,33,34
 1018 556 1018 556 975.5 628 c 128,-1,35
 933 700 933 700 860 741.5 c 128,-1,36
 787 783 787 783 693 783 c 0,37,38
 601 783 601 783 527.5 742 c 128,-1,39
 454 701 454 701 411.5 629 c 128,-1,40
 369 557 369 557 369 464 c 0,41,42
 369 373 369 373 410 301 c 128,-1,43
 451 229 451 229 524.5 187.5 c 128,-1,44
 598 146 598 146 693 146 c 0,29,30
693 958 m 0,45,46
 775 958 775 958 839.5 994.5 c 128,-1,47
 904 1031 904 1031 941 1094.5 c 128,-1,48
 978 1158 978 1158 978 1239 c 256,49,50
 978 1320 978 1320 940.5 1384.5 c 128,-1,51
 903 1449 903 1449 839 1486 c 128,-1,52
 775 1523 775 1523 693 1523 c 0,53,54
 612 1523 612 1523 548 1486 c 128,-1,55
 484 1449 484 1449 446.5 1384.5 c 128,-1,56
 409 1320 409 1320 409 1239 c 256,57,58
 409 1158 409 1158 446 1094.5 c 128,-1,59
 483 1031 483 1031 547.5 994.5 c 128,-1,60
 612 958 612 958 693 958 c 0,45,46
EndSplineSet
Validated: 1
Substitution2: "'tnum' Tabular Numbers lookup 19-1" eight.tnum
Substitution2: "'frac' Diagonal Fractions in Latin lookup 11 subtable" eight.numr
Substitution2: "'dnom' Denominators in Latin lookup 9 subtable" eight.dnom
Substitution2: "'numr' Numerators in Latin lookup 8 subtable" eight.numr
AlternateSubs2: "'aalt' Access All Alternates in Latin lookup 1 subtable" eight.dnom eight.numr
EndChar

StartChar: nine
Encoding: 57 57 252
Width: 1439
Flags: W
LayerCount: 2
Fore
SplineSet
355 0 m 1,0,-1
 867 608 l 1,1,2
 782 549 782 549 668 549 c 0,3,4
 557 549 557 549 458.5 591 c 128,-1,5
 360 633 360 633 284.5 709.5 c 128,-1,6
 209 786 209 786 165.5 890 c 128,-1,7
 122 994 122 994 122 1118 c 0,8,9
 122 1277 122 1277 194.5 1404.5 c 128,-1,10
 267 1532 267 1532 399 1606.5 c 128,-1,11
 531 1681 531 1681 708 1681 c 0,12,13
 887 1681 887 1681 1023 1605.5 c 128,-1,14
 1159 1530 1159 1530 1235.5 1400.5 c 128,-1,15
 1312 1271 1312 1271 1312 1109 c 0,16,17
 1312 1032 1312 1032 1299 966 c 128,-1,18
 1286 900 1286 900 1260 840.5 c 128,-1,19
 1234 781 1234 781 1196.5 724.5 c 128,-1,20
 1159 668 1159 668 1111 611 c 2,21,-1
 602 0 l 1,22,-1
 355 0 l 1,0,-1
717 728 m 0,23,24
 797 728 797 728 866.5 758.5 c 128,-1,25
 936 789 936 789 988.5 843.5 c 128,-1,26
 1041 898 1041 898 1071 969 c 128,-1,27
 1101 1040 1101 1040 1101 1121 c 0,28,29
 1101 1233 1101 1233 1051.5 1320 c 128,-1,30
 1002 1407 1002 1407 915.5 1456.5 c 128,-1,31
 829 1506 829 1506 717 1506 c 256,32,33
 605 1506 605 1506 516.5 1456 c 128,-1,34
 428 1406 428 1406 377 1319 c 128,-1,35
 326 1232 326 1232 326 1121 c 256,36,37
 326 1010 326 1010 377.5 921 c 128,-1,38
 429 832 429 832 517.5 780 c 128,-1,39
 606 728 606 728 717 728 c 0,23,24
EndSplineSet
Validated: 1
Substitution2: "'tnum' Tabular Numbers lookup 19-1" nine.tnum
Substitution2: "'frac' Diagonal Fractions in Latin lookup 11 subtable" nine.numr
Substitution2: "'dnom' Denominators in Latin lookup 9 subtable" nine.dnom
Substitution2: "'numr' Numerators in Latin lookup 8 subtable" nine.numr
AlternateSubs2: "'aalt' Access All Alternates in Latin lookup 1 subtable" nine.dnom nine.numr
EndChar

StartChar: zero.dnom
Encoding: 65545 -1 253
Width: 1404
Flags: W
LayerCount: 2
Fore
SplineSet
673 -21 m 0,0,1
 517 -21 517 -21 399 48.5 c 128,-1,2
 281 118 281 118 215.5 242.5 c 128,-1,3
 150 367 150 367 150 530 c 0,4,5
 150 694 150 694 215.5 817.5 c 128,-1,6
 281 941 281 941 399 1010.5 c 128,-1,7
 517 1080 517 1080 673 1080 c 0,8,9
 830 1080 830 1080 947.5 1010.5 c 128,-1,10
 1065 941 1065 941 1131 817.5 c 128,-1,11
 1197 694 1197 694 1197 530 c 0,12,13
 1197 367 1197 367 1131 242.5 c 128,-1,14
 1065 118 1065 118 947.5 48.5 c 128,-1,15
 830 -21 830 -21 673 -21 c 0,0,1
673 122 m 0,16,17
 780 122 780 122 859.5 172 c 128,-1,18
 939 222 939 222 982.5 313.5 c 128,-1,19
 1026 405 1026 405 1026 530 c 256,20,21
 1026 655 1026 655 982 746.5 c 128,-1,22
 938 838 938 838 859 888 c 128,-1,23
 780 938 780 938 673 938 c 0,24,25
 567 938 567 938 487.5 888 c 128,-1,26
 408 838 408 838 364 746.5 c 128,-1,27
 320 655 320 655 320 530 c 256,28,29
 320 405 320 405 364 313.5 c 128,-1,30
 408 222 408 222 487.5 172 c 128,-1,31
 567 122 567 122 673 122 c 0,16,17
EndSplineSet
Validated: 1
EndChar

StartChar: one.dnom
Encoding: 65546 -1 254
Width: 806
Flags: W
LayerCount: 2
Fore
SplineSet
498 0 m 1,0,-1
 498 893 l 1,1,-1
 400 893 l 1,2,-1
 400 1050 l 1,3,-1
 656 1050 l 1,4,-1
 656 0 l 1,5,-1
 498 0 l 1,0,-1
EndSplineSet
Validated: 1
EndChar

StartChar: two.dnom
Encoding: 65547 -1 255
Width: 1452
Flags: W
LayerCount: 2
Fore
SplineSet
274 0 m 1,0,-1
 274 80 l 1,1,2
 467 209 467 209 597 306.5 c 128,-1,3
 727 404 727 404 805 478.5 c 128,-1,4
 883 553 883 553 917 612 c 128,-1,5
 951 671 951 671 951 724 c 0,6,7
 951 781 951 781 918 829 c 128,-1,8
 885 877 885 877 828.5 906 c 128,-1,9
 772 935 772 935 700 935 c 0,10,11
 632 935 632 935 575 906.5 c 128,-1,12
 518 878 518 878 479 825 c 128,-1,13
 440 772 440 772 426 700 c 1,14,-1
 287 759 l 1,15,16
 305 855 305 855 363.5 927.5 c 128,-1,17
 422 1000 422 1000 511.5 1040 c 128,-1,18
 601 1080 601 1080 710 1080 c 0,19,20
 828 1080 828 1080 922 1034 c 128,-1,21
 1016 988 1016 988 1070.5 908.5 c 128,-1,22
 1125 829 1125 829 1125 727 c 0,23,24
 1125 663 1125 663 1098 600.5 c 128,-1,25
 1071 538 1071 538 1008.5 470.5 c 128,-1,26
 946 403 946 403 841.5 323.5 c 128,-1,27
 737 244 737 244 581 145 c 1,28,-1
 1147 145 l 1,29,-1
 1147 0 l 1,30,-1
 274 0 l 1,0,-1
EndSplineSet
Validated: 1
EndChar

StartChar: three.dnom
Encoding: 65548 -1 256
Width: 1394
Flags: W
LayerCount: 2
Fore
SplineSet
702 -21 m 0,0,1
 556 -21 556 -21 451 51.5 c 128,-1,2
 346 124 346 124 322 248 c 1,3,-1
 472 314 l 1,4,5
 476 229 476 229 539.5 175 c 128,-1,6
 603 121 603 121 702 121 c 0,7,8
 796 121 796 121 852.5 170.5 c 128,-1,9
 909 220 909 220 909 299 c 0,10,11
 909 357 909 357 881 402 c 128,-1,12
 853 447 853 447 806.5 473 c 128,-1,13
 760 499 760 499 706 499 c 0,14,15
 679 499 679 499 659 492 c 1,16,-1
 659 602 l 1,17,-1
 703 602 l 2,18,19
 757 602 757 602 800.5 627 c 128,-1,20
 844 652 844 652 869.5 693 c 128,-1,21
 895 734 895 734 895 781 c 256,22,23
 895 828 895 828 870 866 c 128,-1,24
 845 904 845 904 802.5 926 c 128,-1,25
 760 948 760 948 709 948 c 256,26,27
 658 948 658 948 614 925.5 c 128,-1,28
 570 903 570 903 542 864 c 128,-1,29
 514 825 514 825 509 775 c 1,30,-1
 380 830 l 1,31,32
 393 905 393 905 439.5 961 c 128,-1,33
 486 1017 486 1017 557 1048.5 c 128,-1,34
 628 1080 628 1080 712 1080 c 0,35,36
 810 1080 810 1080 884.5 1039.5 c 128,-1,37
 959 999 959 999 1001 932.5 c 128,-1,38
 1043 866 1043 866 1043 787 c 0,39,40
 1043 713 1043 713 1005 652 c 128,-1,41
 967 591 967 591 899 558 c 1,42,43
 976 525 976 525 1023.5 457.5 c 128,-1,44
 1071 390 1071 390 1071 298 c 0,45,46
 1071 210 1071 210 1026.5 137.5 c 128,-1,47
 982 65 982 65 899 22 c 128,-1,48
 816 -21 816 -21 702 -21 c 0,0,1
EndSplineSet
Validated: 1
EndChar

StartChar: four.dnom
Encoding: 65549 -1 257
Width: 1278
Flags: W
LayerCount: 2
Fore
SplineSet
717 0 m 1,0,-1
 717 196 l 1,1,-1
 131 196 l 1,2,-1
 131 252 l 1,3,-1
 709 1050 l 1,4,-1
 868 1050 l 1,5,-1
 868 337 l 1,6,-1
 1005 337 l 1,7,-1
 1005 196 l 1,8,-1
 868 196 l 1,9,-1
 868 0 l 1,10,-1
 717 0 l 1,0,-1
346 337 m 1,11,-1
 717 337 l 1,12,-1
 717 854 l 1,13,-1
 346 337 l 1,11,-1
EndSplineSet
Validated: 1
EndChar

StartChar: five.dnom
Encoding: 65550 -1 258
Width: 1428
Flags: W
LayerCount: 2
Fore
SplineSet
694 -20 m 0,0,1
 546 -20 546 -20 429 41 c 128,-1,2
 312 102 312 102 266 208 c 1,3,-1
 398 271 l 1,4,5
 430 198 430 198 508 158.5 c 128,-1,6
 586 119 586 119 694 119 c 0,7,8
 822 119 822 119 896.5 175 c 128,-1,9
 971 231 971 231 971 333 c 0,10,11
 971 409 971 409 931.5 463 c 128,-1,12
 892 517 892 517 823 546 c 128,-1,13
 754 575 754 575 665 575 c 0,14,15
 588 575 588 575 506 551.5 c 128,-1,16
 424 528 424 528 338 481 c 1,17,-1
 435 1050 l 1,18,-1
 1056 1050 l 1,19,-1
 1056 917 l 1,20,-1
 567 917 l 1,21,-1
 518 645 l 1,22,23
 595 671 595 671 672.5 673 c 128,-1,24
 750 675 750 675 825 659 c 0,25,26
 974 628 974 628 1054 544 c 128,-1,27
 1134 460 1134 460 1134 335 c 0,28,29
 1134 224 1134 224 1075 144.5 c 128,-1,30
 1016 65 1016 65 916 22.5 c 128,-1,31
 816 -20 816 -20 694 -20 c 0,0,1
EndSplineSet
Validated: 33
EndChar

StartChar: six.dnom
Encoding: 65551 -1 259
Width: 1280
Flags: W
LayerCount: 2
Fore
SplineSet
647 -20 m 0,0,1
 512 -20 512 -20 413 30 c 128,-1,2
 314 80 314 80 259.5 163 c 128,-1,3
 205 246 205 246 205 343 c 0,4,5
 205 431 205 431 250 525.5 c 128,-1,6
 295 620 295 620 377 704 c 2,7,-1
 717 1050 l 1,8,-1
 912 1050 l 1,9,-1
 549 675 l 1,10,11
 581 689 581 689 616.5 695.5 c 128,-1,12
 652 702 652 702 691 702 c 0,13,14
 797 702 797 702 884.5 656.5 c 128,-1,15
 972 611 972 611 1024.5 530 c 128,-1,16
 1077 449 1077 449 1077 342 c 0,17,18
 1077 234 1077 234 1022 152.5 c 128,-1,19
 967 71 967 71 870.5 25.5 c 128,-1,20
 774 -20 774 -20 647 -20 c 0,0,1
641 114 m 0,21,22
 720 114 720 114 782.5 143 c 128,-1,23
 845 172 845 172 881 222.5 c 128,-1,24
 917 273 917 273 917 337 c 0,25,26
 917 402 917 402 881 453.5 c 128,-1,27
 845 505 845 505 783.5 534.5 c 128,-1,28
 722 564 722 564 646 564 c 256,29,30
 570 564 570 564 507 533.5 c 128,-1,31
 444 503 444 503 407 451 c 128,-1,32
 370 399 370 399 370 334 c 0,33,34
 370 274 370 274 403.5 224 c 128,-1,35
 437 174 437 174 498 144 c 128,-1,36
 559 114 559 114 641 114 c 0,21,22
EndSplineSet
Validated: 1
EndChar

StartChar: seven.dnom
Encoding: 65552 -1 260
Width: 1282
Flags: W
LayerCount: 2
Fore
SplineSet
328 0 m 1,0,-1
 856 909 l 1,1,-1
 348 909 l 1,2,-1
 348 1050 l 1,3,-1
 1092 1050 l 1,4,-1
 1092 1001 l 1,5,-1
 517 0 l 1,6,-1
 328 0 l 1,0,-1
EndSplineSet
Validated: 1
EndChar

StartChar: eight.dnom
Encoding: 65553 -1 261
Width: 1387
Flags: W
LayerCount: 2
Fore
SplineSet
694 -21 m 0,0,1
 585 -21 585 -21 499.5 20 c 128,-1,2
 414 61 414 61 364.5 131 c 128,-1,3
 315 201 315 201 315 288 c 0,4,5
 315 380 315 380 370.5 456 c 128,-1,6
 426 532 426 532 519 568 c 1,7,8
 446 602 446 602 403 666 c 128,-1,9
 360 730 360 730 360 806 c 0,10,11
 360 883 360 883 404 945 c 128,-1,12
 448 1007 448 1007 523.5 1043.5 c 128,-1,13
 599 1080 599 1080 693 1080 c 256,14,15
 787 1080 787 1080 862.5 1044.5 c 128,-1,16
 938 1009 938 1009 982.5 947 c 128,-1,17
 1027 885 1027 885 1027 807 c 0,18,19
 1027 731 1027 731 984.5 666.5 c 128,-1,20
 942 602 942 602 868 568 c 1,21,22
 961 532 961 532 1016.5 456 c 128,-1,23
 1072 380 1072 380 1072 288 c 0,24,25
 1072 201 1072 201 1022.5 131 c 128,-1,26
 973 61 973 61 887.5 20 c 128,-1,27
 802 -21 802 -21 694 -21 c 0,0,1
694 119 m 0,28,29
 783 119 783 119 840 172 c 128,-1,30
 897 225 897 225 897 305 c 0,31,32
 897 359 897 359 870.5 401 c 128,-1,33
 844 443 844 443 798 467.5 c 128,-1,34
 752 492 752 492 694 492 c 256,35,36
 636 492 636 492 590 468 c 128,-1,37
 544 444 544 444 517 402 c 128,-1,38
 490 360 490 360 490 305 c 0,39,40
 490 225 490 225 547 172 c 128,-1,41
 604 119 604 119 694 119 c 0,28,29
694 627 m 0,42,43
 771 627 771 627 821.5 674 c 128,-1,44
 872 721 872 721 872 792 c 256,45,46
 872 863 872 863 821 910 c 128,-1,47
 770 957 770 957 694 957 c 256,48,49
 618 957 618 957 566.5 910 c 128,-1,50
 515 863 515 863 515 792 c 256,51,52
 515 721 515 721 566.5 674 c 128,-1,53
 618 627 618 627 694 627 c 0,42,43
EndSplineSet
Validated: 1
EndChar

StartChar: nine.dnom
Encoding: 65554 -1 262
Width: 1439
Flags: W
LayerCount: 2
Fore
SplineSet
446 0 m 1,0,-1
 815 384 l 1,1,2
 787 368 787 368 750.5 360 c 128,-1,3
 714 352 714 352 673 352 c 0,4,5
 573 352 573 352 483.5 398 c 128,-1,6
 394 444 394 444 337.5 526 c 128,-1,7
 281 608 281 608 281 717 c 0,8,9
 281 819 281 819 334 901.5 c 128,-1,10
 387 984 387 984 483.5 1032 c 128,-1,11
 580 1080 580 1080 711 1080 c 0,12,13
 838 1080 838 1080 936.5 1033.5 c 128,-1,14
 1035 987 1035 987 1092.5 904 c 128,-1,15
 1150 821 1150 821 1153 712 c 0,16,17
 1156 626 1156 626 1128 558.5 c 128,-1,18
 1100 491 1100 491 1062.5 443.5 c 128,-1,19
 1025 396 1025 396 999 370 c 2,20,-1
 641 0 l 1,21,-1
 446 0 l 1,0,-1
715 491 m 0,22,23
 792 491 792 491 853.5 522.5 c 128,-1,24
 915 554 915 554 950.5 606.5 c 128,-1,25
 986 659 986 659 986 722 c 0,26,27
 986 783 986 783 952.5 833.5 c 128,-1,28
 919 884 919 884 858.5 914.5 c 128,-1,29
 798 945 798 945 717 945 c 0,30,31
 639 945 639 945 577 916 c 128,-1,32
 515 887 515 887 479.5 836 c 128,-1,33
 444 785 444 785 444 720 c 0,34,35
 444 653 444 653 481 601.5 c 128,-1,36
 518 550 518 550 579.5 520.5 c 128,-1,37
 641 491 641 491 715 491 c 0,22,23
EndSplineSet
Validated: 33
EndChar

StartChar: zero.numr
Encoding: 65555 -1 263
Width: 1465
Flags: W
LayerCount: 2
Fore
SplineSet
733 579 m 256,0,1
 577 579 577 579 459 648.5 c 128,-1,2
 341 718 341 718 275 842.5 c 128,-1,3
 209 967 209 967 209 1130 c 0,4,5
 209 1294 209 1294 275 1417.5 c 128,-1,6
 341 1541 341 1541 459 1610.5 c 128,-1,7
 577 1680 577 1680 733 1680 c 256,8,9
 889 1680 889 1680 1007 1610.5 c 128,-1,10
 1125 1541 1125 1541 1190.5 1417.5 c 128,-1,11
 1256 1294 1256 1294 1256 1130 c 0,12,13
 1256 967 1256 967 1190.5 842.5 c 128,-1,14
 1125 718 1125 718 1007 648.5 c 128,-1,15
 889 579 889 579 733 579 c 256,0,1
733 722 m 256,16,17
 840 722 840 722 919 772 c 128,-1,18
 998 822 998 822 1042 913.5 c 128,-1,19
 1086 1005 1086 1005 1086 1130 c 256,20,21
 1086 1255 1086 1255 1042 1346.5 c 128,-1,22
 998 1438 998 1438 918.5 1488 c 128,-1,23
 839 1538 839 1538 733 1538 c 256,24,25
 627 1538 627 1538 547 1488 c 128,-1,26
 467 1438 467 1438 423 1346.5 c 128,-1,27
 379 1255 379 1255 379 1130 c 256,28,29
 379 1005 379 1005 423 913.5 c 128,-1,30
 467 822 467 822 546.5 772 c 128,-1,31
 626 722 626 722 733 722 c 256,16,17
EndSplineSet
Validated: 1
Substitution2: "Single Substitution lookup 14 subtable" zero.dnom
Substitution2: "Single Substitution lookup 13 subtable" zero.dnom
Substitution2: "'aalt' Access All Alternates in Latin lookup 0 subtable" zero.dnom
EndChar

StartChar: one.numr
Encoding: 65556 -1 264
Width: 873
Flags: W
LayerCount: 2
Fore
SplineSet
311 600 m 1,0,-1
 311 1493 l 1,1,-1
 213 1493 l 1,2,-1
 213 1650 l 1,3,-1
 469 1650 l 1,4,-1
 469 600 l 1,5,-1
 311 600 l 1,0,-1
EndSplineSet
Validated: 1
Substitution2: "Single Substitution lookup 14 subtable" one.dnom
Substitution2: "Single Substitution lookup 13 subtable" one.dnom
Substitution2: "'aalt' Access All Alternates in Latin lookup 0 subtable" one.dnom
EndChar

StartChar: two.numr
Encoding: 65557 -1 265
Width: 1452
Flags: W
LayerCount: 2
Fore
SplineSet
274 600 m 1,0,-1
 274 680 l 1,1,2
 467 809 467 809 597 906.5 c 128,-1,3
 727 1004 727 1004 805 1078.5 c 128,-1,4
 883 1153 883 1153 917 1212 c 128,-1,5
 951 1271 951 1271 951 1324 c 0,6,7
 951 1381 951 1381 918 1429 c 128,-1,8
 885 1477 885 1477 828.5 1506 c 128,-1,9
 772 1535 772 1535 700 1535 c 0,10,11
 632 1535 632 1535 575 1506.5 c 128,-1,12
 518 1478 518 1478 479 1425 c 128,-1,13
 440 1372 440 1372 426 1300 c 1,14,-1
 287 1359 l 1,15,16
 305 1455 305 1455 363.5 1527.5 c 128,-1,17
 422 1600 422 1600 511.5 1640 c 128,-1,18
 601 1680 601 1680 710 1680 c 0,19,20
 828 1680 828 1680 922 1634 c 128,-1,21
 1016 1588 1016 1588 1070.5 1508.5 c 128,-1,22
 1125 1429 1125 1429 1125 1327 c 0,23,24
 1125 1263 1125 1263 1098 1200.5 c 128,-1,25
 1071 1138 1071 1138 1008.5 1070.5 c 128,-1,26
 946 1003 946 1003 841.5 923.5 c 128,-1,27
 737 844 737 844 581 745 c 1,28,-1
 1147 745 l 1,29,-1
 1147 600 l 1,30,-1
 274 600 l 1,0,-1
EndSplineSet
Validated: 1
Substitution2: "Single Substitution lookup 14 subtable" two.dnom
Substitution2: "Single Substitution lookup 13 subtable" two.dnom
Substitution2: "'aalt' Access All Alternates in Latin lookup 0 subtable" two.dnom
EndChar

StartChar: three.numr
Encoding: 65558 -1 266
Width: 1341
Flags: W
LayerCount: 2
Fore
SplineSet
652 579 m 0,0,1
 507 579 507 579 401.5 651.5 c 128,-1,2
 296 724 296 724 273 848 c 1,3,-1
 423 914 l 1,4,5
 427 829 427 829 490 775 c 128,-1,6
 553 721 553 721 652 721 c 0,7,8
 747 721 747 721 803 770.5 c 128,-1,9
 859 820 859 820 859 899 c 0,10,11
 859 957 859 957 830.5 1002 c 128,-1,12
 802 1047 802 1047 756 1073 c 128,-1,13
 710 1099 710 1099 657 1099 c 0,14,15
 629 1099 629 1099 609 1092 c 1,16,-1
 609 1202 l 1,17,-1
 653 1202 l 2,18,19
 707 1202 707 1202 750.5 1227 c 128,-1,20
 794 1252 794 1252 820 1293 c 128,-1,21
 846 1334 846 1334 846 1381 c 256,22,23
 846 1428 846 1428 820.5 1466 c 128,-1,24
 795 1504 795 1504 753 1526 c 128,-1,25
 711 1548 711 1548 659 1548 c 0,26,27
 608 1548 608 1548 564 1525.5 c 128,-1,28
 520 1503 520 1503 492 1464 c 128,-1,29
 464 1425 464 1425 460 1375 c 1,30,-1
 330 1430 l 1,31,32
 343 1505 343 1505 390 1561 c 128,-1,33
 437 1617 437 1617 508 1648.5 c 128,-1,34
 579 1680 579 1680 663 1680 c 0,35,36
 761 1680 761 1680 835.5 1639.5 c 128,-1,37
 910 1599 910 1599 952 1532 c 128,-1,38
 994 1465 994 1465 994 1386 c 0,39,40
 994 1313 994 1313 956 1253 c 128,-1,41
 918 1193 918 1193 850 1158 c 1,42,43
 927 1125 927 1125 974.5 1057.5 c 128,-1,44
 1022 990 1022 990 1022 898 c 0,45,46
 1022 810 1022 810 977 737.5 c 128,-1,47
 932 665 932 665 849 622 c 128,-1,48
 766 579 766 579 652 579 c 0,0,1
EndSplineSet
Validated: 1
Substitution2: "Single Substitution lookup 14 subtable" three.dnom
Substitution2: "Single Substitution lookup 13 subtable" three.dnom
Substitution2: "'aalt' Access All Alternates in Latin lookup 0 subtable" three.dnom
EndChar

StartChar: four.numr
Encoding: 65559 -1 267
Width: 1371
Flags: W
LayerCount: 2
Fore
SplineSet
809 600 m 1,0,-1
 809 796 l 1,1,-1
 224 796 l 1,2,-1
 224 852 l 1,3,-1
 802 1650 l 1,4,-1
 961 1650 l 1,5,-1
 961 937 l 1,6,-1
 1097 937 l 1,7,-1
 1097 796 l 1,8,-1
 961 796 l 1,9,-1
 961 600 l 1,10,-1
 809 600 l 1,0,-1
439 937 m 1,11,-1
 809 937 l 1,12,-1
 809 1454 l 1,13,-1
 439 937 l 1,11,-1
EndSplineSet
Validated: 1
Substitution2: "Single Substitution lookup 14 subtable" four.dnom
Substitution2: "Single Substitution lookup 13 subtable" four.dnom
Substitution2: "'aalt' Access All Alternates in Latin lookup 0 subtable" four.dnom
EndChar

StartChar: five.numr
Encoding: 65560 -1 268
Width: 1428
Flags: W
LayerCount: 2
Fore
SplineSet
694 580 m 0,0,1
 546 580 546 580 429 641 c 128,-1,2
 312 702 312 702 266 808 c 1,3,-1
 398 871 l 1,4,5
 429 799 429 799 508.5 759 c 128,-1,6
 588 719 588 719 694 719 c 0,7,8
 820 719 820 719 895.5 775.5 c 128,-1,9
 971 832 971 832 971 933 c 0,10,11
 971 1010 971 1010 927.5 1064 c 128,-1,12
 884 1118 884 1118 808 1146.5 c 128,-1,13
 732 1175 732 1175 634 1175 c 0,14,15
 549 1175 549 1175 478.5 1151.5 c 128,-1,16
 408 1128 408 1128 337 1081 c 1,17,-1
 435 1650 l 1,18,-1
 1056 1650 l 1,19,-1
 1056 1517 l 1,20,-1
 566 1517 l 1,21,-1
 518 1245 l 1,22,23
 584 1269 584 1269 664 1273 c 128,-1,24
 744 1277 744 1277 823 1260 c 0,25,26
 970 1230 970 1230 1052 1146 c 128,-1,27
 1134 1062 1134 1062 1134 934 c 0,28,29
 1134 825 1134 825 1075.5 745.5 c 128,-1,30
 1017 666 1017 666 917.5 623 c 128,-1,31
 818 580 818 580 694 580 c 0,0,1
EndSplineSet
Validated: 33
Substitution2: "Single Substitution lookup 14 subtable" five.dnom
Substitution2: "Single Substitution lookup 13 subtable" five.dnom
Substitution2: "'aalt' Access All Alternates in Latin lookup 0 subtable" five.dnom
EndChar

StartChar: six.numr
Encoding: 65561 -1 269
Width: 1439
Flags: W
LayerCount: 2
Fore
SplineSet
727 580 m 0,0,1
 592 580 592 580 493 630 c 128,-1,2
 394 680 394 680 339.5 763 c 128,-1,3
 285 846 285 846 285 943 c 0,4,5
 285 1028 285 1028 326 1120 c 128,-1,6
 367 1212 367 1212 438 1285 c 2,7,-1
 796 1650 l 1,8,-1
 992 1650 l 1,9,-1
 628 1275 l 1,10,11
 661 1289 661 1289 696.5 1295.5 c 128,-1,12
 732 1302 732 1302 771 1302 c 0,13,14
 877 1302 877 1302 964 1256 c 128,-1,15
 1051 1210 1051 1210 1103.5 1129 c 128,-1,16
 1156 1048 1156 1048 1156 941 c 256,17,18
 1156 834 1156 834 1101.5 752.5 c 128,-1,19
 1047 671 1047 671 950 625.5 c 128,-1,20
 853 580 853 580 727 580 c 0,0,1
721 714 m 0,21,22
 800 714 800 714 862.5 743 c 128,-1,23
 925 772 925 772 961 822.5 c 128,-1,24
 997 873 997 873 997 937 c 0,25,26
 997 1002 997 1002 961 1053.5 c 128,-1,27
 925 1105 925 1105 863.5 1134.5 c 128,-1,28
 802 1164 802 1164 726 1164 c 256,29,30
 650 1164 650 1164 587 1133.5 c 128,-1,31
 524 1103 524 1103 486.5 1051 c 128,-1,32
 449 999 449 999 449 934 c 0,33,34
 449 874 449 874 483 824 c 128,-1,35
 517 774 517 774 578 744 c 128,-1,36
 639 714 639 714 721 714 c 0,21,22
EndSplineSet
Validated: 1
Substitution2: "Single Substitution lookup 14 subtable" six.dnom
Substitution2: "Single Substitution lookup 13 subtable" six.dnom
Substitution2: "'aalt' Access All Alternates in Latin lookup 0 subtable" six.dnom
EndChar

StartChar: seven.numr
Encoding: 65562 -1 270
Width: 1220
Flags: W
LayerCount: 2
Fore
SplineSet
267 600 m 1,0,-1
 794 1509 l 1,1,-1
 287 1509 l 1,2,-1
 287 1650 l 1,3,-1
 1030 1650 l 1,4,-1
 1030 1601 l 1,5,-1
 456 600 l 1,6,-1
 267 600 l 1,0,-1
EndSplineSet
Validated: 1
Substitution2: "Single Substitution lookup 14 subtable" seven.dnom
Substitution2: "Single Substitution lookup 13 subtable" seven.dnom
Substitution2: "'aalt' Access All Alternates in Latin lookup 0 subtable" seven.dnom
EndChar

StartChar: eight.numr
Encoding: 65563 -1 271
Width: 1387
Flags: W
LayerCount: 2
Fore
SplineSet
693 579 m 256,0,1
 586 579 586 579 500.5 619.5 c 128,-1,2
 415 660 415 660 365 730 c 128,-1,3
 315 800 315 800 315 888 c 0,4,5
 315 982 315 982 371.5 1057.5 c 128,-1,6
 428 1133 428 1133 519 1168 c 1,7,8
 446 1203 446 1203 403 1267 c 128,-1,9
 360 1331 360 1331 360 1406 c 0,10,11
 360 1486 360 1486 405.5 1547.5 c 128,-1,12
 451 1609 451 1609 526.5 1644.5 c 128,-1,13
 602 1680 602 1680 692 1680 c 0,14,15
 780 1680 780 1680 856.5 1646 c 128,-1,16
 933 1612 933 1612 980 1551 c 128,-1,17
 1027 1490 1027 1490 1027 1408 c 0,18,19
 1027 1332 1027 1332 984.5 1267 c 128,-1,20
 942 1202 942 1202 868 1168 c 1,21,22
 960 1132 960 1132 1016 1056.5 c 128,-1,23
 1072 981 1072 981 1072 888 c 0,24,25
 1072 800 1072 800 1022 730 c 128,-1,26
 972 660 972 660 886 619.5 c 128,-1,27
 800 579 800 579 693 579 c 256,0,1
694 719 m 0,28,29
 784 719 784 719 840.5 772.5 c 128,-1,30
 897 826 897 826 897 905 c 0,31,32
 897 959 897 959 870.5 1001 c 128,-1,33
 844 1043 844 1043 798 1067.5 c 128,-1,34
 752 1092 752 1092 694 1092 c 0,35,36
 637 1092 637 1092 590.5 1068 c 128,-1,37
 544 1044 544 1044 517 1002 c 128,-1,38
 490 960 490 960 490 905 c 0,39,40
 490 826 490 826 546.5 772.5 c 128,-1,41
 603 719 603 719 694 719 c 0,28,29
694 1227 m 0,42,43
 771 1227 771 1227 821.5 1274 c 128,-1,44
 872 1321 872 1321 872 1392 c 256,45,46
 872 1463 872 1463 821 1510 c 128,-1,47
 770 1557 770 1557 694 1557 c 256,48,49
 618 1557 618 1557 566.5 1510 c 128,-1,50
 515 1463 515 1463 515 1392 c 256,51,52
 515 1321 515 1321 566.5 1274 c 128,-1,53
 618 1227 618 1227 694 1227 c 0,42,43
EndSplineSet
Validated: 1
Substitution2: "Single Substitution lookup 14 subtable" eight.dnom
Substitution2: "Single Substitution lookup 13 subtable" eight.dnom
Substitution2: "'aalt' Access All Alternates in Latin lookup 0 subtable" eight.dnom
EndChar

StartChar: nine.numr
Encoding: 65564 -1 272
Width: 1439
Flags: W
LayerCount: 2
Fore
SplineSet
446 600 m 1,0,-1
 815 984 l 1,1,2
 787 968 787 968 750.5 960 c 128,-1,3
 714 952 714 952 673 952 c 0,4,5
 573 952 573 952 483.5 998 c 128,-1,6
 394 1044 394 1044 337.5 1126 c 128,-1,7
 281 1208 281 1208 281 1317 c 0,8,9
 281 1419 281 1419 334 1501.5 c 128,-1,10
 387 1584 387 1584 483.5 1632 c 128,-1,11
 580 1680 580 1680 711 1680 c 0,12,13
 838 1680 838 1680 936.5 1633.5 c 128,-1,14
 1035 1587 1035 1587 1092.5 1504 c 128,-1,15
 1150 1421 1150 1421 1153 1312 c 0,16,17
 1156 1226 1156 1226 1128 1158.5 c 128,-1,18
 1100 1091 1100 1091 1062.5 1043.5 c 128,-1,19
 1025 996 1025 996 999 970 c 2,20,-1
 641 600 l 1,21,-1
 446 600 l 1,0,-1
715 1091 m 0,22,23
 792 1091 792 1091 853.5 1122.5 c 128,-1,24
 915 1154 915 1154 950.5 1206.5 c 128,-1,25
 986 1259 986 1259 986 1322 c 0,26,27
 986 1383 986 1383 952.5 1433.5 c 128,-1,28
 919 1484 919 1484 858.5 1514.5 c 128,-1,29
 798 1545 798 1545 717 1545 c 0,30,31
 639 1545 639 1545 577 1516 c 128,-1,32
 515 1487 515 1487 479.5 1436 c 128,-1,33
 444 1385 444 1385 444 1320 c 0,34,35
 444 1253 444 1253 481 1201.5 c 128,-1,36
 518 1150 518 1150 579.5 1120.5 c 128,-1,37
 641 1091 641 1091 715 1091 c 0,22,23
EndSplineSet
Validated: 33
Substitution2: "Single Substitution lookup 14 subtable" nine.dnom
Substitution2: "Single Substitution lookup 13 subtable" nine.dnom
Substitution2: "'aalt' Access All Alternates in Latin lookup 0 subtable" nine.dnom
EndChar

StartChar: uni00B9
Encoding: 185 185 273
Width: 421
Flags: W
LayerCount: 2
Fore
SplineSet
175 1026 m 1,0,-1
 175 1555 l 1,1,-1
 95 1555 l 1,2,-1
 95 1650 l 1,3,-1
 270 1650 l 1,4,-1
 270 1026 l 1,5,-1
 175 1026 l 1,0,-1
EndSplineSet
Validated: 1
EndChar

StartChar: uni00B2
Encoding: 178 178 274
Width: 660
Flags: W
LayerCount: 2
Fore
SplineSet
78 1026 m 1,0,-1
 78 1081 l 1,1,2
 205 1172 205 1172 283.5 1242 c 128,-1,3
 362 1312 362 1312 398 1368.5 c 128,-1,4
 434 1425 434 1425 434 1474 c 0,5,6
 434 1528 434 1528 399.5 1562 c 128,-1,7
 365 1596 365 1596 314 1596 c 0,8,9
 259 1596 259 1596 219.5 1555.5 c 128,-1,10
 180 1515 180 1515 167 1449 c 1,11,-1
 82 1486 l 1,12,13
 101 1575 101 1575 163.5 1628 c 128,-1,14
 226 1681 226 1681 314 1681 c 0,15,16
 411 1681 411 1681 476 1621.5 c 128,-1,17
 541 1562 541 1562 541 1467 c 0,18,19
 541 1414 541 1414 514.5 1363 c 128,-1,20
 488 1312 488 1312 425.5 1252 c 128,-1,21
 363 1192 363 1192 255 1113 c 1,22,-1
 553 1113 l 1,23,-1
 553 1026 l 1,24,-1
 78 1026 l 1,0,-1
EndSplineSet
Validated: 1
EndChar

StartChar: uni00B3
Encoding: 179 179 275
Width: 627
Flags: W
LayerCount: 2
Fore
SplineSet
300 1026 m 0,0,1
 206 1026 206 1026 149 1070.5 c 128,-1,2
 92 1115 92 1115 76 1185 c 1,3,-1
 167 1225 l 1,4,5
 169 1176 169 1176 203.5 1144 c 128,-1,6
 238 1112 238 1112 295 1112 c 0,7,8
 351 1112 351 1112 380.5 1141 c 128,-1,9
 410 1170 410 1170 410 1214 c 0,10,11
 410 1266 410 1266 373.5 1300 c 128,-1,12
 337 1334 337 1334 287 1334 c 0,13,14
 273 1334 273 1334 262 1331 c 1,15,-1
 262 1397 l 1,16,-1
 288 1397 l 2,17,18
 333 1397 333 1397 366.5 1428.5 c 128,-1,19
 400 1460 400 1460 400 1503 c 0,20,21
 400 1544 400 1544 370.5 1572 c 128,-1,22
 341 1600 341 1600 299 1600 c 0,23,24
 256 1600 256 1600 223.5 1571 c 128,-1,25
 191 1542 191 1542 187 1498 c 1,26,-1
 109 1532 l 1,27,28
 123 1598 123 1598 173.5 1639 c 128,-1,29
 224 1680 224 1680 305 1680 c 0,30,31
 390 1680 390 1680 444 1635 c 128,-1,32
 498 1590 498 1590 498 1518 c 0,33,34
 498 1473 498 1473 474.5 1433 c 128,-1,35
 451 1393 451 1393 411 1370 c 1,36,37
 460 1351 460 1351 487.5 1307.5 c 128,-1,38
 515 1264 515 1264 515 1209 c 0,39,40
 515 1124 515 1124 455.5 1075 c 128,-1,41
 396 1026 396 1026 300 1026 c 0,0,1
EndSplineSet
Validated: 1
EndChar

StartChar: uni2074
Encoding: 8308 8308 276
Width: 558
Flags: W
LayerCount: 2
Fore
SplineSet
363 1040 m 1,0,-1
 363 1151 l 1,1,-1
 25 1151 l 1,2,-1
 25 1187 l 1,3,-1
 361 1650 l 1,4,-1
 454 1650 l 1,5,-1
 454 1235 l 1,6,-1
 533 1235 l 1,7,-1
 533 1151 l 1,8,-1
 454 1151 l 1,9,-1
 454 1040 l 1,10,-1
 363 1040 l 1,0,-1
156 1235 m 1,11,-1
 363 1235 l 1,12,-1
 363 1528 l 1,13,-1
 156 1235 l 1,11,-1
EndSplineSet
Validated: 1
EndChar

StartChar: fraction
Encoding: 8260 8260 277
Width: 95
Flags: W
LayerCount: 2
Fore
SplineSet
-568 0 m 1,0,-1
 516 1650 l 1,1,-1
 662 1650 l 1,2,-1
 -421 0 l 1,3,-1
 -568 0 l 1,0,-1
EndSplineSet
Validated: 1
EndChar

StartChar: period
Encoding: 46 46 298
Width: 779
Flags: W
LayerCount: 2
Fore
SplineSet
390 -32 m 0,0,1
 353 -32 353 -32 323 -14 c 128,-1,2
 293 4 293 4 275 34 c 128,-1,3
 257 64 257 64 257 100 c 256,4,5
 257 136 257 136 275 166 c 128,-1,6
 293 196 293 196 323 213.5 c 128,-1,7
 353 231 353 231 389 231 c 0,8,9
 426 231 426 231 455.5 213.5 c 128,-1,10
 485 196 485 196 502.5 166 c 128,-1,11
 520 136 520 136 520 100 c 256,12,13
 520 64 520 64 502.5 34 c 128,-1,14
 485 4 485 4 455.5 -14 c 128,-1,15
 426 -32 426 -32 390 -32 c 0,0,1
EndSplineSet
Validated: 1
EndChar

StartChar: comma
Encoding: 44 44 299
Width: 735
Flags: W
LayerCount: 2
Fore
SplineSet
307 -273 m 1,0,-1
 254 -230 l 1,1,2
 274 -208 274 -208 293 -173.5 c 128,-1,3
 312 -139 312 -139 326 -99.5 c 128,-1,4
 340 -60 340 -60 343 -23 c 1,5,6
 296 -13 296 -13 267.5 21 c 128,-1,7
 239 55 239 55 239 102 c 0,8,9
 239 159 239 159 276 195 c 128,-1,10
 313 231 313 231 372 231 c 0,11,12
 433 231 433 231 470 192 c 128,-1,13
 507 153 507 153 507 82 c 0,14,15
 507 -6 507 -6 451.5 -104 c 128,-1,16
 396 -202 396 -202 307 -273 c 1,0,-1
EndSplineSet
Validated: 1
EndChar

StartChar: colon
Encoding: 58 58 300
Width: 747
Flags: W
LayerCount: 2
Fore
SplineSet
371 869 m 0,0,1
 335 869 335 869 305.5 886.5 c 128,-1,2
 276 904 276 904 258 934 c 128,-1,3
 240 964 240 964 240 1000 c 0,4,5
 240 1037 240 1037 258 1066.5 c 128,-1,6
 276 1096 276 1096 305.5 1114 c 128,-1,7
 335 1132 335 1132 371 1132 c 0,8,9
 408 1132 408 1132 437.5 1114 c 128,-1,10
 467 1096 467 1096 485 1066.5 c 128,-1,11
 503 1037 503 1037 503 1000 c 0,12,13
 503 964 503 964 485 934 c 128,-1,14
 467 904 467 904 437.5 886.5 c 128,-1,15
 408 869 408 869 371 869 c 0,0,1
371 -32 m 0,16,17
 335 -32 335 -32 305.5 -14 c 128,-1,18
 276 4 276 4 258 34 c 128,-1,19
 240 64 240 64 240 100 c 256,20,21
 240 136 240 136 258 166 c 128,-1,22
 276 196 276 196 305.5 213.5 c 128,-1,23
 335 231 335 231 371 231 c 0,24,25
 408 231 408 231 437.5 213.5 c 128,-1,26
 467 196 467 196 485 166 c 128,-1,27
 503 136 503 136 503 100 c 256,28,29
 503 64 503 64 485 34 c 128,-1,30
 467 4 467 4 437.5 -14 c 128,-1,31
 408 -32 408 -32 371 -32 c 0,16,17
EndSplineSet
Validated: 1
Substitution2: "'tnum' Tabular Numbers lookup 19-1" colon.tnum
EndChar

StartChar: semicolon
Encoding: 59 59 301
Width: 735
Flags: W
LayerCount: 2
Fore
SplineSet
371 869 m 0,0,1
 335 869 335 869 305.5 886.5 c 128,-1,2
 276 904 276 904 258 934 c 128,-1,3
 240 964 240 964 240 1000 c 0,4,5
 240 1037 240 1037 258 1066.5 c 128,-1,6
 276 1096 276 1096 305.5 1114 c 128,-1,7
 335 1132 335 1132 371 1132 c 0,8,9
 408 1132 408 1132 437.5 1114 c 128,-1,10
 467 1096 467 1096 485 1066.5 c 128,-1,11
 503 1037 503 1037 503 1000 c 0,12,13
 503 964 503 964 485 934 c 128,-1,14
 467 904 467 904 437.5 886.5 c 128,-1,15
 408 869 408 869 371 869 c 0,0,1
307 -273 m 1,16,-1
 254 -230 l 1,17,18
 274 -208 274 -208 293 -173.5 c 128,-1,19
 312 -139 312 -139 326 -99.5 c 128,-1,20
 340 -60 340 -60 343 -23 c 1,21,22
 296 -13 296 -13 267.5 21 c 128,-1,23
 239 55 239 55 239 102 c 0,24,25
 239 159 239 159 276 195 c 128,-1,26
 313 231 313 231 372 231 c 0,27,28
 433 231 433 231 470 192 c 128,-1,29
 507 153 507 153 507 82 c 0,30,31
 507 -6 507 -6 451.5 -104 c 128,-1,32
 396 -202 396 -202 307 -273 c 1,16,-1
EndSplineSet
Validated: 1
EndChar

StartChar: ellipsis
Encoding: 8230 8230 302
Width: 1644
Flags: W
LayerCount: 2
Fore
SplineSet
390 -32 m 0,0,1
 353 -32 353 -32 323 -14 c 128,-1,2
 293 4 293 4 275 34 c 128,-1,3
 257 64 257 64 257 100 c 256,4,5
 257 136 257 136 275 166 c 128,-1,6
 293 196 293 196 323 213.5 c 128,-1,7
 353 231 353 231 389 231 c 0,8,9
 426 231 426 231 455.5 213.5 c 128,-1,10
 485 196 485 196 502.5 166 c 128,-1,11
 520 136 520 136 520 100 c 256,12,13
 520 64 520 64 502.5 34 c 128,-1,14
 485 4 485 4 455.5 -14 c 128,-1,15
 426 -32 426 -32 390 -32 c 0,0,1
823 -32 m 0,16,17
 786 -32 786 -32 756 -14 c 128,-1,18
 726 4 726 4 708.5 34 c 128,-1,19
 691 64 691 64 691 100 c 256,20,21
 691 136 691 136 708.5 166 c 128,-1,22
 726 196 726 196 756 213.5 c 128,-1,23
 786 231 786 231 823 231 c 0,24,25
 859 231 859 231 888.5 213.5 c 128,-1,26
 918 196 918 196 936 166 c 128,-1,27
 954 136 954 136 954 100 c 256,28,29
 954 64 954 64 936 34 c 128,-1,30
 918 4 918 4 888.5 -14 c 128,-1,31
 859 -32 859 -32 823 -32 c 0,16,17
1255 -32 m 0,32,33
 1218 -32 1218 -32 1188.5 -14 c 128,-1,34
 1159 4 1159 4 1141 34.5 c 128,-1,35
 1123 65 1123 65 1123 100 c 0,36,37
 1123 136 1123 136 1141 166 c 128,-1,38
 1159 196 1159 196 1188.5 213.5 c 128,-1,39
 1218 231 1218 231 1255 231 c 0,40,41
 1291 231 1291 231 1320.5 213.5 c 128,-1,42
 1350 196 1350 196 1368 166 c 128,-1,43
 1386 136 1386 136 1386 100 c 256,44,45
 1386 64 1386 64 1368 34 c 128,-1,46
 1350 4 1350 4 1320.5 -14 c 128,-1,47
 1291 -32 1291 -32 1255 -32 c 0,32,33
EndSplineSet
Validated: 1
EndChar

StartChar: exclam
Encoding: 33 33 303
Width: 747
Flags: W
LayerCount: 2
Fore
SplineSet
300 430 m 1,0,-1
 278 1720 l 1,1,-1
 469 1720 l 1,2,-1
 447 430 l 1,3,-1
 300 430 l 1,0,-1
373 -32 m 256,4,5
 337 -32 337 -32 307 -14 c 128,-1,6
 277 4 277 4 259 34 c 128,-1,7
 241 64 241 64 241 100 c 256,8,9
 241 136 241 136 259 166 c 128,-1,10
 277 196 277 196 307 213.5 c 128,-1,11
 337 231 337 231 373 231 c 256,12,13
 409 231 409 231 439 213.5 c 128,-1,14
 469 196 469 196 486.5 166 c 128,-1,15
 504 136 504 136 504 100 c 256,16,17
 504 64 504 64 486.5 34 c 128,-1,18
 469 4 469 4 439 -14 c 128,-1,19
 409 -32 409 -32 373 -32 c 256,4,5
EndSplineSet
Validated: 1
EndChar

StartChar: exclamdown
Encoding: 161 161 304
Width: 749
Flags: W
LayerCount: 2
Fore
SplineSet
278 -522 m 1,0,-1
 301 768 l 1,1,-1
 448 768 l 1,2,-1
 470 -522 l 1,3,-1
 278 -522 l 1,0,-1
373 967 m 0,4,5
 337 967 337 967 307.5 985 c 128,-1,6
 278 1003 278 1003 260 1032.5 c 128,-1,7
 242 1062 242 1062 242 1098 c 0,8,9
 242 1135 242 1135 260 1164.5 c 128,-1,10
 278 1194 278 1194 307.5 1212 c 128,-1,11
 337 1230 337 1230 373 1230 c 0,12,13
 410 1230 410 1230 439.5 1212 c 128,-1,14
 469 1194 469 1194 487 1164.5 c 128,-1,15
 505 1135 505 1135 505 1098 c 0,16,17
 505 1062 505 1062 487 1032.5 c 128,-1,18
 469 1003 469 1003 439.5 985 c 128,-1,19
 410 967 410 967 373 967 c 0,4,5
EndSplineSet
Validated: 1
EndChar

StartChar: question
Encoding: 63 63 305
Width: 1299
Flags: W
LayerCount: 2
Fore
SplineSet
602 -32 m 0,0,1
 566 -32 566 -32 536 -14 c 128,-1,2
 506 4 506 4 488.5 34 c 128,-1,3
 471 64 471 64 471 100 c 256,4,5
 471 136 471 136 488.5 166 c 128,-1,6
 506 196 506 196 536 213.5 c 128,-1,7
 566 231 566 231 602 231 c 0,8,9
 639 231 639 231 668.5 213.5 c 128,-1,10
 698 196 698 196 716 166 c 128,-1,11
 734 136 734 136 734 100 c 256,12,13
 734 64 734 64 716 34 c 128,-1,14
 698 4 698 4 668.5 -14 c 128,-1,15
 639 -32 639 -32 602 -32 c 0,0,1
514 448 m 1,16,-1
 514 867 l 1,17,18
 534 863 534 863 556 860.5 c 128,-1,19
 578 858 578 858 604 858 c 0,20,21
 711 858 711 858 792.5 896.5 c 128,-1,22
 874 935 874 935 920 1008.5 c 128,-1,23
 966 1082 966 1082 966 1186 c 0,24,25
 966 1286 966 1286 923.5 1357.5 c 128,-1,26
 881 1429 881 1429 805 1467 c 128,-1,27
 729 1505 729 1505 627 1505 c 0,28,29
 479 1505 479 1505 387 1421.5 c 128,-1,30
 295 1338 295 1338 286 1192 c 1,31,-1
 121 1221 l 1,32,33
 133 1368 133 1368 203.5 1470.5 c 128,-1,34
 274 1573 274 1573 384.5 1626.5 c 128,-1,35
 495 1680 495 1680 627 1680 c 0,36,37
 780 1680 780 1680 898 1613.5 c 128,-1,38
 1016 1547 1016 1547 1083 1435 c 128,-1,39
 1150 1323 1150 1323 1150 1185 c 0,40,41
 1150 1056 1150 1056 1091.5 948.5 c 128,-1,42
 1033 841 1033 841 930 773.5 c 128,-1,43
 827 706 827 706 693 695 c 1,44,-1
 693 448 l 1,45,-1
 514 448 l 1,16,-1
EndSplineSet
Validated: 1
EndChar

StartChar: questiondown
Encoding: 191 191 306
Width: 1298
Flags: W
LayerCount: 2
Fore
SplineSet
671 -550 m 0,0,1
 519 -550 519 -550 400.5 -483.5 c 128,-1,2
 282 -417 282 -417 215 -304.5 c 128,-1,3
 148 -192 148 -192 148 -55 c 0,4,5
 148 74 148 74 206.5 181.5 c 128,-1,6
 265 289 265 289 368.5 357 c 128,-1,7
 472 425 472 425 606 435 c 1,8,-1
 606 682 l 1,9,-1
 785 682 l 1,10,-1
 785 263 l 1,11,12
 765 267 765 267 743 269.5 c 128,-1,13
 721 272 721 272 694 272 c 0,14,15
 587 272 587 272 505.5 233.5 c 128,-1,16
 424 195 424 195 378 122 c 128,-1,17
 332 49 332 49 332 -56 c 0,18,19
 332 -156 332 -156 374.5 -227.5 c 128,-1,20
 417 -299 417 -299 493.5 -337 c 128,-1,21
 570 -375 570 -375 671 -375 c 0,22,23
 820 -375 820 -375 912 -291 c 128,-1,24
 1004 -207 1004 -207 1013 -62 c 1,25,-1
 1178 -91 l 1,26,27
 1166 -237 1166 -237 1095 -340 c 128,-1,28
 1024 -443 1024 -443 913.5 -496.5 c 128,-1,29
 803 -550 803 -550 671 -550 c 0,0,1
696 899 m 0,30,31
 660 899 660 899 630 917 c 128,-1,32
 600 935 600 935 582.5 964.5 c 128,-1,33
 565 994 565 994 565 1030 c 0,34,35
 565 1067 565 1067 582.5 1096.5 c 128,-1,36
 600 1126 600 1126 630 1144 c 128,-1,37
 660 1162 660 1162 696 1162 c 0,38,39
 733 1162 733 1162 762.5 1144 c 128,-1,40
 792 1126 792 1126 810 1096.5 c 128,-1,41
 828 1067 828 1067 828 1030 c 0,42,43
 828 994 828 994 810 964.5 c 128,-1,44
 792 935 792 935 762.5 917 c 128,-1,45
 733 899 733 899 696 899 c 0,30,31
EndSplineSet
Validated: 1
EndChar

StartChar: periodcentered
Encoding: 183 183 307
Width: 779
Flags: W
LayerCount: 2
Fore
SplineSet
390 407 m 0,0,1
 353 407 353 407 323 425 c 128,-1,2
 293 443 293 443 275 472.5 c 128,-1,3
 257 502 257 502 257 539 c 256,4,5
 257 576 257 576 275 605.5 c 128,-1,6
 293 635 293 635 323 652.5 c 128,-1,7
 353 670 353 670 389 670 c 0,8,9
 426 670 426 670 455.5 652.5 c 128,-1,10
 485 635 485 635 502.5 605.5 c 128,-1,11
 520 576 520 576 520 539 c 256,12,13
 520 502 520 502 502.5 472.5 c 128,-1,14
 485 443 485 443 455.5 425 c 128,-1,15
 426 407 426 407 390 407 c 0,0,1
EndSplineSet
Validated: 1
EndChar

StartChar: bullet
Encoding: 8226 8226 308
Width: 904
Flags: W
LayerCount: 2
Fore
SplineSet
452 503 m 256,0,1
 393 503 393 503 344.5 531 c 128,-1,2
 296 559 296 559 267.5 607 c 128,-1,3
 239 655 239 655 239 714 c 256,4,5
 239 773 239 773 267.5 821 c 128,-1,6
 296 869 296 869 344.5 897 c 128,-1,7
 393 925 393 925 452 925 c 256,8,9
 511 925 511 925 559 897 c 128,-1,10
 607 869 607 869 635 821 c 128,-1,11
 663 773 663 773 663 714 c 256,12,13
 663 655 663 655 635 607 c 128,-1,14
 607 559 607 559 559 531 c 128,-1,15
 511 503 511 503 452 503 c 256,0,1
EndSplineSet
Validated: 1
EndChar

StartChar: asterisk
Encoding: 42 42 309
Width: 941
Flags: W
LayerCount: 2
Fore
SplineSet
355 1225 m 1,0,-1
 283 1275 l 1,1,-1
 393 1435 l 1,2,-1
 208 1499 l 1,3,-1
 236 1585 l 1,4,-1
 422 1527 l 1,5,-1
 422 1720 l 1,6,-1
 518 1720 l 1,7,-1
 518 1527 l 1,8,-1
 704 1585 l 1,9,-1
 732 1499 l 1,10,-1
 546 1435 l 1,11,-1
 657 1275 l 1,12,-1
 585 1225 l 1,13,-1
 469 1378 l 1,14,-1
 355 1225 l 1,0,-1
EndSplineSet
Validated: 1
EndChar

StartChar: numbersign
Encoding: 35 35 310
Width: 1478
Flags: W
LayerCount: 2
Fore
SplineSet
315 0 m 1,0,-1
 370 425 l 1,1,-1
 182 425 l 1,2,-1
 182 557 l 1,3,-1
 387 557 l 1,4,-1
 439 940 l 1,5,-1
 182 940 l 1,6,-1
 182 1072 l 1,7,-1
 455 1072 l 1,8,-1
 511 1498 l 1,9,-1
 643 1498 l 1,10,-1
 586 1072 l 1,11,-1
 974 1072 l 1,12,-1
 1030 1498 l 1,13,-1
 1162 1498 l 1,14,-1
 1106 1072 l 1,15,-1
 1296 1072 l 1,16,-1
 1296 940 l 1,17,-1
 1090 940 l 1,18,-1
 1037 557 l 1,19,-1
 1296 557 l 1,20,-1
 1296 425 l 1,21,-1
 1021 425 l 1,22,-1
 966 0 l 1,23,-1
 835 0 l 1,24,-1
 890 425 l 1,25,-1
 502 425 l 1,26,-1
 447 0 l 1,27,-1
 315 0 l 1,0,-1
518 557 m 1,28,-1
 906 557 l 1,29,-1
 958 940 l 1,30,-1
 570 940 l 1,31,-1
 518 557 l 1,28,-1
EndSplineSet
Validated: 1
EndChar

StartChar: slash
Encoding: 47 47 311
Width: 1033
Flags: W
LayerCount: 2
Fore
SplineSet
24 -240 m 1,0,-1
 848 1720 l 1,1,-1
 1009 1720 l 1,2,-1
 185 -240 l 1,3,-1
 24 -240 l 1,0,-1
EndSplineSet
Validated: 1
Substitution2: "'frac' Diagonal Fractions in Latin lookup 10 subtable" fraction
Substitution2: "'aalt' Access All Alternates in Latin lookup 0 subtable" fraction
EndChar

StartChar: backslash
Encoding: 92 92 312
Width: 1033
Flags: W
LayerCount: 2
Fore
SplineSet
848 0 m 1,0,-1
 24 1720 l 1,1,-1
 185 1720 l 1,2,-1
 1009 0 l 1,3,-1
 848 0 l 1,0,-1
EndSplineSet
Validated: 1
EndChar

StartChar: parenleft
Encoding: 40 40 313
Width: 747
Flags: W
LayerCount: 2
Fore
SplineSet
517 -520 m 1,0,1
 457 -443 457 -443 393 -329 c 128,-1,2
 329 -215 329 -215 274 -69.5 c 128,-1,3
 219 76 219 76 185.5 248 c 128,-1,4
 152 420 152 420 152 614 c 256,5,6
 152 808 152 808 186 981 c 128,-1,7
 220 1154 220 1154 274.5 1299.5 c 128,-1,8
 329 1445 329 1445 393 1559 c 128,-1,9
 457 1673 457 1673 517 1750 c 1,10,-1
 643 1696 l 1,11,12
 574 1594 574 1594 503 1435 c 128,-1,13
 432 1276 432 1276 384.5 1069 c 128,-1,14
 337 862 337 862 337 614 c 0,15,16
 337 372 337 372 383.5 166 c 128,-1,17
 430 -40 430 -40 501 -200 c 128,-1,18
 572 -360 572 -360 643 -466 c 1,19,-1
 517 -520 l 1,0,1
EndSplineSet
Validated: 1
EndChar

StartChar: parenright
Encoding: 41 41 314
Width: 747
Flags: W
LayerCount: 2
Fore
SplineSet
230 -520 m 1,0,-1
 104 -466 l 1,1,2
 202 -321 202 -321 270 -146 c 128,-1,3
 338 29 338 29 373.5 222 c 128,-1,4
 409 415 409 415 409 614 c 0,5,6
 409 807 409 807 375 998.5 c 128,-1,7
 341 1190 341 1190 273.5 1367.5 c 128,-1,8
 206 1545 206 1545 104 1696 c 1,9,-1
 230 1750 l 1,10,11
 406 1519 406 1519 499.5 1224.5 c 128,-1,12
 593 930 593 930 593 615 c 0,13,14
 593 310 593 310 502.5 15 c 128,-1,15
 412 -280 412 -280 230 -520 c 1,0,-1
EndSplineSet
Validated: 1
EndChar

StartChar: braceleft
Encoding: 123 123 315
Width: 778
Flags: W
LayerCount: 2
Fore
SplineSet
561 -520 m 2,0,1
 465 -520 465 -520 403 -487.5 c 128,-1,2
 341 -455 341 -455 306 -401.5 c 128,-1,3
 271 -348 271 -348 257 -284 c 128,-1,4
 243 -220 243 -220 243 -158 c 2,5,-1
 243 438 l 2,6,7
 243 495 243 495 217 519.5 c 128,-1,8
 191 544 191 544 143 544 c 1,9,-1
 143 656 l 1,10,11
 191 656 191 656 217 680.5 c 128,-1,12
 243 705 243 705 243 762 c 2,13,-1
 243 1358 l 2,14,15
 243 1420 243 1420 257 1484 c 128,-1,16
 271 1548 271 1548 306 1601.5 c 128,-1,17
 341 1655 341 1655 403 1687.5 c 128,-1,18
 465 1720 465 1720 561 1720 c 2,19,-1
 666 1720 l 1,20,-1
 666 1572 l 1,21,-1
 613 1572 l 2,22,23
 516 1572 516 1572 465 1511.5 c 128,-1,24
 414 1451 414 1451 414 1344 c 2,25,-1
 414 740 l 2,26,27
 414 684 414 684 394.5 650.5 c 128,-1,28
 375 617 375 617 343 600 c 1,29,30
 375 583 375 583 394.5 549 c 128,-1,31
 414 515 414 515 414 460 c 2,32,-1
 414 -144 l 2,33,34
 414 -251 414 -251 465 -311.5 c 128,-1,35
 516 -372 516 -372 613 -372 c 2,36,-1
 666 -372 l 1,37,-1
 666 -520 l 1,38,-1
 561 -520 l 2,0,1
EndSplineSet
Validated: 1
EndChar

StartChar: braceright
Encoding: 125 125 316
Width: 778
Flags: W
LayerCount: 2
Fore
SplineSet
112 -520 m 1,0,-1
 112 -372 l 1,1,-1
 165 -372 l 2,2,3
 263 -372 263 -372 313.5 -311.5 c 128,-1,4
 364 -251 364 -251 364 -144 c 2,5,-1
 364 460 l 2,6,7
 364 515 364 515 384 549 c 128,-1,8
 404 583 404 583 436 600 c 1,9,10
 404 617 404 617 384 650.5 c 128,-1,11
 364 684 364 684 364 740 c 2,12,-1
 364 1344 l 2,13,14
 364 1451 364 1451 313.5 1511.5 c 128,-1,15
 263 1572 263 1572 165 1572 c 2,16,-1
 112 1572 l 1,17,-1
 112 1720 l 1,18,-1
 217 1720 l 2,19,20
 313 1720 313 1720 375 1687.5 c 128,-1,21
 437 1655 437 1655 472 1601.5 c 128,-1,22
 507 1548 507 1548 521 1484 c 128,-1,23
 535 1420 535 1420 535 1358 c 2,24,-1
 535 762 l 2,25,26
 535 705 535 705 561 680.5 c 128,-1,27
 587 656 587 656 636 656 c 1,28,-1
 636 544 l 1,29,30
 587 544 587 544 561 519.5 c 128,-1,31
 535 495 535 495 535 438 c 2,32,-1
 535 -158 l 2,33,34
 535 -220 535 -220 521 -284 c 128,-1,35
 507 -348 507 -348 472 -401.5 c 128,-1,36
 437 -455 437 -455 375 -487.5 c 128,-1,37
 313 -520 313 -520 217 -520 c 2,38,-1
 112 -520 l 1,0,-1
EndSplineSet
Validated: 1
EndChar

StartChar: bracketleft
Encoding: 91 91 317
Width: 806
Flags: W
LayerCount: 2
Fore
SplineSet
246 -520 m 1,0,-1
 246 1720 l 1,1,-1
 717 1720 l 1,2,-1
 717 1582 l 1,3,-1
 417 1582 l 1,4,-1
 417 -382 l 1,5,-1
 717 -382 l 1,6,-1
 717 -520 l 1,7,-1
 246 -520 l 1,0,-1
EndSplineSet
Validated: 1
EndChar

StartChar: bracketright
Encoding: 93 93 318
Width: 806
Flags: W
LayerCount: 2
Fore
SplineSet
89 -520 m 1,0,-1
 89 -382 l 1,1,-1
 389 -382 l 1,2,-1
 389 1582 l 1,3,-1
 89 1582 l 1,4,-1
 89 1720 l 1,5,-1
 560 1720 l 1,6,-1
 560 -520 l 1,7,-1
 89 -520 l 1,0,-1
EndSplineSet
Validated: 1
EndChar

StartChar: hyphen
Encoding: 45 45 319
Width: 1054
Flags: W
LayerCount: 2
Fore
SplineSet
205 496 m 1,0,-1
 205 663 l 1,1,-1
 849 663 l 1,2,-1
 849 496 l 1,3,-1
 205 496 l 1,0,-1
EndSplineSet
Validated: 1
EndChar

StartChar: uni00AD
Encoding: 173 173 320
Width: 1054
Flags: W
LayerCount: 2
Fore
SplineSet
205 496 m 1,0,-1
 205 663 l 1,1,-1
 849 663 l 1,2,-1
 849 496 l 1,3,-1
 205 496 l 1,0,-1
EndSplineSet
Validated: 1
EndChar

StartChar: endash
Encoding: 8211 8211 321
Width: 1326
Flags: W
LayerCount: 2
Fore
SplineSet
205 496 m 1,0,-1
 205 662 l 1,1,-1
 1121 662 l 1,2,-1
 1121 496 l 1,3,-1
 205 496 l 1,0,-1
EndSplineSet
Validated: 1
EndChar

StartChar: emdash
Encoding: 8212 8212 322
Width: 2215
Flags: W
LayerCount: 2
Fore
SplineSet
205 496 m 1,0,-1
 205 662 l 1,1,-1
 2010 662 l 1,2,-1
 2010 496 l 1,3,-1
 205 496 l 1,0,-1
EndSplineSet
Validated: 1
EndChar

StartChar: underscore
Encoding: 95 95 323
Width: 1436
Flags: W
LayerCount: 2
Fore
SplineSet
205 -201 m 1,0,-1
 205 -101 l 1,1,-1
 1231 -101 l 1,2,-1
 1231 -201 l 1,3,-1
 205 -201 l 1,0,-1
EndSplineSet
Validated: 1
EndChar

StartChar: quotesinglbase
Encoding: 8218 8218 324
Width: 735
Flags: W
LayerCount: 2
Fore
SplineSet
260 -248 m 1,0,-1
 212 -208 l 1,1,2
 231 -187 231 -187 248.5 -154.5 c 128,-1,3
 266 -122 266 -122 279 -84.5 c 128,-1,4
 292 -47 292 -47 295 -12 c 1,5,6
 251 -4 251 -4 224 28 c 128,-1,7
 197 60 197 60 197 104 c 0,8,9
 197 157 197 157 231.5 190 c 128,-1,10
 266 223 266 223 321 223 c 0,11,12
 377 223 377 223 412 186.5 c 128,-1,13
 447 150 447 150 447 84 c 0,14,15
 447 1 447 1 395 -90.5 c 128,-1,16
 343 -182 343 -182 260 -248 c 1,0,-1
EndSplineSet
Validated: 1
EndChar

StartChar: quotedblbase
Encoding: 8222 8222 325
Width: 942
Flags: W
LayerCount: 2
Fore
SplineSet
256 -248 m 1,0,-1
 208 -208 l 1,1,2
 227 -187 227 -187 244.5 -154.5 c 128,-1,3
 262 -122 262 -122 275 -84.5 c 128,-1,4
 288 -47 288 -47 291 -12 c 1,5,6
 247 -4 247 -4 220 28 c 128,-1,7
 193 60 193 60 193 104 c 0,8,9
 193 157 193 157 227.5 190 c 128,-1,10
 262 223 262 223 317 223 c 0,11,12
 373 223 373 223 408 186.5 c 128,-1,13
 443 150 443 150 443 84 c 0,14,15
 443 1 443 1 390.5 -90.5 c 128,-1,16
 338 -182 338 -182 256 -248 c 1,0,-1
571 -248 m 1,17,-1
 523 -208 l 1,18,19
 542 -187 542 -187 559.5 -154.5 c 128,-1,20
 577 -122 577 -122 590 -84.5 c 128,-1,21
 603 -47 603 -47 606 -12 c 1,22,23
 562 -4 562 -4 535 28 c 128,-1,24
 508 60 508 60 508 104 c 0,25,26
 508 157 508 157 542.5 190 c 128,-1,27
 577 223 577 223 632 223 c 0,28,29
 688 223 688 223 723 186.5 c 128,-1,30
 758 150 758 150 758 84 c 0,31,32
 758 1 758 1 706 -90.5 c 128,-1,33
 654 -182 654 -182 571 -248 c 1,17,-1
EndSplineSet
Validated: 1
EndChar

StartChar: quotedblleft
Encoding: 8220 8220 326
Width: 965
Flags: W
LayerCount: 2
Fore
SplineSet
635 1208 m 0,0,1
 579 1208 579 1208 544 1244 c 128,-1,2
 509 1280 509 1280 509 1346 c 0,3,4
 509 1429 509 1429 561.5 1521 c 128,-1,5
 614 1613 614 1613 696 1679 c 1,6,-1
 743 1638 l 1,7,8
 724 1618 724 1618 706.5 1585.5 c 128,-1,9
 689 1553 689 1553 676.5 1516 c 128,-1,10
 664 1479 664 1479 661 1443 c 1,11,12
 705 1434 705 1434 731.5 1402.5 c 128,-1,13
 758 1371 758 1371 758 1327 c 0,14,15
 758 1275 758 1275 724 1241.5 c 128,-1,16
 690 1208 690 1208 635 1208 c 0,0,1
320 1208 m 0,17,18
 263 1208 263 1208 228.5 1244 c 128,-1,19
 194 1280 194 1280 194 1346 c 0,20,21
 194 1429 194 1429 246 1521 c 128,-1,22
 298 1613 298 1613 380 1679 c 1,23,-1
 428 1638 l 1,24,25
 409 1618 409 1618 391.5 1585.5 c 128,-1,26
 374 1553 374 1553 361.5 1516 c 128,-1,27
 349 1479 349 1479 346 1443 c 1,28,29
 390 1434 390 1434 416.5 1402.5 c 128,-1,30
 443 1371 443 1371 443 1327 c 0,31,32
 443 1275 443 1275 409 1241.5 c 128,-1,33
 375 1208 375 1208 320 1208 c 0,17,18
EndSplineSet
Validated: 1
EndChar

StartChar: quotedblright
Encoding: 8221 8221 327
Width: 963
Flags: W
LayerCount: 2
Fore
SplineSet
583 1209 m 1,0,-1
 535 1249 l 1,1,2
 554 1270 554 1270 571.5 1302 c 128,-1,3
 589 1334 589 1334 601.5 1372 c 128,-1,4
 614 1410 614 1410 617 1445 c 1,5,6
 574 1453 574 1453 547 1485 c 128,-1,7
 520 1517 520 1517 520 1561 c 0,8,9
 520 1614 520 1614 554 1647 c 128,-1,10
 588 1680 588 1680 643 1680 c 0,11,12
 700 1680 700 1680 734.5 1643.5 c 128,-1,13
 769 1607 769 1607 769 1541 c 0,14,15
 769 1458 769 1458 717 1366.5 c 128,-1,16
 665 1275 665 1275 583 1209 c 1,0,-1
267 1209 m 1,17,-1
 220 1249 l 1,18,19
 239 1270 239 1270 256.5 1302 c 128,-1,20
 274 1334 274 1334 286.5 1372 c 128,-1,21
 299 1410 299 1410 302 1445 c 1,22,23
 259 1453 259 1453 232 1485 c 128,-1,24
 205 1517 205 1517 205 1561 c 0,25,26
 205 1614 205 1614 239 1647 c 128,-1,27
 273 1680 273 1680 328 1680 c 0,28,29
 384 1680 384 1680 419 1643.5 c 128,-1,30
 454 1607 454 1607 454 1541 c 0,31,32
 454 1458 454 1458 402 1366.5 c 128,-1,33
 350 1275 350 1275 267 1209 c 1,17,-1
EndSplineSet
Validated: 1
EndChar

StartChar: quoteleft
Encoding: 8216 8216 328
Width: 642
Flags: W
LayerCount: 2
Fore
SplineSet
316 1208 m 0,0,1
 260 1208 260 1208 225 1244 c 128,-1,2
 190 1280 190 1280 190 1346 c 0,3,4
 190 1429 190 1429 242.5 1521 c 128,-1,5
 295 1613 295 1613 377 1679 c 1,6,-1
 425 1638 l 1,7,8
 406 1618 406 1618 388.5 1585.5 c 128,-1,9
 371 1553 371 1553 358.5 1516 c 128,-1,10
 346 1479 346 1479 342 1443 c 1,11,12
 386 1434 386 1434 413 1402.5 c 128,-1,13
 440 1371 440 1371 440 1327 c 0,14,15
 440 1275 440 1275 405.5 1241.5 c 128,-1,16
 371 1208 371 1208 316 1208 c 0,0,1
EndSplineSet
Validated: 1
EndChar

StartChar: quoteright
Encoding: 8217 8217 329
Width: 640
Flags: W
LayerCount: 2
Fore
SplineSet
262 1209 m 1,0,-1
 215 1249 l 1,1,2
 234 1270 234 1270 251.5 1302.5 c 128,-1,3
 269 1335 269 1335 281.5 1372.5 c 128,-1,4
 294 1410 294 1410 297 1445 c 1,5,6
 254 1454 254 1454 227 1485.5 c 128,-1,7
 200 1517 200 1517 200 1561 c 0,8,9
 200 1614 200 1614 234 1647 c 128,-1,10
 268 1680 268 1680 323 1680 c 0,11,12
 379 1680 379 1680 414 1644 c 128,-1,13
 449 1608 449 1608 449 1542 c 0,14,15
 449 1459 449 1459 397 1367 c 128,-1,16
 345 1275 345 1275 262 1209 c 1,0,-1
EndSplineSet
Validated: 1
EndChar

StartChar: guillemotleft
Encoding: 171 171 330
Width: 1103
Flags: W
LayerCount: 2
Fore
SplineSet
505 57 m 1,0,-1
 115 557 l 1,1,-1
 505 1057 l 1,2,-1
 616 970 l 1,3,-1
 293 557 l 1,4,-1
 616 143 l 1,5,-1
 505 57 l 1,0,-1
859 57 m 1,6,-1
 469 557 l 1,7,-1
 859 1057 l 1,8,-1
 970 970 l 1,9,-1
 647 557 l 1,10,-1
 970 143 l 1,11,-1
 859 57 l 1,6,-1
EndSplineSet
Validated: 1
EndChar

StartChar: guillemotright
Encoding: 187 187 331
Width: 1092
Flags: W
LayerCount: 2
Fore
SplineSet
242 57 m 1,0,-1
 131 143 l 1,1,-1
 454 557 l 1,2,-1
 131 970 l 1,3,-1
 242 1057 l 1,4,-1
 632 557 l 1,5,-1
 242 57 l 1,0,-1
587 57 m 1,6,-1
 477 143 l 1,7,-1
 800 557 l 1,8,-1
 477 970 l 1,9,-1
 587 1057 l 1,10,-1
 977 557 l 1,11,-1
 587 57 l 1,6,-1
EndSplineSet
Validated: 1
EndChar

StartChar: guilsinglleft
Encoding: 8249 8249 332
Width: 748
Flags: W
LayerCount: 2
Fore
SplineSet
505 57 m 1,0,-1
 115 557 l 1,1,-1
 505 1057 l 1,2,-1
 615 970 l 1,3,-1
 292 557 l 1,4,-1
 615 143 l 1,5,-1
 505 57 l 1,0,-1
EndSplineSet
Validated: 1
EndChar

StartChar: guilsinglright
Encoding: 8250 8250 333
Width: 747
Flags: W
LayerCount: 2
Fore
SplineSet
242 57 m 1,0,-1
 131 143 l 1,1,-1
 454 557 l 1,2,-1
 131 970 l 1,3,-1
 242 1057 l 1,4,-1
 632 557 l 1,5,-1
 242 57 l 1,0,-1
EndSplineSet
Validated: 1
EndChar

StartChar: quotedbl
Encoding: 34 34 334
Width: 932
Flags: W
LayerCount: 2
Fore
SplineSet
544 1176 m 1,0,-1
 508 1664 l 1,1,-1
 704 1664 l 1,2,-1
 668 1176 l 1,3,-1
 544 1176 l 1,0,-1
264 1176 m 1,4,-1
 228 1664 l 1,5,-1
 424 1664 l 1,6,-1
 388 1176 l 1,7,-1
 264 1176 l 1,4,-1
EndSplineSet
Validated: 1
EndChar

StartChar: quotesingle
Encoding: 39 39 335
Width: 652
Flags: W
LayerCount: 2
Fore
SplineSet
264 1176 m 1,0,-1
 228 1664 l 1,1,-1
 424 1664 l 1,2,-1
 388 1176 l 1,3,-1
 264 1176 l 1,0,-1
EndSplineSet
Validated: 1
EndChar

StartChar: cent
Encoding: 162 162 339
Width: 1309
Flags: W
LayerCount: 2
Fore
SplineSet
689 -258 m 1,0,-1
 689 -25 l 1,1,2
 548 -9 548 -9 437.5 65.5 c 128,-1,3
 327 140 327 140 264 256.5 c 128,-1,4
 201 373 201 373 201 512 c 0,5,6
 201 642 201 642 256 752 c 128,-1,7
 311 862 311 862 409 937.5 c 128,-1,8
 507 1013 507 1013 637 1039 c 1,9,-1
 637 1272 l 1,10,-1
 760 1272 l 1,11,-1
 760 1055 l 1,12,13
 867 1054 867 1054 953 1026.5 c 128,-1,14
 1039 999 1039 999 1106 946 c 1,15,-1
 1042 814 l 1,16,17
 991 857 991 857 923.5 879.5 c 128,-1,18
 856 902 856 902 781 902 c 0,19,20
 669 902 669 902 583 852.5 c 128,-1,21
 497 803 497 803 448.5 715 c 128,-1,22
 400 627 400 627 400 513 c 256,23,24
 400 399 400 399 448.5 311 c 128,-1,25
 497 223 497 223 583.5 173 c 128,-1,26
 670 123 670 123 782 123 c 0,27,28
 856 123 856 123 924.5 146 c 128,-1,29
 993 169 993 169 1042 209 c 1,30,-1
 1106 77 l 1,31,32
 1048 32 1048 32 972 4.5 c 128,-1,33
 896 -23 896 -23 813 -29 c 1,34,-1
 813 -258 l 1,35,-1
 689 -258 l 1,0,-1
EndSplineSet
Validated: 1
EndChar

StartChar: currency
Encoding: 164 164 340
Width: 1228
Flags: W
LayerCount: 2
Fore
SplineSet
190 142 m 1,0,-1
 118 214 l 1,1,-1
 254 351 l 1,2,3
 208 410 208 410 181 483 c 128,-1,4
 154 556 154 556 154 639 c 256,5,6
 154 722 154 722 181 795.5 c 128,-1,7
 208 869 208 869 254 927 c 1,8,-1
 118 1063 l 1,9,-1
 190 1136 l 1,10,-1
 326 999 l 1,11,12
 385 1047 385 1047 458.5 1073.5 c 128,-1,13
 532 1100 532 1100 614 1100 c 0,14,15
 697 1100 697 1100 771 1073.5 c 128,-1,16
 845 1047 845 1047 903 999 c 1,17,-1
 1039 1136 l 1,18,-1
 1110 1063 l 1,19,-1
 974 927 l 1,20,21
 1021 869 1021 869 1047.5 795.5 c 128,-1,22
 1074 722 1074 722 1074 639 c 256,23,24
 1074 556 1074 556 1047.5 482.5 c 128,-1,25
 1021 409 1021 409 974 350 c 1,26,-1
 1110 214 l 1,27,-1
 1039 142 l 1,28,-1
 903 278 l 1,29,30
 845 231 845 231 771 204 c 128,-1,31
 697 177 697 177 614 177 c 0,32,33
 532 177 532 177 458.5 204 c 128,-1,34
 385 231 385 231 326 279 c 1,35,-1
 190 142 l 1,0,-1
614 337 m 256,36,37
 699 337 699 337 767.5 377 c 128,-1,38
 836 417 836 417 876.5 485.5 c 128,-1,39
 917 554 917 554 917 639 c 0,40,41
 917 725 917 725 876.5 793 c 128,-1,42
 836 861 836 861 767.5 900.5 c 128,-1,43
 699 940 699 940 614 940 c 256,44,45
 529 940 529 940 460.5 900.5 c 128,-1,46
 392 861 392 861 351.5 793 c 128,-1,47
 311 725 311 725 311 639 c 0,48,49
 311 554 311 554 351.5 485.5 c 128,-1,50
 392 417 392 417 460.5 377 c 128,-1,51
 529 337 529 337 614 337 c 256,36,37
EndSplineSet
Validated: 1
EndChar

StartChar: dollar
Encoding: 36 36 341
Width: 1471
Flags: W
LayerCount: 2
Fore
SplineSet
703 -276 m 1,0,-1
 703 -30 l 1,1,2
 622 -28 622 -28 539.5 -4 c 128,-1,3
 457 20 457 20 382.5 61 c 128,-1,4
 308 102 308 102 250 154 c 128,-1,5
 192 206 192 206 162 263 c 1,6,-1
 273 420 l 1,7,8
 323 342 323 342 399 283 c 128,-1,9
 475 224 475 224 565 191 c 128,-1,10
 655 158 655 158 745 158 c 0,11,12
 837 158 837 158 909 192.5 c 128,-1,13
 981 227 981 227 1022 290.5 c 128,-1,14
 1063 354 1063 354 1063 440 c 0,15,16
 1063 517 1063 517 1030 572 c 128,-1,17
 997 627 997 627 939.5 667.5 c 128,-1,18
 882 708 882 708 806.5 741.5 c 128,-1,19
 731 775 731 775 645 811 c 0,20,21
 544 854 544 854 461.5 907 c 128,-1,22
 379 960 379 960 330.5 1036.5 c 128,-1,23
 282 1113 282 1113 282 1224 c 0,24,25
 282 1338 282 1338 335 1435.5 c 128,-1,26
 388 1533 388 1533 482.5 1597.5 c 128,-1,27
 577 1662 577 1662 703 1674 c 1,28,-1
 703 1926 l 1,29,-1
 828 1926 l 1,30,-1
 828 1676 l 1,31,32
 941 1666 941 1666 1045 1611 c 128,-1,33
 1149 1556 1149 1556 1205 1478 c 1,34,-1
 1110 1327 l 1,35,36
 1058 1401 1058 1401 963.5 1448 c 128,-1,37
 869 1495 869 1495 766 1495 c 0,38,39
 681 1495 681 1495 616 1460 c 128,-1,40
 551 1425 551 1425 514.5 1365.5 c 128,-1,41
 478 1306 478 1306 478 1233 c 0,42,43
 478 1152 478 1152 521.5 1101 c 128,-1,44
 565 1050 565 1050 634.5 1016 c 128,-1,45
 704 982 704 982 780 952 c 0,46,47
 893 908 893 908 984.5 861.5 c 128,-1,48
 1076 815 1076 815 1142.5 758 c 128,-1,49
 1209 701 1209 701 1244.5 625.5 c 128,-1,50
 1280 550 1280 550 1280 447 c 0,51,52
 1280 317 1280 317 1224.5 216 c 128,-1,53
 1169 115 1169 115 1067.5 53 c 128,-1,54
 966 -9 966 -9 828 -23 c 1,55,-1
 828 -276 l 1,56,-1
 703 -276 l 1,0,-1
EndSplineSet
Validated: 1
EndChar

StartChar: Euro
Encoding: 8364 8364 342
Width: 1937
Flags: W
LayerCount: 2
Fore
SplineSet
1214 -31 m 0,0,1
 1016 -31 1016 -31 844.5 47.5 c 128,-1,2
 673 126 673 126 549.5 266.5 c 128,-1,3
 426 407 426 407 374 592 c 1,4,-1
 198 592 l 1,5,-1
 198 716 l 1,6,-1
 347 716 l 1,7,8
 343 742 343 742 340.5 770 c 128,-1,9
 338 798 338 798 338 825 c 0,10,11
 338 851 338 851 340.5 878 c 128,-1,12
 343 905 343 905 347 930 c 1,13,-1
 198 930 l 1,14,-1
 198 1054 l 1,15,-1
 374 1054 l 1,16,17
 413 1192 413 1192 494.5 1306.5 c 128,-1,18
 576 1421 576 1421 688 1504.5 c 128,-1,19
 800 1588 800 1588 934.5 1634 c 128,-1,20
 1069 1680 1069 1680 1214 1680 c 0,21,22
 1363 1680 1363 1680 1502.5 1636.5 c 128,-1,23
 1642 1593 1642 1593 1748 1513 c 1,24,-1
 1655 1341 l 1,25,26
 1569 1408 1569 1408 1461.5 1444 c 128,-1,27
 1354 1480 1354 1480 1240 1480 c 0,28,29
 1096 1480 1096 1480 971 1426.5 c 128,-1,30
 846 1373 846 1373 754 1277.5 c 128,-1,31
 662 1182 662 1182 615 1054 c 1,32,-1
 1444 1054 l 1,33,-1
 1444 930 l 1,34,-1
 570 930 l 1,35,36
 565 902 565 902 562 875.5 c 128,-1,37
 559 849 559 849 559 825 c 0,38,39
 559 800 559 800 562 773 c 128,-1,40
 565 746 565 746 570 716 c 1,41,-1
 1444 716 l 1,42,-1
 1444 592 l 1,43,-1
 614 592 l 1,44,45
 659 463 659 463 750 368 c 128,-1,46
 841 273 841 273 966.5 221 c 128,-1,47
 1092 169 1092 169 1240 169 c 0,48,49
 1355 169 1355 169 1463 205 c 128,-1,50
 1571 241 1571 241 1656 306 c 1,51,-1
 1749 135 l 1,52,53
 1645 56 1645 56 1505.5 12.5 c 128,-1,54
 1366 -31 1366 -31 1214 -31 c 0,0,1
EndSplineSet
Validated: 1
EndChar

StartChar: florin
Encoding: 402 402 343
Width: 959
Flags: W
LayerCount: 2
Fore
SplineSet
102 -551 m 0,0,1
 41 -551 41 -551 -13.5 -533.5 c 128,-1,2
 -68 -516 -68 -516 -106 -484 c 1,3,-1
 -26 -346 l 1,4,5
 14 -380 14 -380 84 -380 c 0,6,7
 161 -380 161 -380 204 -326 c 128,-1,8
 247 -272 247 -272 257 -159 c 2,9,-1
 361 877 l 1,10,-1
 247 877 l 1,11,-1
 261 1024 l 1,12,-1
 374 1024 l 1,13,-1
 408 1357 l 2,14,15
 420 1482 420 1482 465 1570 c 128,-1,16
 510 1658 510 1658 584 1704 c 128,-1,17
 658 1750 658 1750 757 1750 c 0,18,19
 819 1750 819 1750 873 1732.5 c 128,-1,20
 927 1715 927 1715 965 1683 c 1,21,-1
 885 1545 l 1,22,23
 843 1579 843 1579 775 1579 c 0,24,25
 699 1579 699 1579 656 1525 c 128,-1,26
 613 1471 613 1471 602 1358 c 2,27,-1
 568 1024 l 1,28,-1
 823 1024 l 1,29,-1
 810 877 l 1,30,-1
 555 877 l 1,31,-1
 451 -158 l 2,32,33
 439 -283 439 -283 394 -371 c 128,-1,34
 349 -459 349 -459 275 -505 c 128,-1,35
 201 -551 201 -551 102 -551 c 0,0,1
EndSplineSet
Validated: 1
EndChar

StartChar: sterling
Encoding: 163 163 344
Width: 1681
Flags: W
LayerCount: 2
Fore
SplineSet
1143 -30 m 0,0,1
 1062 -30 1062 -30 992 -6.5 c 128,-1,2
 922 17 922 17 857.5 47 c 128,-1,3
 793 77 793 77 731 100.5 c 128,-1,4
 669 124 669 124 604 124 c 0,5,6
 557 124 557 124 515.5 109 c 128,-1,7
 474 94 474 94 447.5 66.5 c 128,-1,8
 421 39 421 39 416 0 c 1,9,-1
 246 0 l 1,10,11
 248 72 248 72 285.5 132.5 c 128,-1,12
 323 193 323 193 387.5 231 c 128,-1,13
 452 269 452 269 533 273 c 1,14,15
 549 308 549 308 560 357 c 128,-1,16
 571 406 571 406 571 455 c 0,17,18
 571 505 571 505 558.5 543 c 128,-1,19
 546 581 546 581 527 613 c 1,20,-1
 210 613 l 1,21,-1
 210 728 l 1,22,-1
 471 728 l 1,23,24
 416 813 416 813 374 912.5 c 128,-1,25
 332 1012 332 1012 332 1142 c 0,26,27
 332 1306 332 1306 401.5 1427 c 128,-1,28
 471 1548 471 1548 593.5 1614.5 c 128,-1,29
 716 1681 716 1681 876 1681 c 0,30,31
 1014 1681 1014 1681 1126.5 1631.5 c 128,-1,32
 1239 1582 1239 1582 1315.5 1491 c 128,-1,33
 1392 1400 1392 1400 1422 1275 c 1,34,-1
 1254 1199 l 1,35,36
 1236 1280 1236 1280 1190.5 1351.5 c 128,-1,37
 1145 1423 1145 1423 1067.5 1468 c 128,-1,38
 990 1513 990 1513 875 1513 c 0,39,40
 766 1513 766 1513 687 1468 c 128,-1,41
 608 1423 608 1423 565.5 1341.5 c 128,-1,42
 523 1260 523 1260 523 1148 c 0,43,44
 523 1068 523 1068 543 997 c 128,-1,45
 563 926 563 926 595 860.5 c 128,-1,46
 627 795 627 795 661 728 c 1,47,-1
 1124 728 l 1,48,-1
 1124 613 l 1,49,-1
 698 613 l 1,50,51
 717 577 717 577 727 539.5 c 128,-1,52
 737 502 737 502 737 455 c 0,53,54
 737 411 737 411 727 361 c 128,-1,55
 717 311 717 311 693 259 c 1,56,57
 747 256 747 256 800 236 c 128,-1,58
 853 216 853 216 905.5 192 c 128,-1,59
 958 168 958 168 1012 149.5 c 128,-1,60
 1066 131 1066 131 1123 131 c 0,61,62
 1195 131 1195 131 1244 161 c 128,-1,63
 1293 191 1293 191 1320.5 240.5 c 128,-1,64
 1348 290 1348 290 1355 349 c 1,65,-1
 1510 273 l 1,66,67
 1495 186 1495 186 1446 117.5 c 128,-1,68
 1397 49 1397 49 1320 9.5 c 128,-1,69
 1243 -30 1243 -30 1143 -30 c 0,0,1
EndSplineSet
Validated: 1
EndChar

StartChar: yen
Encoding: 165 165 345
Width: 1678
Flags: W
LayerCount: 2
Fore
SplineSet
737 0 m 1,0,-1
 737 296 l 1,1,-1
 335 296 l 1,2,-1
 335 443 l 1,3,-1
 737 443 l 1,4,-1
 737 655 l 1,5,-1
 335 655 l 1,6,-1
 335 802 l 1,7,-1
 685 802 l 1,8,-1
 161 1650 l 1,9,-1
 406 1650 l 1,10,-1
 838 933 l 1,11,-1
 1272 1650 l 1,12,-1
 1517 1650 l 1,13,-1
 993 802 l 1,14,-1
 1342 802 l 1,15,-1
 1342 655 l 1,16,-1
 941 655 l 1,17,-1
 941 443 l 1,18,-1
 1342 443 l 1,19,-1
 1342 296 l 1,20,-1
 941 296 l 1,21,-1
 941 0 l 1,22,-1
 737 0 l 1,0,-1
EndSplineSet
Validated: 1
EndChar

StartChar: plus
Encoding: 43 43 346
Width: 1405
Flags: W
LayerCount: 2
Fore
SplineSet
618 316 m 1,0,-1
 618 745 l 1,1,-1
 190 745 l 1,2,-1
 190 913 l 1,3,-1
 618 913 l 1,4,-1
 618 1342 l 1,5,-1
 786 1342 l 1,6,-1
 786 913 l 1,7,-1
 1215 913 l 1,8,-1
 1215 745 l 1,9,-1
 786 745 l 1,10,-1
 786 316 l 1,11,-1
 618 316 l 1,0,-1
EndSplineSet
Validated: 1
EndChar

StartChar: minus
Encoding: 8722 8722 347
Width: 1640
Flags: W
LayerCount: 2
Fore
SplineSet
307 745 m 1,0,-1
 307 913 l 1,1,-1
 1333 913 l 1,2,-1
 1333 745 l 1,3,-1
 307 745 l 1,0,-1
EndSplineSet
Validated: 1
EndChar

StartChar: multiply
Encoding: 215 215 348
Width: 1312
Flags: W
LayerCount: 2
Fore
SplineSet
301 357 m 1,0,-1
 184 474 l 1,1,-1
 540 829 l 1,2,-1
 184 1185 l 1,3,-1
 302 1300 l 1,4,-1
 656 946 l 1,5,-1
 1011 1300 l 1,6,-1
 1127 1185 l 1,7,-1
 772 829 l 1,8,-1
 1127 474 l 1,9,-1
 1010 357 l 1,10,-1
 656 712 l 1,11,-1
 301 357 l 1,0,-1
EndSplineSet
Validated: 1
EndChar

StartChar: divide
Encoding: 247 247 349
Width: 1389
Flags: W
LayerCount: 2
Fore
SplineSet
164 746 m 1,0,-1
 164 914 l 1,1,-1
 1190 914 l 1,2,-1
 1190 746 l 1,3,-1
 164 746 l 1,0,-1
677 249 m 0,4,5
 637 249 637 249 607.5 278.5 c 128,-1,6
 578 308 578 308 578 351 c 256,7,8
 578 394 578 394 607.5 423.5 c 128,-1,9
 637 453 637 453 677 453 c 0,10,11
 718 453 718 453 747.5 423.5 c 128,-1,12
 777 394 777 394 777 351 c 256,13,14
 777 308 777 308 747.5 278.5 c 128,-1,15
 718 249 718 249 677 249 c 0,4,5
677 1208 m 0,16,17
 637 1208 637 1208 607.5 1237.5 c 128,-1,18
 578 1267 578 1267 578 1309 c 0,19,20
 578 1352 578 1352 607.5 1381.5 c 128,-1,21
 637 1411 637 1411 677 1411 c 0,22,23
 718 1411 718 1411 747.5 1381.5 c 128,-1,24
 777 1352 777 1352 777 1309 c 0,25,26
 777 1267 777 1267 747.5 1237.5 c 128,-1,27
 718 1208 718 1208 677 1208 c 0,16,17
EndSplineSet
Validated: 1
EndChar

StartChar: equal
Encoding: 61 61 350
Width: 1640
Flags: W
LayerCount: 2
Fore
SplineSet
307 956 m 1,0,-1
 307 1123 l 1,1,-1
 1333 1123 l 1,2,-1
 1333 956 l 1,3,-1
 307 956 l 1,0,-1
307 536 m 1,4,-1
 307 704 l 1,5,-1
 1333 704 l 1,6,-1
 1333 536 l 1,7,-1
 307 536 l 1,4,-1
EndSplineSet
Validated: 1
EndChar

StartChar: notequal
Encoding: 8800 8800 351
Width: 1496
Flags: W
LayerCount: 2
Fore
SplineSet
284 231 m 1,0,-1
 460 536 l 1,1,-1
 238 536 l 1,2,-1
 238 704 l 1,3,-1
 557 704 l 1,4,-1
 704 956 l 1,5,-1
 238 956 l 1,6,-1
 238 1123 l 1,7,-1
 803 1123 l 1,8,-1
 975 1419 l 1,9,-1
 1109 1419 l 1,10,-1
 937 1123 l 1,11,-1
 1264 1123 l 1,12,-1
 1264 956 l 1,13,-1
 838 956 l 1,14,-1
 691 704 l 1,15,-1
 1264 704 l 1,16,-1
 1264 536 l 1,17,-1
 595 536 l 1,18,-1
 418 231 l 1,19,-1
 284 231 l 1,0,-1
EndSplineSet
Validated: 1
EndChar

StartChar: greater
Encoding: 62 62 352
Width: 1481
Flags: W
LayerCount: 2
Fore
SplineSet
216 270 m 1,0,-1
 216 430 l 1,1,-1
 1103 832 l 1,2,-1
 216 1234 l 1,3,-1
 216 1394 l 1,4,-1
 1309 896 l 1,5,-1
 1309 768 l 1,6,-1
 216 270 l 1,0,-1
EndSplineSet
Validated: 1
EndChar

StartChar: less
Encoding: 60 60 353
Width: 1481
Flags: W
LayerCount: 2
Fore
SplineSet
1265 270 m 1,0,-1
 172 768 l 1,1,-1
 172 896 l 1,2,-1
 1265 1394 l 1,3,-1
 1265 1234 l 1,4,-1
 379 832 l 1,5,-1
 1265 430 l 1,6,-1
 1265 270 l 1,0,-1
EndSplineSet
Validated: 1
EndChar

StartChar: greaterequal
Encoding: 8805 8805 354
Width: 1522
Flags: W
LayerCount: 2
Fore
SplineSet
233 464 m 1,0,-1
 233 619 l 1,1,-1
 1125 1024 l 1,2,-1
 233 1432 l 1,3,-1
 233 1588 l 1,4,-1
 1327 1090 l 1,5,-1
 1327 962 l 1,6,-1
 233 464 l 1,0,-1
233 120 m 1,7,-1
 233 287 l 1,8,-1
 1327 287 l 1,9,-1
 1327 120 l 1,10,-1
 233 120 l 1,7,-1
EndSplineSet
Validated: 1
EndChar

StartChar: lessequal
Encoding: 8804 8804 355
Width: 1522
Flags: W
LayerCount: 2
Fore
SplineSet
1289 464 m 1,0,-1
 194 962 l 1,1,-1
 194 1090 l 1,2,-1
 1289 1588 l 1,3,-1
 1289 1432 l 1,4,-1
 397 1024 l 1,5,-1
 1289 619 l 1,6,-1
 1289 464 l 1,0,-1
194 120 m 1,7,-1
 194 287 l 1,8,-1
 1289 287 l 1,9,-1
 1289 120 l 1,10,-1
 194 120 l 1,7,-1
EndSplineSet
Validated: 1
EndChar

StartChar: plusminus
Encoding: 177 177 356
Width: 1465
Flags: W
LayerCount: 2
Fore
SplineSet
649 362 m 1,0,-1
 649 768 l 1,1,-1
 220 768 l 1,2,-1
 220 935 l 1,3,-1
 649 935 l 1,4,-1
 649 1341 l 1,5,-1
 816 1341 l 1,6,-1
 816 935 l 1,7,-1
 1245 935 l 1,8,-1
 1245 768 l 1,9,-1
 816 768 l 1,10,-1
 816 362 l 1,11,-1
 649 362 l 1,0,-1
220 0 m 1,12,-1
 220 168 l 1,13,-1
 1245 168 l 1,14,-1
 1245 0 l 1,15,-1
 220 0 l 1,12,-1
EndSplineSet
Validated: 1
EndChar

StartChar: approxequal
Encoding: 8776 8776 357
Width: 1634
Flags: W
LayerCount: 2
Fore
SplineSet
1019 904 m 0,0,1
 958 904 958 904 908 928.5 c 128,-1,2
 858 953 858 953 812 984.5 c 128,-1,3
 766 1016 766 1016 718.5 1040.5 c 128,-1,4
 671 1065 671 1065 614 1065 c 0,5,6
 538 1065 538 1065 487.5 1018.5 c 128,-1,7
 437 972 437 972 409 913 c 1,8,-1
 307 1002 l 1,9,10
 355 1091 355 1091 434 1152.5 c 128,-1,11
 513 1214 513 1214 612 1214 c 0,12,13
 678 1214 678 1214 732.5 1189.5 c 128,-1,14
 787 1165 787 1165 835 1133.5 c 128,-1,15
 883 1102 883 1102 930 1077.5 c 128,-1,16
 977 1053 977 1053 1026 1053 c 0,17,18
 1088 1053 1088 1053 1141.5 1095.5 c 128,-1,19
 1195 1138 1195 1138 1226 1205 c 1,20,-1
 1327 1116 l 1,21,22
 1293 1051 1293 1051 1242 1003.5 c 128,-1,23
 1191 956 1191 956 1133 930 c 128,-1,24
 1075 904 1075 904 1019 904 c 0,0,1
1019 415 m 0,25,26
 958 415 958 415 908 439.5 c 128,-1,27
 858 464 858 464 812 495.5 c 128,-1,28
 766 527 766 527 718.5 551.5 c 128,-1,29
 671 576 671 576 614 576 c 0,30,31
 538 576 538 576 487.5 529.5 c 128,-1,32
 437 483 437 483 409 424 c 1,33,-1
 307 513 l 1,34,35
 355 603 355 603 434 664 c 128,-1,36
 513 725 513 725 612 725 c 0,37,38
 678 725 678 725 732.5 700.5 c 128,-1,39
 787 676 787 676 835 644.5 c 128,-1,40
 883 613 883 613 930 588.5 c 128,-1,41
 977 564 977 564 1026 564 c 0,42,43
 1088 564 1088 564 1141.5 607 c 128,-1,44
 1195 650 1195 650 1226 716 c 1,45,-1
 1327 627 l 1,46,47
 1293 562 1293 562 1242 514.5 c 128,-1,48
 1191 467 1191 467 1133 441 c 128,-1,49
 1075 415 1075 415 1019 415 c 0,25,26
EndSplineSet
Validated: 1
EndChar

StartChar: asciitilde
Encoding: 126 126 358
Width: 1505
Flags: W
LayerCount: 2
Fore
SplineSet
957 669 m 0,0,1
 892 669 892 669 839 694 c 128,-1,2
 786 719 786 719 738 751.5 c 128,-1,3
 690 784 690 784 642.5 809 c 128,-1,4
 595 834 595 834 541 834 c 0,5,6
 471 834 471 834 418 789 c 128,-1,7
 365 744 365 744 334 678 c 1,8,-1
 228 772 l 1,9,10
 259 831 259 831 308 880.5 c 128,-1,11
 357 930 357 930 418 960 c 128,-1,12
 479 990 479 990 546 990 c 0,13,14
 611 990 611 990 664 965 c 128,-1,15
 717 940 717 940 764.5 907.5 c 128,-1,16
 812 875 812 875 859.5 850 c 128,-1,17
 907 825 907 825 961 825 c 0,18,19
 1024 825 1024 825 1079 866 c 128,-1,20
 1134 907 1134 907 1169 980 c 1,21,-1
 1275 887 l 1,22,23
 1242 825 1242 825 1191.5 775.5 c 128,-1,24
 1141 726 1141 726 1081 697.5 c 128,-1,25
 1021 669 1021 669 957 669 c 0,0,1
EndSplineSet
Validated: 1
EndChar

StartChar: logicalnot
Encoding: 172 172 359
Width: 1405
Flags: W
LayerCount: 2
Fore
SplineSet
1047 316 m 1,0,-1
 1047 745 l 1,1,-1
 190 745 l 1,2,-1
 190 913 l 1,3,-1
 1215 913 l 1,4,-1
 1215 316 l 1,5,-1
 1047 316 l 1,0,-1
EndSplineSet
Validated: 1
EndChar

StartChar: asciicircum
Encoding: 94 94 360
Width: 1240
Flags: W
LayerCount: 2
Fore
SplineSet
156 1210 m 1,0,-1
 570 1681 l 1,1,-1
 670 1681 l 1,2,-1
 1084 1210 l 1,3,-1
 910 1210 l 1,4,-1
 620 1546 l 1,5,-1
 330 1210 l 1,6,-1
 156 1210 l 1,0,-1
EndSplineSet
Validated: 1
EndChar

StartChar: infinity
Encoding: 8734 8734 361
Width: 2135
Flags: W
LayerCount: 2
Fore
SplineSet
566 94 m 0,0,1
 482 94 482 94 403 127 c 128,-1,2
 324 160 324 160 260.5 220.5 c 128,-1,3
 197 281 197 281 160 363.5 c 128,-1,4
 123 446 123 446 123 545 c 256,5,6
 123 644 123 644 160.5 726.5 c 128,-1,7
 198 809 198 809 261 869 c 128,-1,8
 324 929 324 929 403 962 c 128,-1,9
 482 995 482 995 566 995 c 0,10,11
 662 995 662 995 746 951.5 c 128,-1,12
 830 908 830 908 909 833.5 c 128,-1,13
 988 759 988 759 1067 665 c 1,14,15
 1146 759 1146 759 1225 833.5 c 128,-1,16
 1304 908 1304 908 1388.5 951.5 c 128,-1,17
 1473 995 1473 995 1568 995 c 0,18,19
 1652 995 1652 995 1731 962 c 128,-1,20
 1810 929 1810 929 1873 869 c 128,-1,21
 1936 809 1936 809 1973.5 726.5 c 128,-1,22
 2011 644 2011 644 2011 545 c 256,23,24
 2011 446 2011 446 1974 363.5 c 128,-1,25
 1937 281 1937 281 1873.5 220.5 c 128,-1,26
 1810 160 1810 160 1731 127 c 128,-1,27
 1652 94 1652 94 1568 94 c 0,28,29
 1473 94 1473 94 1388.5 137.5 c 128,-1,30
 1304 181 1304 181 1225 256 c 128,-1,31
 1146 331 1146 331 1067 425 c 1,32,33
 988 331 988 331 909 256 c 128,-1,34
 830 181 830 181 746 137.5 c 128,-1,35
 662 94 662 94 566 94 c 0,0,1
587 264 m 0,36,37
 658 264 658 264 719.5 302 c 128,-1,38
 781 340 781 340 841 403.5 c 128,-1,39
 901 467 901 467 967 545 c 1,40,41
 901 623 901 623 841 686.5 c 128,-1,42
 781 750 781 750 720 787.5 c 128,-1,43
 659 825 659 825 587 825 c 0,44,45
 519 825 519 825 456 790 c 128,-1,46
 393 755 393 755 352.5 692 c 128,-1,47
 312 629 312 629 312 545 c 0,48,49
 312 462 312 462 352 398.5 c 128,-1,50
 392 335 392 335 455.5 299.5 c 128,-1,51
 519 264 519 264 587 264 c 0,36,37
1546 264 m 0,52,53
 1615 264 1615 264 1678 299.5 c 128,-1,54
 1741 335 1741 335 1781 398.5 c 128,-1,55
 1821 462 1821 462 1821 545 c 0,56,57
 1821 629 1821 629 1781 692 c 128,-1,58
 1741 755 1741 755 1678 790 c 128,-1,59
 1615 825 1615 825 1546 825 c 0,60,61
 1475 825 1475 825 1413.5 787.5 c 128,-1,62
 1352 750 1352 750 1292.5 686.5 c 128,-1,63
 1233 623 1233 623 1166 545 c 1,64,65
 1233 467 1233 467 1293 403.5 c 128,-1,66
 1353 340 1353 340 1414 302 c 128,-1,67
 1475 264 1475 264 1546 264 c 0,52,53
EndSplineSet
Validated: 1
EndChar

StartChar: emptyset
Encoding: 8709 8709 362
Width: 1200
Flags: W
LayerCount: 2
Fore
SplineSet
190 142 m 1,0,-1
 118 214 l 1,1,-1
 1039 1136 l 1,2,-1
 1110 1063 l 1,3,-1
 190 142 l 1,0,-1
614 177 m 0,4,5
 485 177 485 177 381 238.5 c 128,-1,6
 277 300 277 300 215.5 405 c 128,-1,7
 154 510 154 510 154 638 c 0,8,9
 154 767 154 767 215.5 871.5 c 128,-1,10
 277 976 277 976 381 1038 c 128,-1,11
 485 1100 485 1100 615 1100 c 0,12,13
 744 1100 744 1100 848 1038.5 c 128,-1,14
 952 977 952 977 1013 872.5 c 128,-1,15
 1074 768 1074 768 1074 639 c 0,16,17
 1074 509 1074 509 1012.5 404.5 c 128,-1,18
 951 300 951 300 846.5 238.5 c 128,-1,19
 742 177 742 177 614 177 c 0,4,5
614 307 m 0,20,21
 709 307 709 307 784.5 350.5 c 128,-1,22
 860 394 860 394 904 469 c 128,-1,23
 948 544 948 544 948 639 c 256,24,25
 948 734 948 734 904 809 c 128,-1,26
 860 884 860 884 784.5 927.5 c 128,-1,27
 709 971 709 971 614 971 c 0,28,29
 520 971 520 971 444.5 927.5 c 128,-1,30
 369 884 369 884 324.5 809 c 128,-1,31
 280 734 280 734 280 639 c 256,32,33
 280 544 280 544 324.5 469 c 128,-1,34
 369 394 369 394 444.5 350.5 c 128,-1,35
 520 307 520 307 614 307 c 0,20,21
EndSplineSet
Validated: 5
EndChar

StartChar: integral
Encoding: 8747 8747 363
Width: 959
Flags: W
LayerCount: 2
Fore
SplineSet
102 -551 m 0,0,1
 41 -551 41 -551 -13.5 -533.5 c 128,-1,2
 -68 -516 -68 -516 -106 -484 c 1,3,-1
 -26 -346 l 1,4,5
 14 -380 14 -380 84 -380 c 0,6,7
 161 -380 161 -380 203.5 -326 c 128,-1,8
 246 -272 246 -272 257 -159 c 2,9,-1
 408 1357 l 2,10,11
 420 1482 420 1482 465 1570 c 128,-1,12
 510 1658 510 1658 584 1704 c 128,-1,13
 658 1750 658 1750 757 1750 c 0,14,15
 819 1750 819 1750 873 1732.5 c 128,-1,16
 927 1715 927 1715 965 1683 c 1,17,-1
 885 1545 l 1,18,19
 843 1579 843 1579 774 1579 c 0,20,21
 698 1579 698 1579 655.5 1525 c 128,-1,22
 613 1471 613 1471 602 1358 c 2,23,-1
 451 -158 l 2,24,25
 439 -283 439 -283 394 -371 c 128,-1,26
 349 -459 349 -459 275.5 -505 c 128,-1,27
 202 -551 202 -551 102 -551 c 0,0,1
EndSplineSet
Validated: 1
EndChar

StartChar: product
Encoding: 8719 8719 364
Width: 1431
Flags: W
LayerCount: 2
Fore
SplineSet
424 0 m 1,0,-1
 424 1575 l 1,1,-1
 256 1575 l 1,2,-1
 256 1720 l 1,3,-1
 1175 1720 l 1,4,-1
 1175 1575 l 1,5,-1
 1007 1575 l 1,6,-1
 1007 0 l 1,7,-1
 852 0 l 1,8,-1
 852 1575 l 1,9,-1
 579 1575 l 1,10,-1
 579 0 l 1,11,-1
 424 0 l 1,0,-1
EndSplineSet
Validated: 1
EndChar

StartChar: summation
Encoding: 8721 8721 365
Width: 1431
Flags: W
LayerCount: 2
Fore
SplineSet
256 0 m 1,0,-1
 543 860 l 1,1,-1
 256 1720 l 1,2,-1
 1175 1720 l 1,3,-1
 1175 1575 l 1,4,-1
 469 1575 l 1,5,-1
 698 860 l 1,6,-1
 469 145 l 1,7,-1
 1175 145 l 1,8,-1
 1175 0 l 1,9,-1
 256 0 l 1,0,-1
EndSplineSet
Validated: 1
EndChar

StartChar: radical
Encoding: 8730 8730 366
Width: 1712
Flags: W
LayerCount: 2
Fore
SplineSet
506 -32 m 1,0,-1
 256 609 l 1,1,-1
 412 609 l 1,2,-1
 588 150 l 1,3,-1
 958 1720 l 1,4,-1
 1456 1720 l 1,5,-1
 1456 1575 l 1,6,-1
 1082 1575 l 1,7,-1
 687 -32 l 1,8,-1
 506 -32 l 1,0,-1
EndSplineSet
Validated: 1
EndChar

StartChar: partialdiff
Encoding: 8706 8706 367
Width: 1427
Flags: W
LayerCount: 2
Fore
SplineSet
731 -34 m 0,0,1
 603 -34 603 -34 493 7.5 c 128,-1,2
 383 49 383 49 300.5 124 c 128,-1,3
 218 199 218 199 172 300 c 128,-1,4
 126 401 126 401 126 521 c 0,5,6
 126 633 126 633 167 732 c 128,-1,7
 208 831 208 831 282 907.5 c 128,-1,8
 356 984 356 984 456.5 1027.5 c 128,-1,9
 557 1071 557 1071 677 1071 c 0,10,11
 765 1071 765 1071 845 1043.5 c 128,-1,12
 925 1016 925 1016 987 965 c 128,-1,13
 1049 914 1049 914 1080 844 c 1,14,15
 1061 1021 1061 1021 995 1171 c 128,-1,16
 929 1321 929 1321 817 1443 c 128,-1,17
 705 1565 705 1565 546 1656 c 1,18,-1
 633 1802 l 1,19,20
 844 1682 844 1682 994 1518 c 128,-1,21
 1144 1354 1144 1354 1224 1148.5 c 128,-1,22
 1304 943 1304 943 1304 697 c 0,23,24
 1304 532 1304 532 1267.5 398 c 128,-1,25
 1231 264 1231 264 1158.5 167 c 128,-1,26
 1086 70 1086 70 979 18 c 128,-1,27
 872 -34 872 -34 731 -34 c 0,0,1
710 138 m 0,28,29
 824 138 824 138 908 191.5 c 128,-1,30
 992 245 992 245 1037.5 332.5 c 128,-1,31
 1083 420 1083 420 1083 521 c 0,32,33
 1083 634 1083 634 1029.5 717.5 c 128,-1,34
 976 801 976 801 888.5 847 c 128,-1,35
 801 893 801 893 699 893 c 0,36,37
 585 893 585 893 501.5 839.5 c 128,-1,38
 418 786 418 786 372 698.5 c 128,-1,39
 326 611 326 611 326 509 c 0,40,41
 326 396 326 396 379.5 312.5 c 128,-1,42
 433 229 433 229 520.5 183.5 c 128,-1,43
 608 138 608 138 710 138 c 0,28,29
EndSplineSet
Validated: 1
EndChar

StartChar: uni00B5
Encoding: 181 181 368
Width: 1520
Flags: W
LayerCount: 2
Fore
SplineSet
275 -320 m 1,0,1
 275 -209 275 -209 281.5 -120 c 128,-1,2
 288 -31 288 -31 297 52 c 128,-1,3
 306 135 306 135 312.5 226.5 c 128,-1,4
 319 318 319 318 319 433 c 2,5,-1
 319 1025 l 1,6,-1
 513 1025 l 1,7,-1
 513 421 l 2,8,9
 513 276 513 276 581.5 199 c 128,-1,10
 650 122 650 122 778 122 c 0,11,12
 854 122 854 122 915.5 156.5 c 128,-1,13
 977 191 977 191 1014 249.5 c 128,-1,14
 1051 308 1051 308 1051 378 c 2,15,-1
 1051 1025 l 1,16,-1
 1245 1025 l 1,17,-1
 1245 0 l 1,18,-1
 1051 0 l 1,19,-1
 1051 132 l 1,20,21
 1008 59 1008 59 921 13.5 c 128,-1,22
 834 -32 834 -32 737 -32 c 0,23,24
 659 -32 659 -32 602 -6.5 c 128,-1,25
 545 19 545 19 512 70 c 1,26,-1
 512 -320 l 1,27,-1
 275 -320 l 1,0,1
EndSplineSet
Validated: 1
EndChar

StartChar: percent
Encoding: 37 37 369
Width: 2148
Flags: W
LayerCount: 2
Fore
SplineSet
579 892 m 256,0,1
 461 892 461 892 366 942 c 128,-1,2
 271 992 271 992 215.5 1081 c 128,-1,3
 160 1170 160 1170 160 1286 c 256,4,5
 160 1402 160 1402 215.5 1491 c 128,-1,6
 271 1580 271 1580 366 1630 c 128,-1,7
 461 1680 461 1680 579 1680 c 256,8,9
 697 1680 697 1680 791.5 1630 c 128,-1,10
 886 1580 886 1580 941.5 1491 c 128,-1,11
 997 1402 997 1402 997 1286 c 256,12,13
 997 1170 997 1170 941.5 1081 c 128,-1,14
 886 992 886 992 791.5 942 c 128,-1,15
 697 892 697 892 579 892 c 256,0,1
522 0 m 1,16,-1
 1482 1650 l 1,17,-1
 1623 1650 l 1,18,-1
 663 0 l 1,19,-1
 522 0 l 1,16,-1
579 1018 m 256,20,21
 655 1018 655 1018 715 1052.5 c 128,-1,22
 775 1087 775 1087 810.5 1147.5 c 128,-1,23
 846 1208 846 1208 846 1286 c 0,24,25
 847 1365 847 1365 811.5 1425.5 c 128,-1,26
 776 1486 776 1486 715.5 1520 c 128,-1,27
 655 1554 655 1554 579 1554 c 256,28,29
 503 1554 503 1554 442.5 1519.5 c 128,-1,30
 382 1485 382 1485 347 1425 c 128,-1,31
 312 1365 312 1365 312 1286 c 0,32,33
 312 1208 312 1208 347 1147.5 c 128,-1,34
 382 1087 382 1087 442.5 1052.5 c 128,-1,35
 503 1018 503 1018 579 1018 c 256,20,21
1569 -31 m 0,36,37
 1451 -31 1451 -31 1356 19 c 128,-1,38
 1261 69 1261 69 1205.5 158 c 128,-1,39
 1150 247 1150 247 1150 363 c 256,40,41
 1150 479 1150 479 1205.5 568 c 128,-1,42
 1261 657 1261 657 1356 707 c 128,-1,43
 1451 757 1451 757 1569 757 c 0,44,45
 1688 757 1688 757 1782.5 707 c 128,-1,46
 1877 657 1877 657 1932.5 568 c 128,-1,47
 1988 479 1988 479 1988 363 c 256,48,49
 1988 247 1988 247 1932.5 158 c 128,-1,50
 1877 69 1877 69 1782.5 19 c 128,-1,51
 1688 -31 1688 -31 1569 -31 c 0,36,37
1569 95 m 0,52,53
 1645 95 1645 95 1705.5 129.5 c 128,-1,54
 1766 164 1766 164 1801 224.5 c 128,-1,55
 1836 285 1836 285 1836 363 c 0,56,57
 1836 442 1836 442 1801 502 c 128,-1,58
 1766 562 1766 562 1705.5 596.5 c 128,-1,59
 1645 631 1645 631 1569 631 c 0,60,61
 1494 631 1494 631 1433.5 596.5 c 128,-1,62
 1373 562 1373 562 1337.5 502 c 128,-1,63
 1302 442 1302 442 1302 363 c 0,64,65
 1302 285 1302 285 1337.5 224.5 c 128,-1,66
 1373 164 1373 164 1433.5 129.5 c 128,-1,67
 1494 95 1494 95 1569 95 c 0,52,53
EndSplineSet
Validated: 33
EndChar

StartChar: perthousand
Encoding: 8240 8240 370
Width: 3115
Flags: W
LayerCount: 2
Fore
SplineSet
579 892 m 256,0,1
 461 892 461 892 366 942 c 128,-1,2
 271 992 271 992 215.5 1081 c 128,-1,3
 160 1170 160 1170 160 1286 c 256,4,5
 160 1402 160 1402 215.5 1491 c 128,-1,6
 271 1580 271 1580 366 1630 c 128,-1,7
 461 1680 461 1680 579 1680 c 256,8,9
 697 1680 697 1680 791.5 1630 c 128,-1,10
 886 1580 886 1580 941.5 1491 c 128,-1,11
 997 1402 997 1402 997 1286 c 256,12,13
 997 1170 997 1170 941.5 1081 c 128,-1,14
 886 992 886 992 791.5 942 c 128,-1,15
 697 892 697 892 579 892 c 256,0,1
516 0 m 1,16,-1
 1476 1650 l 1,17,-1
 1617 1650 l 1,18,-1
 657 0 l 1,19,-1
 516 0 l 1,16,-1
578 1018 m 0,20,21
 654 1018 654 1018 714.5 1052.5 c 128,-1,22
 775 1087 775 1087 810.5 1147.5 c 128,-1,23
 846 1208 846 1208 846 1286 c 0,24,25
 846 1365 846 1365 810.5 1425 c 128,-1,26
 775 1485 775 1485 715 1519.5 c 128,-1,27
 655 1554 655 1554 579 1554 c 256,28,29
 503 1554 503 1554 442.5 1519.5 c 128,-1,30
 382 1485 382 1485 347 1425 c 128,-1,31
 312 1365 312 1365 312 1286 c 256,32,33
 312 1207 312 1207 347.5 1146.5 c 128,-1,34
 383 1086 383 1086 443 1052 c 128,-1,35
 503 1018 503 1018 578 1018 c 0,20,21
1554 -31 m 256,36,37
 1436 -31 1436 -31 1341 19 c 128,-1,38
 1246 69 1246 69 1190.5 158 c 128,-1,39
 1135 247 1135 247 1135 363 c 256,40,41
 1135 479 1135 479 1190.5 568 c 128,-1,42
 1246 657 1246 657 1341 707 c 128,-1,43
 1436 757 1436 757 1554 757 c 256,44,45
 1672 757 1672 757 1766.5 707 c 128,-1,46
 1861 657 1861 657 1916.5 568 c 128,-1,47
 1972 479 1972 479 1972 363 c 256,48,49
 1972 247 1972 247 1916.5 158 c 128,-1,50
 1861 69 1861 69 1766.5 19 c 128,-1,51
 1672 -31 1672 -31 1554 -31 c 256,36,37
2536 -31 m 0,52,53
 2418 -31 2418 -31 2323.5 19 c 128,-1,54
 2229 69 2229 69 2173.5 158 c 128,-1,55
 2118 247 2118 247 2118 363 c 256,56,57
 2118 479 2118 479 2173.5 568 c 128,-1,58
 2229 657 2229 657 2323.5 707 c 128,-1,59
 2418 757 2418 757 2536 757 c 0,60,61
 2655 757 2655 757 2749.5 707 c 128,-1,62
 2844 657 2844 657 2899.5 568 c 128,-1,63
 2955 479 2955 479 2955 363 c 256,64,65
 2955 247 2955 247 2899.5 158 c 128,-1,66
 2844 69 2844 69 2749.5 19 c 128,-1,67
 2655 -31 2655 -31 2536 -31 c 0,52,53
1554 95 m 256,68,69
 1630 95 1630 95 1690 129.5 c 128,-1,70
 1750 164 1750 164 1785.5 224.5 c 128,-1,71
 1821 285 1821 285 1821 363 c 0,72,73
 1821 442 1821 442 1785.5 502 c 128,-1,74
 1750 562 1750 562 1690 596.5 c 128,-1,75
 1630 631 1630 631 1554 631 c 256,76,77
 1478 631 1478 631 1417.5 596.5 c 128,-1,78
 1357 562 1357 562 1322 502 c 128,-1,79
 1287 442 1287 442 1287 363 c 0,80,81
 1287 285 1287 285 1322 224.5 c 128,-1,82
 1357 164 1357 164 1417.5 129.5 c 128,-1,83
 1478 95 1478 95 1554 95 c 256,68,69
2536 95 m 0,84,85
 2612 95 2612 95 2672.5 129.5 c 128,-1,86
 2733 164 2733 164 2768 224.5 c 128,-1,87
 2803 285 2803 285 2803 363 c 0,88,89
 2803 442 2803 442 2768 502 c 128,-1,90
 2733 562 2733 562 2672.5 596.5 c 128,-1,91
 2612 631 2612 631 2536 631 c 0,92,93
 2461 631 2461 631 2400.5 596.5 c 128,-1,94
 2340 562 2340 562 2304.5 502 c 128,-1,95
 2269 442 2269 442 2269 363 c 0,96,97
 2269 285 2269 285 2304.5 224.5 c 128,-1,98
 2340 164 2340 164 2400.5 129.5 c 128,-1,99
 2461 95 2461 95 2536 95 c 0,84,85
EndSplineSet
Validated: 1
EndChar

StartChar: lozenge
Encoding: 9674 9674 371
Width: 1200
Flags: W
LayerCount: 2
Fore
SplineSet
522 -80 m 1,0,-1
 102 795 l 1,1,-1
 522 1670 l 1,2,-1
 678 1670 l 1,3,-1
 1098 795 l 1,4,-1
 678 -80 l 1,5,-1
 522 -80 l 1,0,-1
600 132 m 1,6,-1
 919 795 l 1,7,-1
 600 1458 l 1,8,-1
 281 795 l 1,9,-1
 600 132 l 1,6,-1
EndSplineSet
Validated: 1
EndChar

StartChar: at
Encoding: 64 64 372
Width: 2085
Flags: W
LayerCount: 2
Fore
SplineSet
1058 -413 m 0,0,1
 875 -413 875 -413 717.5 -348.5 c 128,-1,2
 560 -284 560 -284 443 -168.5 c 128,-1,3
 326 -53 326 -53 260.5 102.5 c 128,-1,4
 195 258 195 258 195 440 c 0,5,6
 195 626 195 626 262 782.5 c 128,-1,7
 329 939 329 939 448 1055 c 128,-1,8
 567 1171 567 1171 724 1235 c 128,-1,9
 881 1299 881 1299 1062 1299 c 0,10,11
 1226 1299 1226 1299 1376.5 1245 c 128,-1,12
 1527 1191 1527 1191 1645 1087 c 128,-1,13
 1763 983 1763 983 1831.5 832.5 c 128,-1,14
 1900 682 1900 682 1900 489 c 0,15,16
 1900 395 1900 395 1878.5 316.5 c 128,-1,17
 1857 238 1857 238 1817.5 180.5 c 128,-1,18
 1778 123 1778 123 1722.5 91.5 c 128,-1,19
 1667 60 1667 60 1599 60 c 0,20,21
 1523 60 1523 60 1464 94 c 128,-1,22
 1405 128 1405 128 1372 177 c 1,23,24
 1320 80 1320 80 1226 20 c 128,-1,25
 1132 -40 1132 -40 1007 -40 c 256,26,27
 882 -40 882 -40 782 20.5 c 128,-1,28
 682 81 682 81 624 187 c 128,-1,29
 566 293 566 293 566 429 c 256,30,31
 566 565 566 565 624 671 c 128,-1,32
 682 777 682 777 782.5 838 c 128,-1,33
 883 899 883 899 1010 899 c 0,34,35
 1126 899 1126 899 1219.5 844.5 c 128,-1,36
 1313 790 1313 790 1365 698 c 1,37,-1
 1365 872 l 1,38,-1
 1497 872 l 1,39,-1
 1497 339 l 2,40,41
 1497 294 1497 294 1510.5 258.5 c 128,-1,42
 1524 223 1524 223 1551.5 203 c 128,-1,43
 1579 183 1579 183 1620 183 c 0,44,45
 1664 183 1664 183 1697.5 216.5 c 128,-1,46
 1731 250 1731 250 1749.5 315 c 128,-1,47
 1768 380 1768 380 1768 474 c 0,48,49
 1768 647 1768 647 1707.5 774.5 c 128,-1,50
 1647 902 1647 902 1546.5 986 c 128,-1,51
 1446 1070 1446 1070 1322 1111.5 c 128,-1,52
 1198 1153 1198 1153 1070 1153 c 0,53,54
 915 1153 915 1153 785.5 1097.5 c 128,-1,55
 656 1042 656 1042 561 944.5 c 128,-1,56
 466 847 466 847 414 718.5 c 128,-1,57
 362 590 362 590 362 444 c 0,58,59
 362 299 362 299 413.5 172.5 c 128,-1,60
 465 46 465 46 558.5 -49.5 c 128,-1,61
 652 -145 652 -145 779.5 -199 c 128,-1,62
 907 -253 907 -253 1059 -253 c 0,63,64
 1231 -253 1231 -253 1356 -187 c 128,-1,65
 1481 -121 1481 -121 1551 -33 c 1,66,-1
 1686 -118 l 1,67,68
 1627 -200 1627 -200 1536 -267 c 128,-1,69
 1445 -334 1445 -334 1324.5 -373.5 c 128,-1,70
 1204 -413 1204 -413 1058 -413 c 0,0,1
1039 86 m 0,71,72
 1135 86 1135 86 1209 130 c 128,-1,73
 1283 174 1283 174 1325.5 252 c 128,-1,74
 1368 330 1368 330 1368 430 c 0,75,76
 1368 532 1368 532 1325 610 c 128,-1,77
 1282 688 1282 688 1208 732 c 128,-1,78
 1134 776 1134 776 1040 776 c 0,79,80
 947 776 947 776 872.5 731.5 c 128,-1,81
 798 687 798 687 755 609 c 128,-1,82
 712 531 712 531 712 429 c 0,83,84
 712 329 712 329 754.5 251.5 c 128,-1,85
 797 174 797 174 871 130 c 128,-1,86
 945 86 945 86 1039 86 c 0,71,72
EndSplineSet
Validated: 1
EndChar

StartChar: ampersand
Encoding: 38 38 373
Width: 1807
Flags: W
LayerCount: 2
Fore
SplineSet
672 -32 m 0,0,1
 530 -32 530 -32 416 21.5 c 128,-1,2
 302 75 302 75 235.5 175 c 128,-1,3
 169 275 169 275 169 414 c 0,4,5
 169 578 169 578 268.5 702.5 c 128,-1,6
 368 827 368 827 565 916 c 1,7,8
 487 998 487 998 441 1062.5 c 128,-1,9
 395 1127 395 1127 375 1185 c 128,-1,10
 355 1243 355 1243 355 1304 c 0,11,12
 355 1419 355 1419 411.5 1503.5 c 128,-1,13
 468 1588 468 1588 563.5 1634.5 c 128,-1,14
 659 1681 659 1681 777 1681 c 0,15,16
 876 1681 876 1681 953 1650.5 c 128,-1,17
 1030 1620 1030 1620 1084 1566.5 c 128,-1,18
 1138 1513 1138 1513 1166 1444.5 c 128,-1,19
 1194 1376 1194 1376 1194 1300 c 0,20,21
 1194 1167 1194 1167 1107 1070.5 c 128,-1,22
 1020 974 1020 974 852 890 c 1,23,-1
 1246 465 l 1,24,25
 1269 486 1269 486 1299 520.5 c 128,-1,26
 1329 555 1329 555 1359.5 592.5 c 128,-1,27
 1390 630 1390 630 1415.5 662.5 c 128,-1,28
 1441 695 1441 695 1454 712 c 1,29,-1
 1581 599 l 1,30,31
 1536 535 1536 535 1479 461.5 c 128,-1,32
 1422 388 1422 388 1373 335 c 1,33,-1
 1683 0 l 1,34,-1
 1429 0 l 1,35,-1
 1226 222 l 1,36,37
 1105 100 1105 100 965 34 c 128,-1,38
 825 -32 825 -32 672 -32 c 0,0,1
695 159 m 0,39,40
 799 159 799 159 901 210.5 c 128,-1,41
 1003 262 1003 262 1095 359 c 1,42,-1
 673 805 l 1,43,44
 537 744 537 744 464 649.5 c 128,-1,45
 391 555 391 555 391 440 c 0,46,47
 391 350 391 350 432.5 287 c 128,-1,48
 474 224 474 224 543.5 191.5 c 128,-1,49
 613 159 613 159 695 159 c 0,39,40
745 1004 m 1,50,51
 832 1048 832 1048 893 1091 c 128,-1,52
 954 1134 954 1134 985.5 1184.5 c 128,-1,53
 1017 1235 1017 1235 1017 1303 c 0,54,55
 1017 1372 1017 1372 986 1423.5 c 128,-1,56
 955 1475 955 1475 902.5 1503.5 c 128,-1,57
 850 1532 850 1532 785 1532 c 0,58,59
 719 1532 719 1532 667.5 1503 c 128,-1,60
 616 1474 616 1474 586.5 1423.5 c 128,-1,61
 557 1373 557 1373 557 1308 c 0,62,63
 557 1261 557 1261 574.5 1217 c 128,-1,64
 592 1173 592 1173 633 1122.5 c 128,-1,65
 674 1072 674 1072 745 1004 c 1,50,51
EndSplineSet
Validated: 1
EndChar

StartChar: paragraph
Encoding: 182 182 374
Width: 1522
Flags: W
LayerCount: 2
Fore
SplineSet
882 0 m 1,0,-1
 882 679 l 1,1,-1
 689 679 l 2,2,3
 528 679 528 679 412.5 746 c 128,-1,4
 297 813 297 813 235.5 925.5 c 128,-1,5
 174 1038 174 1038 174 1174 c 0,6,7
 174 1312 174 1312 235.5 1419.5 c 128,-1,8
 297 1527 297 1527 412.5 1588.5 c 128,-1,9
 528 1650 528 1650 689 1650 c 2,10,-1
 1215 1650 l 1,11,-1
 1215 0 l 1,12,-1
 1090 0 l 1,13,-1
 1090 1528 l 1,14,-1
 1007 1528 l 1,15,-1
 1007 0 l 1,16,-1
 882 0 l 1,0,-1
EndSplineSet
Validated: 1
EndChar

StartChar: section
Encoding: 167 167 375
Width: 1467
Flags: W
LayerCount: 2
Fore
SplineSet
730 -550 m 0,0,1
 612 -550 612 -550 519 -516.5 c 128,-1,2
 426 -483 426 -483 357.5 -428.5 c 128,-1,3
 289 -374 289 -374 246 -309 c 128,-1,4
 203 -244 203 -244 186 -181 c 1,5,-1
 361 -137 l 1,6,7
 387 -208 387 -208 440.5 -263.5 c 128,-1,8
 494 -319 494 -319 568 -351 c 128,-1,9
 642 -383 642 -383 729 -383 c 256,10,11
 816 -383 816 -383 881.5 -350 c 128,-1,12
 947 -317 947 -317 984 -258 c 128,-1,13
 1021 -199 1021 -199 1021 -121 c 0,14,15
 1021 -35 1021 -35 970.5 21.5 c 128,-1,16
 920 78 920 78 832 121.5 c 128,-1,17
 744 165 744 165 632 210 c 0,18,19
 564 240 564 240 494.5 277 c 128,-1,20
 425 314 425 314 367 362.5 c 128,-1,21
 309 411 309 411 274.5 474.5 c 128,-1,22
 240 538 240 538 242 620 c 0,23,24
 246 720 246 720 306 802.5 c 128,-1,25
 366 885 366 885 470 926 c 1,26,27
 376 987 376 987 328.5 1069 c 128,-1,28
 281 1151 281 1151 281 1257 c 0,29,30
 281 1377 281 1377 337 1472.5 c 128,-1,31
 393 1568 393 1568 496.5 1624 c 128,-1,32
 600 1680 600 1680 741 1680 c 0,33,34
 836 1680 836 1680 910 1655.5 c 128,-1,35
 984 1631 984 1631 1038.5 1588.5 c 128,-1,36
 1093 1546 1093 1546 1129 1493 c 128,-1,37
 1165 1440 1165 1440 1183 1383 c 1,38,-1
 1007 1340 l 1,39,40
 985 1411 985 1411 915 1462 c 128,-1,41
 845 1513 845 1513 747 1513 c 0,42,43
 672 1513 672 1513 614 1480.5 c 128,-1,44
 556 1448 556 1448 523.5 1393 c 128,-1,45
 491 1338 491 1338 491 1270 c 0,46,47
 491 1208 491 1208 522 1162 c 128,-1,48
 553 1116 553 1116 603.5 1082 c 128,-1,49
 654 1048 654 1048 714 1021.5 c 128,-1,50
 774 995 774 995 831 971 c 0,51,52
 904 940 904 940 982 901 c 128,-1,53
 1060 862 1060 862 1126.5 811 c 128,-1,54
 1193 760 1193 760 1233.5 694 c 128,-1,55
 1274 628 1274 628 1272 542 c 0,56,57
 1270 443 1270 443 1209.5 361 c 128,-1,58
 1149 279 1149 279 1044 235 c 1,59,60
 1138 170 1138 170 1186.5 84.5 c 128,-1,61
 1235 -1 1235 -1 1235 -112 c 0,62,63
 1235 -249 1235 -249 1167.5 -347 c 128,-1,64
 1100 -445 1100 -445 985.5 -497.5 c 128,-1,65
 871 -550 871 -550 730 -550 c 0,0,1
910 311 m 1,66,67
 952 326 952 326 989.5 355 c 128,-1,68
 1027 384 1027 384 1051 424.5 c 128,-1,69
 1075 465 1075 465 1075 513 c 0,70,71
 1075 566 1075 566 1042.5 610.5 c 128,-1,72
 1010 655 1010 655 935 698.5 c 128,-1,73
 860 742 860 742 731 792 c 0,74,75
 697 804 697 804 672 815.5 c 128,-1,76
 647 827 647 827 604 847 c 1,77,78
 564 835 564 835 526 807 c 128,-1,79
 488 779 488 779 464 738 c 128,-1,80
 440 697 440 697 440 645 c 0,81,82
 440 590 440 590 468.5 550 c 128,-1,83
 497 510 497 510 553.5 477.5 c 128,-1,84
 610 445 610 445 694 410 c 0,85,86
 750 387 750 387 784.5 371.5 c 128,-1,87
 819 356 819 356 847 342.5 c 128,-1,88
 875 329 875 329 910 311 c 1,66,67
EndSplineSet
Validated: 33
EndChar

StartChar: copyright
Encoding: 169 169 376
Width: 2076
Flags: W
LayerCount: 2
Fore
SplineSet
1037 -31 m 256,0,1
 860 -31 860 -31 707.5 34.5 c 128,-1,2
 555 100 555 100 439.5 216.5 c 128,-1,3
 324 333 324 333 259.5 488 c 128,-1,4
 195 643 195 643 195 823 c 0,5,6
 195 1001 195 1001 260 1156 c 128,-1,7
 325 1311 325 1311 440.5 1429 c 128,-1,8
 556 1547 556 1547 709 1613.5 c 128,-1,9
 862 1680 862 1680 1037 1680 c 0,10,11
 1213 1680 1213 1680 1366 1614 c 128,-1,12
 1519 1548 1519 1548 1635 1430 c 128,-1,13
 1751 1312 1751 1312 1816.5 1156.5 c 128,-1,14
 1882 1001 1882 1001 1882 822 c 0,15,16
 1882 644 1882 644 1817 489 c 128,-1,17
 1752 334 1752 334 1636.5 217 c 128,-1,18
 1521 100 1521 100 1367.5 34.5 c 128,-1,19
 1214 -31 1214 -31 1037 -31 c 256,0,1
1037 103 m 0,20,21
 1186 103 1186 103 1314.5 158 c 128,-1,22
 1443 213 1443 213 1539.5 311.5 c 128,-1,23
 1636 410 1636 410 1690.5 540.5 c 128,-1,24
 1745 671 1745 671 1745 822 c 256,25,26
 1745 973 1745 973 1690.5 1104.5 c 128,-1,27
 1636 1236 1636 1236 1538.5 1335 c 128,-1,28
 1441 1434 1441 1434 1312.5 1490 c 128,-1,29
 1184 1546 1184 1546 1037 1546 c 256,30,31
 890 1546 890 1546 762.5 1490 c 128,-1,32
 635 1434 635 1434 538 1334.5 c 128,-1,33
 441 1235 441 1235 386.5 1103.5 c 128,-1,34
 332 972 332 972 332 822 c 0,35,36
 332 671 332 671 386 540 c 128,-1,37
 440 409 440 409 536 311 c 128,-1,38
 632 213 632 213 760.5 158 c 128,-1,39
 889 103 889 103 1037 103 c 0,20,21
1065 346 m 0,40,41
 928 346 928 346 816.5 409.5 c 128,-1,42
 705 473 705 473 639.5 581.5 c 128,-1,43
 574 690 574 690 574 824 c 256,44,45
 574 958 574 958 639 1067 c 128,-1,46
 704 1176 704 1176 816 1240.5 c 128,-1,47
 928 1305 928 1305 1068 1305 c 0,48,49
 1153 1305 1153 1305 1233 1280.5 c 128,-1,50
 1313 1256 1313 1256 1371 1211 c 1,51,-1
 1313 1104 l 1,52,53
 1220 1174 1220 1174 1090 1174 c 0,54,55
 991 1174 991 1174 912 1128 c 128,-1,56
 833 1082 833 1082 787 1003.5 c 128,-1,57
 741 925 741 925 741 825 c 0,58,59
 741 726 741 726 786.5 647.5 c 128,-1,60
 832 569 832 569 911 523.5 c 128,-1,61
 990 478 990 478 1092 478 c 0,62,63
 1154 478 1154 478 1213 496 c 128,-1,64
 1272 514 1272 514 1312 546 c 1,65,-1
 1371 439 l 1,66,67
 1225 346 1225 346 1065 346 c 0,40,41
EndSplineSet
Validated: 1
EndChar

StartChar: registered
Encoding: 174 174 377
Width: 1353
Flags: W
LayerCount: 2
Fore
SplineSet
676 775 m 256,0,1
 551 775 551 775 447 837 c 128,-1,2
 343 899 343 899 281.5 1002.5 c 128,-1,3
 220 1106 220 1106 220 1231 c 256,4,5
 220 1356 220 1356 281.5 1460 c 128,-1,6
 343 1564 343 1564 446.5 1626.5 c 128,-1,7
 550 1689 550 1689 676 1689 c 256,8,9
 802 1689 802 1689 905.5 1627 c 128,-1,10
 1009 1565 1009 1565 1070.5 1461.5 c 128,-1,11
 1132 1358 1132 1358 1132 1231 c 256,12,13
 1132 1104 1132 1104 1070 1000.5 c 128,-1,14
 1008 897 1008 897 904.5 836 c 128,-1,15
 801 775 801 775 676 775 c 256,0,1
676 856 m 256,16,17
 779 856 779 856 864 906 c 128,-1,18
 949 956 949 956 1000.5 1041.5 c 128,-1,19
 1052 1127 1052 1127 1052 1231 c 256,20,21
 1052 1335 1052 1335 1001 1420.5 c 128,-1,22
 950 1506 950 1506 864.5 1557 c 128,-1,23
 779 1608 779 1608 676 1608 c 0,24,25
 572 1608 572 1608 487 1556.5 c 128,-1,26
 402 1505 402 1505 351.5 1419.5 c 128,-1,27
 301 1334 301 1334 301 1231 c 256,28,29
 301 1128 301 1128 352 1042.5 c 128,-1,30
 403 957 403 957 488 906.5 c 128,-1,31
 573 856 573 856 676 856 c 256,16,17
540 969 m 1,32,-1
 540 1495 l 1,33,-1
 664 1495 l 2,34,35
 739 1495 739 1495 785.5 1456.5 c 128,-1,36
 832 1418 832 1418 832 1345 c 0,37,38
 832 1282 832 1282 795 1241.5 c 128,-1,39
 758 1201 758 1201 698 1193 c 1,40,-1
 874 969 l 1,41,-1
 788 969 l 1,42,-1
 622 1188 l 1,43,-1
 608 1188 l 1,44,-1
 608 969 l 1,45,-1
 540 969 l 1,32,-1
608 1243 m 1,46,-1
 645 1243 l 2,47,48
 695 1243 695 1243 728 1269 c 128,-1,49
 761 1295 761 1295 761 1344 c 0,50,51
 761 1394 761 1394 727 1417 c 128,-1,52
 693 1440 693 1440 645 1440 c 2,53,-1
 608 1440 l 1,54,-1
 608 1243 l 1,46,-1
EndSplineSet
Validated: 1
EndChar

StartChar: trademark
Encoding: 8482 8482 378
Width: 1395
Flags: W
LayerCount: 2
Fore
SplineSet
574 1134 m 1,0,-1
 632 1650 l 1,1,-1
 713 1650 l 1,2,-1
 848 1291 l 1,3,-1
 985 1650 l 1,4,-1
 1067 1650 l 1,5,-1
 1125 1134 l 1,6,-1
 1049 1134 l 1,7,-1
 1004 1509 l 1,8,-1
 875 1155 l 1,9,-1
 824 1155 l 1,10,-1
 694 1509 l 1,11,-1
 650 1134 l 1,12,-1
 574 1134 l 1,0,-1
340 1134 m 1,13,-1
 340 1582 l 1,14,-1
 197 1582 l 1,15,-1
 197 1650 l 1,16,-1
 560 1650 l 1,17,-1
 560 1582 l 1,18,-1
 418 1582 l 1,19,-1
 418 1134 l 1,20,-1
 340 1134 l 1,13,-1
EndSplineSet
Validated: 1
EndChar

StartChar: degree
Encoding: 176 176 379
Width: 969
Flags: W
LayerCount: 2
Fore
SplineSet
484 1338 m 0,0,1
 389 1338 389 1338 328.5 1396.5 c 128,-1,2
 268 1455 268 1455 268 1543 c 0,3,4
 268 1635 268 1635 331 1692.5 c 128,-1,5
 394 1750 394 1750 484 1750 c 0,6,7
 576 1750 576 1750 638.5 1693 c 128,-1,8
 701 1636 701 1636 701 1544 c 0,9,10
 701 1453 701 1453 639.5 1395.5 c 128,-1,11
 578 1338 578 1338 484 1338 c 0,0,1
485 1417 m 0,12,13
 539 1417 539 1417 573.5 1452.5 c 128,-1,14
 608 1488 608 1488 608 1543 c 0,15,16
 608 1601 608 1601 571.5 1636 c 128,-1,17
 535 1671 535 1671 484 1671 c 0,18,19
 432 1671 432 1671 396.5 1635 c 128,-1,20
 361 1599 361 1599 361 1543 c 0,21,22
 361 1488 361 1488 395.5 1452.5 c 128,-1,23
 430 1417 430 1417 485 1417 c 0,12,13
EndSplineSet
Validated: 1
EndChar

StartChar: bar
Encoding: 124 124 380
Width: 785
Flags: W
LayerCount: 2
Fore
SplineSet
307 0 m 1,0,-1
 307 1720 l 1,1,-1
 478 1720 l 1,2,-1
 478 0 l 1,3,-1
 307 0 l 1,0,-1
EndSplineSet
Validated: 1
EndChar

StartChar: brokenbar
Encoding: 166 166 381
Width: 785
Flags: W
LayerCount: 2
Fore
SplineSet
307 1056 m 1,0,-1
 307 1720 l 1,1,-1
 478 1720 l 1,2,-1
 478 1056 l 1,3,-1
 307 1056 l 1,0,-1
307 0 m 1,4,-1
 307 664 l 1,5,-1
 478 664 l 1,6,-1
 478 0 l 1,7,-1
 307 0 l 1,4,-1
EndSplineSet
Validated: 1
EndChar

StartChar: dagger
Encoding: 8224 8224 382
Width: 1133
Flags: W
LayerCount: 2
Fore
SplineSet
481 0 m 1,0,-1
 481 1086 l 1,1,-1
 164 1086 l 1,2,-1
 164 1242 l 1,3,-1
 481 1242 l 1,4,-1
 481 1720 l 1,5,-1
 652 1720 l 1,6,-1
 652 1242 l 1,7,-1
 968 1242 l 1,8,-1
 968 1086 l 1,9,-1
 652 1086 l 1,10,-1
 652 0 l 1,11,-1
 481 0 l 1,0,-1
EndSplineSet
Validated: 1
EndChar

StartChar: daggerdbl
Encoding: 8225 8225 383
Width: 1203
Flags: W
LayerCount: 2
Fore
SplineSet
516 0 m 1,0,-1
 516 518 l 1,1,-1
 199 518 l 1,2,-1
 199 674 l 1,3,-1
 516 674 l 1,4,-1
 516 1068 l 1,5,-1
 199 1068 l 1,6,-1
 199 1223 l 1,7,-1
 516 1223 l 1,8,-1
 516 1720 l 1,9,-1
 687 1720 l 1,10,-1
 687 1223 l 1,11,-1
 1003 1223 l 1,12,-1
 1003 1068 l 1,13,-1
 687 1068 l 1,14,-1
 687 674 l 1,15,-1
 1003 674 l 1,16,-1
 1003 518 l 1,17,-1
 687 518 l 1,18,-1
 687 0 l 1,19,-1
 516 0 l 1,0,-1
EndSplineSet
Validated: 1
EndChar

StartChar: uni0308
Encoding: 776 776 384
Width: 0
GlyphClass: 4
Flags: W
AnchorPoint: "Anchor-4" 347 1509 basemark 0
AnchorPoint: "Anchor-4" 347 1025 mark 0
AnchorPoint: "Anchor-0" 347 1025 mark 0
LayerCount: 2
Fore
SplineSet
583 1287 m 256,0,1
 537 1287 537 1287 504.5 1319.5 c 128,-1,2
 472 1352 472 1352 472 1398 c 256,3,4
 472 1444 472 1444 504.5 1476.5 c 128,-1,5
 537 1509 537 1509 583 1509 c 256,6,7
 629 1509 629 1509 661.5 1476.5 c 128,-1,8
 694 1444 694 1444 694 1398 c 256,9,10
 694 1352 694 1352 661.5 1319.5 c 128,-1,11
 629 1287 629 1287 583 1287 c 256,0,1
111 1287 m 256,12,13
 65 1287 65 1287 32.5 1319.5 c 128,-1,14
 0 1352 0 1352 0 1398 c 256,15,16
 0 1444 0 1444 32.5 1476.5 c 128,-1,17
 65 1509 65 1509 111 1509 c 256,18,19
 157 1509 157 1509 189.5 1476.5 c 128,-1,20
 222 1444 222 1444 222 1398 c 256,21,22
 222 1352 222 1352 189.5 1319.5 c 128,-1,23
 157 1287 157 1287 111 1287 c 256,12,13
EndSplineSet
Validated: 1
EndChar

StartChar: uni0307
Encoding: 775 775 385
Width: 0
GlyphClass: 4
Flags: W
AnchorPoint: "Anchor-4" 121 1598 basemark 0
AnchorPoint: "Anchor-4" 121 1025 mark 0
AnchorPoint: "Anchor-0" 121 1025 mark 0
LayerCount: 2
Fore
SplineSet
122 1355 m 256,0,1
 88 1355 88 1355 60.5 1371.5 c 128,-1,2
 33 1388 33 1388 16.5 1415.5 c 128,-1,3
 0 1443 0 1443 0 1477 c 0,4,5
 0 1510 0 1510 16.5 1537.5 c 128,-1,6
 33 1565 33 1565 60.5 1581.5 c 128,-1,7
 88 1598 88 1598 122 1598 c 256,8,9
 156 1598 156 1598 183 1581.5 c 128,-1,10
 210 1565 210 1565 226.5 1537.5 c 128,-1,11
 243 1510 243 1510 243 1477 c 0,12,13
 243 1443 243 1443 226.5 1415.5 c 128,-1,14
 210 1388 210 1388 183 1371.5 c 128,-1,15
 156 1355 156 1355 122 1355 c 256,0,1
EndSplineSet
Validated: 1
EndChar

StartChar: gravecomb
Encoding: 768 768 386
Width: 0
GlyphClass: 4
Flags: W
AnchorPoint: "Anchor-4" 188 1666 basemark 0
AnchorPoint: "Anchor-4" 188 1025 mark 0
AnchorPoint: "Anchor-0" 188 1025 mark 0
LayerCount: 2
Fore
SplineSet
266 1143 m 1,0,-1
 0 1507 l 1,1,-1
 142 1611 l 1,2,-1
 358 1213 l 1,3,-1
 266 1143 l 1,0,-1
EndSplineSet
Validated: 1
EndChar

StartChar: acutecomb
Encoding: 769 769 387
Width: 0
GlyphClass: 4
Flags: W
AnchorPoint: "Anchor-4" 114 1687 basemark 0
AnchorPoint: "Anchor-4" 114 1025 mark 0
AnchorPoint: "Anchor-0" 114 1025 mark 0
LayerCount: 2
Fore
SplineSet
91 1143 m 1,0,-1
 0 1213 l 1,1,-1
 216 1611 l 1,2,-1
 358 1507 l 1,3,-1
 91 1143 l 1,0,-1
EndSplineSet
Validated: 1
EndChar

StartChar: uni030B
Encoding: 779 779 388
Width: 0
GlyphClass: 4
Flags: W
AnchorPoint: "Anchor-4" 325 1680 basemark 0
AnchorPoint: "Anchor-4" 325 1025 mark 0
AnchorPoint: "Anchor-0" 325 1025 mark 0
LayerCount: 2
Fore
SplineSet
482 1333 m 1,0,-1
 399 1426 l 1,1,-1
 655 1680 l 1,2,-1
 787 1541 l 1,3,-1
 482 1333 l 1,0,-1
83 1333 m 1,4,-1
 0 1426 l 1,5,-1
 257 1680 l 1,6,-1
 387 1541 l 1,7,-1
 83 1333 l 1,4,-1
EndSplineSet
Validated: 1
EndChar

StartChar: uni0302
Encoding: 770 770 389
Width: 0
GlyphClass: 4
Flags: W
AnchorPoint: "Anchor-4" 384 1680 basemark 0
AnchorPoint: "Anchor-4" 384 1025 mark 0
AnchorPoint: "Anchor-0" 384 1025 mark 0
LayerCount: 2
Fore
SplineSet
78 1292 m 1,0,-1
 0 1398 l 1,1,-1
 384 1680 l 1,2,-1
 769 1398 l 1,3,-1
 690 1292 l 1,4,-1
 384 1516 l 1,5,-1
 78 1292 l 1,0,-1
EndSplineSet
Validated: 1
EndChar

StartChar: uni030C
Encoding: 780 780 390
Width: 0
GlyphClass: 4
Flags: W
AnchorPoint: "Anchor-4" 384 1680 basemark 0
AnchorPoint: "Anchor-4" 384 1025 mark 0
AnchorPoint: "Anchor-0" 384 1025 mark 0
LayerCount: 2
Fore
SplineSet
384 1205 m 1,0,-1
 0 1487 l 1,1,-1
 78 1594 l 1,2,-1
 384 1370 l 1,3,-1
 690 1594 l 1,4,-1
 769 1487 l 1,5,-1
 384 1205 l 1,0,-1
EndSplineSet
Validated: 1
EndChar

